<?xml version="1.0" encoding="utf-8"?>
<!-- Generator: Adobe Illustrator 27.5.0, SVG Export Plug-In . SVG Version: 6.00 Build 0)  -->
<svg version="1.1" id="Capa_1" xmlns="http://www.w3.org/2000/svg" xmlns:xlink="http://www.w3.org/1999/xlink" x="0px" y="0px"
	 viewBox="0 0 2122 2122" style="enable-background:new 0 0 2122 2122;" xml:space="preserve">
<g>
	<g>
		<g>
			<path style="fill:#8FAEBE;" d="M146.683,1817.981c73.851,224.534,388.644,112.642,601.056,57.344
				c356.586-92.842,626.167,123.974,872.353,124.579c159.95,0.429,287.003-97.314,336.357-185.596
				c56.721-101.358,43.917-245.854-24.935-259.009H152.881C128.247,1635.532,117.714,1729.874,146.683,1817.981z"/>
		</g>
	</g>
	<g>
		<g>
			<g>
				<rect x="872.397" y="126.215" style="fill:#585B5C;" width="510.202" height="915.636"/>
				<path style="fill:#E6E7E8;" d="M1016.766,1020.336c103.219,6.109,200.855-12.892,281.673-76.715
					c89.033-70.265,78.889-162.123,76.063-273.245c-2.728-107.361-11.547-442.705-30.333-548.964h38.431v915.646H872.397
					C872.397,944.537,849.809,1010.388,1016.766,1020.336z"/>
				<rect x="906.657" y="148.87" style="fill:#FFFFFF;" width="432.346" height="785.377"/>
				<rect x="921.351" y="159.511" style="fill:#FEC782;" width="402.968" height="450.267"/>
				<path style="fill:#D9A66A;" d="M921.351,165.085c0-8.614-32.4-5.574,402.968-5.574
					C1324.319,168.135,1356.718,165.085,921.351,165.085z"/>
				<path style="fill:#D9A66A;" d="M921.351,223.53c0-8.613-32.4-5.573,402.968-5.573
					C1324.319,226.57,1356.718,223.53,921.351,223.53z"/>
				<path style="fill:#D9A66A;" d="M921.351,236.763c0-8.614-32.4-5.574,402.968-5.574
					C1324.319,239.803,1356.718,236.763,921.351,236.763z"/>
				<path style="fill:#D9A66A;" d="M921.351,249.995c0-8.467-33.286-5.574,402.968-5.574
					C1324.319,252.889,1357.615,249.995,921.351,249.995z"/>
				<path style="fill:#D9A66A;" d="M921.351,263.228c0-8.614-32.4-5.574,402.968-5.574
					C1324.319,266.277,1356.718,263.228,921.351,263.228z"/>
				<path style="fill:#D9A66A;" d="M921.351,297.078c0-8.613-32.4-5.574,402.968-5.574
					C1324.319,300.129,1356.718,297.078,921.351,297.078z"/>
				<path style="fill:#D9A66A;" d="M921.351,314.326c0-8.059-44.784-5.564,402.968-5.564
					C1324.319,316.83,1369.103,314.326,921.351,314.326z"/>
				<path style="fill:#D9A66A;" d="M921.351,331.582c0-8.613-32.4-5.573,402.968-5.573
					C1324.319,334.623,1356.718,331.582,921.351,331.582z"/>
				<path style="fill:#D9A66A;" d="M921.351,348.83c0-8.614-32.4-5.574,402.968-5.574
					C1324.319,351.87,1356.718,348.83,921.351,348.83z"/>
				<path style="fill:#D9A66A;" d="M921.351,393.078c0-8.613-32.4-5.574,402.968-5.574
					C1324.319,396.118,1356.718,393.078,921.351,393.078z"/>
				<path style="fill:#D9A66A;" d="M921.351,406.047c0-8.467-33.286-5.574,402.968-5.574
					C1324.319,408.941,1357.615,406.047,921.351,406.047z"/>
				<path style="fill:#D9A66A;" d="M921.351,419.016c0-8.613-32.4-5.574,402.968-5.574
					C1324.319,422.067,1356.718,419.016,921.351,419.016z"/>
				<path style="fill:#D9A66A;" d="M921.351,431.996c0-8.468-33.286-5.583,402.968-5.583
					C1324.319,434.88,1357.615,431.996,921.351,431.996z"/>
				<path style="fill:#D9A66A;" d="M921.351,444.965c0-8.468-33.286-5.583,402.968-5.583
					C1324.319,447.859,1357.615,444.965,921.351,444.965z"/>
				<path style="fill:#D9A66A;" d="M921.351,511.128c0-8.613-32.4-5.574,402.968-5.574
					C1324.319,514.168,1356.718,511.128,921.351,511.128z"/>
				<path style="fill:#D9A66A;" d="M921.351,524.74c0-8.613-32.4-5.573,402.968-5.573
					C1324.319,527.79,1356.718,524.74,921.351,524.74z"/>
				<path style="fill:#D9A66A;" d="M921.351,537.719c0-8.614-32.4-5.574,402.968-5.574
					C1324.319,540.76,1356.718,537.719,921.351,537.719z"/>
				<path style="fill:#D9A66A;" d="M921.351,550.689c0-8.614-32.4-5.574,402.968-5.574
					C1324.319,553.729,1356.718,550.689,921.351,550.689z"/>
				<path style="fill:#D9A66A;" d="M921.351,563.658c0-8.467-33.286-5.574,402.968-5.574
					C1324.319,566.552,1357.615,563.658,921.351,563.658z"/>
				<path style="fill:#D9A66A;" d="M921.351,576.638c0-8.477-33.286-5.584,402.968-5.584
					C1324.319,579.532,1357.615,576.638,921.351,576.638z"/>
				<path style="fill:#D9A66A;" d="M921.351,589.607c0-8.614-32.4-5.574,402.968-5.574
					C1324.319,592.647,1356.718,589.607,921.351,589.607z"/>
				<path style="fill:#D9A66A;" d="M921.351,602.576c0-8.614-32.4-5.574,402.968-5.574
					C1324.319,605.626,1356.718,602.576,921.351,602.576z"/>
				<path style="fill:#D9A66A;" d="M921.351,457.935c0-8.613-32.4-5.574,402.968-5.574
					C1324.319,460.984,1356.718,457.935,921.351,457.935z"/>
				<path style="fill:#D9A66A;" d="M921.351,180.422c0-12.092-44.765-8.361,402.968-8.361
					C1324.319,184.164,1369.084,180.422,921.351,180.422z"/>
				<path style="fill:#D9A66A;" d="M921.351,195.253c0-12.093-44.765-8.361,402.968-8.361
					C1324.319,198.984,1369.084,195.253,921.351,195.253z"/>
				<path style="fill:#D9A66A;" d="M921.351,210.074c0-12.053-45.106-8.371,402.968-8.371
					C1324.319,213.757,1369.425,210.074,921.351,210.074z"/>
				<path style="fill:#D9A66A;" d="M921.351,286.058c0-12.102-44.765-8.36,402.968-8.36
					C1324.319,289.79,1369.084,286.058,921.351,286.058z"/>
				<path style="fill:#D9A66A;" d="M921.351,476.78c0-20.073-57.568-14.11,402.968-14.11
					C1324.319,482.753,1381.887,476.78,921.351,476.78z"/>
				<path style="fill:#D9A66A;" d="M921.351,498.831c0-20.073-57.568-14.109,402.968-14.109
					C1324.319,504.804,1381.887,498.831,921.351,498.831z"/>
				<path style="fill:#D9A66A;" d="M921.351,364.537c0-12.043-45.106-8.361,402.968-8.361
					C1324.319,368.23,1369.425,364.537,921.351,364.537z"/>
				<path style="fill:#D9A66A;" d="M921.351,378.803c0-12.092-44.765-8.361,402.968-8.361
					C1324.319,382.544,1369.084,378.803,921.351,378.803z"/>
				<rect x="919.061" y="629.168" style="fill:#A7A9AC;" width="407.548" height="292.85"/>
				<rect x="935.314" y="640.841" style="fill:#99DAF0;" width="375.041" height="269.503"/>
				<path style="fill:#C0E7F2;" d="M1075.581,640.841c-90.932,13.223-148.471,64.516-115.799,151.541
					c48.35,128.671,216.544,123.331,350.574,90.611v27.352H935.314V640.841H1075.581z"/>
				<path style="fill:#FFFFFF;" d="M1206.249,810.36c5.418-42.241,69.476-32.311,61.983,9.637c13.983-0.4,26.29,11.001,26.29,25.763
					c0,22.938-27.693,34.28-43.849,18.388c-11.683,14.704-34.367,13.515-44.413-2.456
					C1157.334,881.736,1155.6,789.644,1206.249,810.36z"/>
				<path style="fill:#FFFFFF;" d="M980.186,694.922c-6.285-28.55,33.803-41.442,45.846-15.415
					c6.295-17.861,31.269-19.118,39.23-1.764c18.075-10.173,40.867,1.705,42.669,22.519c25.978,0,25.802,38.908,0.068,38.908
					c0.575,19.508-22.236,28.19-34.923,15.318c-3.625,3.459-8.517,5.603-13.924,5.603c-2.602,0-26.514,24.701-53.544,5.32
					c-20.989,27.527-63.152-6.295-39.405-32.652C952.688,719.389,961.321,696.266,980.186,694.922z"/>
				<g>
					<path style="fill:#6D6E71;" d="M947.183,566.933c-7.522,0-5.184,45.651-5.184-411.241
						C949.521,155.691,947.183,110.04,947.183,566.933z"/>
					<path style="fill:#6D6E71;" d="M937.458,564.301c0,9.452,14.265,9.452,14.265,0
						C951.723,554.889,937.458,554.869,937.458,564.301z"/>
				</g>
				<g>
					<path style="fill:#6D6E71;" d="M950.106,566.933c-7.522,0-5.194,45.651-5.194-411.241
						C952.444,155.691,950.106,110.04,950.106,566.933z"/>
					<path style="fill:#6D6E71;" d="M940.381,564.301c0,9.452,14.265,9.452,14.265,0
						C954.647,554.879,940.381,554.869,940.381,564.301z"/>
				</g>
				<path style="fill:#FED6A7;" d="M1289.396,159.511h34.923v450.267c-462.095,0-402.968,7.6-402.968-18.777
					C1305.981,633.719,1318.463,548.39,1289.396,159.511z"/>
				<rect x="892.255" y="145.957" style="fill:#6D6E71;" width="461.16" height="33.082"/>
				<rect x="892.255" y="136.232" style="fill:#6D6E71;" width="461.16" height="33.071"/>
				<path style="fill:#6D6E71;" d="M1285.157,157.679c81.802-6.129,68.258-17.169,68.258,11.625
					c-529.203,0-461.16,6.519-461.16-16.136C973.833,158.868,1215.702,162.912,1285.157,157.679z"/>
				<rect x="844.382" y="967.747" style="fill:#58595B;" width="566.241" height="93.456"/>
				<path style="fill:#BCBEC0;" d="M1410.623,1005.818v55.385H844.382v-56.837
					C993.993,1047.814,1273.094,1058.641,1410.623,1005.818z"/>
			</g>
			<g>
				<rect x="1377.298" y="126.215" style="fill:#585B5C;" width="510.202" height="915.636"/>
				<path style="fill:#E6E7E8;" d="M1743.131,1020.336c-103.219,6.109-200.846-12.892-281.674-76.715
					c-89.071-70.304-78.888-162.201-76.063-273.245c2.758-108.705,11.566-442.617,30.334-548.964h-38.431v915.646H1887.5
					C1887.5,944.546,1910.078,1010.388,1743.131,1020.336z"/>
				<rect x="1420.893" y="148.87" style="fill:#FFFFFF;" width="432.347" height="785.377"/>
				<rect x="1435.577" y="159.511" style="fill:#FEC782;" width="402.968" height="450.267"/>
				<path style="fill:#D9A66A;" d="M1838.546,165.085c0-8.614,32.4-5.574-402.968-5.574
					C1435.577,168.135,1403.178,165.085,1838.546,165.085z"/>
				<path style="fill:#D9A66A;" d="M1838.546,223.53c0-8.613,32.4-5.573-402.968-5.573
					C1435.577,226.57,1403.178,223.53,1838.546,223.53z"/>
				<path style="fill:#D9A66A;" d="M1838.546,236.763c0-8.614,32.4-5.574-402.968-5.574
					C1435.577,239.803,1403.178,236.763,1838.546,236.763z"/>
				<path style="fill:#D9A66A;" d="M1838.546,249.995c0-8.467,33.296-5.574-402.968-5.574
					C1435.577,252.889,1402.292,249.995,1838.546,249.995z"/>
				<path style="fill:#D9A66A;" d="M1838.546,263.228c0-8.614,32.4-5.574-402.968-5.574
					C1435.577,266.277,1403.178,263.228,1838.546,263.228z"/>
				<path style="fill:#D9A66A;" d="M1838.546,297.078c0-8.613,32.4-5.574-402.968-5.574
					C1435.577,300.129,1403.178,297.078,1838.546,297.078z"/>
				<path style="fill:#D9A66A;" d="M1838.546,314.326c0-8.059,44.784-5.564-402.968-5.564
					C1435.577,316.83,1390.794,314.326,1838.546,314.326z"/>
				<path style="fill:#D9A66A;" d="M1838.546,331.582c0-8.613,32.4-5.573-402.968-5.573
					C1435.577,334.623,1403.178,331.582,1838.546,331.582z"/>
				<path style="fill:#D9A66A;" d="M1838.546,348.83c0-8.614,32.4-5.574-402.968-5.574
					C1435.577,351.87,1403.178,348.83,1838.546,348.83z"/>
				<path style="fill:#D9A66A;" d="M1838.546,393.078c0-8.613,32.4-5.574-402.968-5.574
					C1435.577,396.118,1403.178,393.078,1838.546,393.078z"/>
				<path style="fill:#D9A66A;" d="M1838.546,406.047c0-8.467,33.296-5.574-402.968-5.574
					C1435.577,408.941,1402.292,406.047,1838.546,406.047z"/>
				<path style="fill:#D9A66A;" d="M1838.546,419.016c0-8.613,32.4-5.574-402.968-5.574
					C1435.577,422.067,1403.178,419.016,1838.546,419.016z"/>
				<path style="fill:#D9A66A;" d="M1838.546,431.996c0-8.468,33.296-5.583-402.968-5.583
					C1435.577,434.88,1402.292,431.996,1838.546,431.996z"/>
				<path style="fill:#D9A66A;" d="M1838.546,444.965c0-8.468,33.296-5.583-402.968-5.583
					C1435.577,447.859,1402.292,444.965,1838.546,444.965z"/>
				<path style="fill:#D9A66A;" d="M1838.546,511.128c0-8.613,32.4-5.574-402.968-5.574
					C1435.577,514.168,1403.178,511.128,1838.546,511.128z"/>
				<path style="fill:#D9A66A;" d="M1838.546,524.74c0-8.613,32.4-5.573-402.968-5.573
					C1435.577,527.79,1403.178,524.74,1838.546,524.74z"/>
				<path style="fill:#D9A66A;" d="M1838.546,537.719c0-8.614,32.4-5.574-402.968-5.574
					C1435.577,540.76,1403.178,537.719,1838.546,537.719z"/>
				<path style="fill:#D9A66A;" d="M1838.546,550.689c0-8.614,32.4-5.574-402.968-5.574
					C1435.577,553.729,1403.178,550.689,1838.546,550.689z"/>
				<path style="fill:#D9A66A;" d="M1838.546,563.658c0-8.467,33.296-5.574-402.968-5.574
					C1435.577,566.552,1402.292,563.658,1838.546,563.658z"/>
				<path style="fill:#D9A66A;" d="M1838.546,576.638c0-8.477,33.296-5.584-402.968-5.584
					C1435.577,579.532,1402.292,576.638,1838.546,576.638z"/>
				<path style="fill:#D9A66A;" d="M1838.546,589.607c0-8.614,32.4-5.574-402.968-5.574
					C1435.577,592.647,1403.178,589.607,1838.546,589.607z"/>
				<path style="fill:#D9A66A;" d="M1838.546,602.576c0-8.614,32.4-5.574-402.968-5.574
					C1435.577,605.626,1403.178,602.576,1838.546,602.576z"/>
				<path style="fill:#D9A66A;" d="M1838.546,457.935c0-8.613,32.4-5.574-402.968-5.574
					C1435.577,460.984,1403.178,457.935,1838.546,457.935z"/>
				<path style="fill:#D9A66A;" d="M1838.546,180.422c0-12.092,44.765-8.361-402.968-8.361
					C1435.577,184.164,1390.813,180.422,1838.546,180.422z"/>
				<path style="fill:#D9A66A;" d="M1838.546,195.253c0-12.093,44.765-8.361-402.968-8.361
					C1435.577,198.984,1390.813,195.253,1838.546,195.253z"/>
				<path style="fill:#D9A66A;" d="M1838.546,210.074c0-12.053,45.105-8.371-402.968-8.371
					C1435.577,213.757,1390.472,210.074,1838.546,210.074z"/>
				<path style="fill:#D9A66A;" d="M1838.546,286.058c0-12.102,44.765-8.36-402.968-8.36
					C1435.577,289.79,1390.813,286.058,1838.546,286.058z"/>
				<path style="fill:#D9A66A;" d="M1838.546,476.78c0-20.073,57.568-14.11-402.968-14.11
					C1435.577,482.753,1378.01,476.78,1838.546,476.78z"/>
				<path style="fill:#D9A66A;" d="M1838.546,498.831c0-20.073,57.568-14.109-402.968-14.109
					C1435.577,504.804,1378.01,498.831,1838.546,498.831z"/>
				<path style="fill:#D9A66A;" d="M1838.546,364.537c0-12.043,45.105-8.361-402.968-8.361
					C1435.577,368.23,1390.472,364.537,1838.546,364.537z"/>
				<path style="fill:#D9A66A;" d="M1838.546,378.803c0-12.092,44.765-8.361-402.968-8.361
					C1435.577,382.544,1390.813,378.803,1838.546,378.803z"/>
				<rect x="1433.297" y="629.168" style="fill:#A7A9AC;" width="407.538" height="292.85"/>
				<rect x="1449.541" y="640.841" style="fill:#99DAF0;" width="375.051" height="269.503"/>
				<path style="fill:#C0E7F2;" d="M1684.316,640.841c91.127,13.252,148.432,64.672,115.799,151.541
					c-48.321,128.671-216.544,123.331-350.574,90.611v27.352h375.051V640.841H1684.316z"/>
				<path style="fill:#FFFFFF;" d="M1744.389,789.849c-4.921,0-9.608,0.974-13.905,2.729c-7.172-56.009-92.316-42.806-82.212,12.774
					c-20.56,0-34.874,16.039-34.874,34.183c0,30.304,36.677,45.505,58.173,24.39c15.503,19.537,45.622,17.88,58.894-3.245
					C1784.914,882.964,1803.223,789.849,1744.389,789.849z"/>
				<path style="fill:#FFFFFF;" d="M1522.3,687.808c-0.857-29.573,44.307-29.729,43.634-0.088c9.179-1.91,19.226,4.531,20.862,14.86
					c2.465,15.678-15.298,26.582-28.141,17.374c-6.47,11.43-22.188,12.979-30.792,3.138
					C1496.43,742.161,1485.243,679.107,1522.3,687.808z"/>
				<g>
					<path style="fill:#6D6E71;" d="M1812.714,566.933c7.522,0,5.193,45.651,5.193-411.241
						C1810.375,155.691,1812.714,110.04,1812.714,566.933z"/>
					<path style="fill:#6D6E71;" d="M1822.439,564.301c0,9.452-14.266,9.452-14.266,0
						C1808.173,554.879,1822.439,554.869,1822.439,564.301z"/>
				</g>
				<g>
					<path style="fill:#6D6E71;" d="M1809.801,566.933c7.522,0,5.184,45.651,5.184-411.241
						C1807.462,155.691,1809.801,110.04,1809.801,566.933z"/>
					<path style="fill:#6D6E71;" d="M1819.525,564.301c0,9.452-14.266,9.452-14.266,0
						C1805.26,554.879,1819.525,554.869,1819.525,564.301z"/>
				</g>
				<path style="fill:#FED6A7;" d="M1470.51,159.511h-34.933v450.267c462.096,0,402.968,7.6,402.968-18.777
					C1455.348,633.563,1441.288,550.494,1470.51,159.511z"/>
				<rect x="1406.482" y="145.957" style="fill:#6D6E71;" width="461.17" height="33.082"/>
				<rect x="1406.482" y="136.232" style="fill:#6D6E71;" width="461.17" height="33.071"/>
				<path style="fill:#6D6E71;" d="M1474.749,157.679c-81.802-6.129-68.267-17.169-68.267,11.625
					c529.203,0,461.17,6.519,461.17-16.136C1786.064,158.868,1544.205,162.912,1474.749,157.679z"/>
				<rect x="1349.274" y="967.747" style="fill:#58595B;" width="566.241" height="93.456"/>
				<path style="fill:#BCBEC0;" d="M1349.274,1005.818v55.385h566.241v-56.837
					C1765.904,1047.805,1486.802,1058.641,1349.274,1005.818z"/>
			</g>
		</g>
		<g>
			<g>
				<path style="fill:#D1D3D4;" d="M1802.921,1457.877c5.905,3.498,13.281,0.03,15.064,2.67c3.371,5.008,0.887-4.999,20.551,4.56
					c2.134,1.053,11.274-15.172,12.287-18.738c1.53-5.438-2.904-6.616-2.855-13.798c3.82-10.514,4.394-17.832-2.855-25.432
					c-30.509-31.951-27.965-8.165-39.551-0.682c-11.576,7.649-18.816,20.852-11.742,33.637
					C1799.988,1451.241,1799.043,1455.577,1802.921,1457.877z"/>
				<path style="fill:#D1D3D4;" d="M1802.921,1457.877c5.905,3.498,13.281,0.03,15.064,2.67c3.371,5.008,0.887-4.999,20.551,4.56
					c2.543,1.257,2.28-1.978,5.778-7.298c2.991-2.991,0.984-0.497-10.689,0.595c-24.711,2.397-38.557-19.751-33.832-35.761
					c4.18-14.207,21.613-28.414,28.521-31.005c-12.959-4.746-15.581,10.192-22.752,14.821
					c-11.576,7.649-18.816,20.852-11.742,33.637C1799.988,1451.241,1799.043,1455.577,1802.921,1457.877z"/>
			</g>
			<g>
				<path style="fill:#D1D3D4;" d="M1864.124,1473.77c6.626-1.647,9.5-9.316,12.589-8.702c5.915,1.15-2.884-4.2,17.803-11.225
					c2.25-0.77-2.709-18.816-4.453-21.953c-2.748-4.97-6.724-2.641-11.742-7.815c-4.668-10.095-9.393-15.756-19.927-16.039
					c-43.79-1.335-25.773,14.139-28.569,27.352c-2.641,12.609,0.633,27.859,15.327,32.156
					C1857.313,1471.109,1859.798,1474.851,1864.124,1473.77z"/>
				<path style="fill:#D1D3D4;" d="M1864.124,1473.77c6.626-1.647,9.5-9.316,12.589-8.702c5.915,1.15-2.884-4.2,17.803-11.225
					c2.67-0.916,0.243-2.972-1.033-9.266c0.039-4.2,0.438-1.169-7.162,7.961c-15.854,19.06-41.286,13.126-49.217-1.608
					c-7.026-13.057-4.658-35.4-1.55-42.085c-12.385,5.622-3.976,18.251-5.729,26.543c-2.641,12.609,0.633,27.859,15.327,32.156
					C1857.313,1471.109,1859.798,1474.851,1864.124,1473.77z"/>
			</g>
			<g>
				<path style="fill:#D1D3D4;" d="M1854.302,1438.476c1.306,6.733,8.799,9.969,8.019,13.038c-1.5,5.817,4.337-2.66,10.251,18.377
					c0.653,2.348,19.079-1.783,22.168-3.284c5.067-2.456,3.04-6.616,8.419-11.294c10.387-4.161,16.224-8.575,17.101-19.05
					c3.537-43.693-12.638-26.475-25.803-29.992c-12.959-3.45-27.946-0.575-32.925,13.583
					C1857.274,1431.967,1853.444,1434.091,1854.302,1438.476z"/>
				<path style="fill:#D1D3D4;" d="M1854.302,1438.476c1.306,6.733,8.799,9.969,8.019,13.038c-1.5,5.817,4.337-2.66,10.251,18.377
					c0.76,2.729,2.972,0.4,9.306-0.536c4.17,0.253,1.082,0.438-7.562-7.581c-18.212-16.887-10.875-41.939,4.229-49.062
					c13.447-6.324,35.683-2.719,42.114,0.701c-4.931-12.648-18.027-4.959-26.202-7.142c-12.959-3.45-27.946-0.575-32.925,13.583
					C1857.274,1431.967,1853.444,1434.091,1854.302,1438.476z"/>
			</g>
			<g>
				<path style="fill:#D1D3D4;" d="M1807.93,1423.996c-3.118-6.041-11.235-7.162-11.342-10.27
					c-0.224-6.051-3.459,3.791-14.977-14.791c-1.286-2.066-17.724,6.967-20.375,9.325c-4.219,3.849-1.033,7.162-4.931,13.213
					c-9.13,7.074-13.145,13.028-11.099,23.045c8.702,42.728,19.713,21.993,33.14,21.612c13.895-0.322,27.03-7.708,27.829-22.236
					C1806.887,1431.227,1809.966,1427.962,1807.93,1423.996z"/>
				<path style="fill:#D1D3D4;" d="M1807.93,1423.996c-3.118-6.041-11.235-7.162-11.342-10.27
					c-0.224-6.051-3.459,3.791-14.977-14.791c-1.51-2.427-2.855,0.399-8.78,3.108c-4.2,0.925-1.218-0.156,9.374,5.174
					c22.237,11.157,22.119,37.262,9.627,48.292c-11.127,9.812-33.471,12.56-40.643,11.079c8.322,10.787,18.583-0.214,27.157-0.458
					c13.895-0.322,27.03-7.708,27.829-22.236C1806.887,1431.227,1809.966,1427.962,1807.93,1423.996z"/>
			</g>
			<g>
				<g>
					<defs>
						<polyline id="SVGID_1_" points="1828.86,1643.278 1763.038,1643.278 1742.011,1460.713 1915.719,1460.713 1894.701,1643.278 
							1828.86,1643.278 						"/>
					</defs>
					<clipPath id="SVGID_00000003088119501614137300000006607344150775610040_">
						<use xlink:href="#SVGID_1_"  style="overflow:visible;"/>
					</clipPath>
					<g style="clip-path:url(#SVGID_00000003088119501614137300000006607344150775610040_);">
						<g>
							<polyline style="fill:#9DA5B8;" points="1828.86,1643.278 1763.038,1643.278 1742.011,1460.713 1915.719,1460.713 
								1894.701,1643.278 1828.86,1643.278 							"/>
						</g>
						<g>
							<g>
								<path style="fill:#FFFFFF;" d="M1754.883,1505.321c-13.457-16.633-13.457-9.627,0-27.001
									C1768.622,1495.694,1768.622,1488.697,1754.883,1505.321z"/>
								<path style="fill:#FFFFFF;" d="M1784.388,1505.321c-13.466-16.624-13.466-9.627,0-27.001
									C1798.127,1495.694,1798.127,1488.697,1784.388,1505.321z"/>
								<path style="fill:#FFFFFF;" d="M1813.893,1505.321c-13.466-16.624-13.466-9.627,0-27.001
									C1827.632,1495.694,1827.642,1488.688,1813.893,1505.321z"/>
								<path style="fill:#FFFFFF;" d="M1843.399,1505.321c-13.466-16.633-13.457-9.627,0-27.001
									C1857.138,1495.694,1857.138,1488.688,1843.399,1505.321z"/>
								<path style="fill:#FFFFFF;" d="M1872.903,1505.321c-13.466-16.633-13.456-9.627,0-27.001
									C1886.633,1495.694,1886.633,1488.697,1872.903,1505.321z"/>
								<path style="fill:#FFFFFF;" d="M1902.409,1505.321c-13.466-16.633-13.457-9.627,0-27.001
									C1916.138,1495.694,1916.138,1488.697,1902.409,1505.321z"/>
							</g>
							<g>
								<path style="fill:#FFFFFF;" d="M1744.018,1525.735c-13.116-16.205-13.116-9.384,0-26.309
									C1757.406,1516.351,1757.416,1509.521,1744.018,1525.735z"/>
								<path style="fill:#FFFFFF;" d="M1772.764,1525.735c-13.126-16.205-13.116-9.384,0-26.309
									C1786.161,1516.351,1786.161,1509.521,1772.764,1525.735z"/>
								<path style="fill:#FFFFFF;" d="M1801.518,1525.735c-13.125-16.205-13.125-9.384,0-26.309
									C1814.897,1516.351,1814.897,1509.53,1801.518,1525.735z"/>
								<path style="fill:#FFFFFF;" d="M1830.264,1525.735c-13.126-16.205-13.116-9.384,0-26.309
									C1843.642,1516.351,1843.642,1509.53,1830.264,1525.735z"/>
								<path style="fill:#FFFFFF;" d="M1859.018,1525.735c-13.135-16.205-13.135-9.384,0-26.309
									C1872.397,1516.351,1872.397,1509.53,1859.018,1525.735z"/>
								<path style="fill:#FFFFFF;" d="M1887.763,1525.735c-13.125-16.205-13.125-9.384,0-26.309
									C1901.142,1516.351,1901.142,1509.53,1887.763,1525.735z"/>
								<path style="fill:#FFFFFF;" d="M1913.498,1525.735c-13.125-16.205-13.116-9.384,0-26.309
									C1926.886,1516.351,1926.886,1509.53,1913.498,1525.735z"/>
							</g>
							<g>
								<path style="fill:#FFFFFF;" d="M1754.883,1549.238c-13.457-16.633-13.457-9.637,0-27.001
									C1768.622,1539.601,1768.622,1532.604,1754.883,1549.238z"/>
								<path style="fill:#FFFFFF;" d="M1784.388,1549.238c-13.466-16.633-13.466-9.637,0-27.001
									C1798.127,1539.601,1798.127,1532.604,1784.388,1549.238z"/>
								<path style="fill:#FFFFFF;" d="M1813.893,1549.238c-13.466-16.633-13.466-9.637,0-27.001
									C1827.632,1539.601,1827.642,1532.604,1813.893,1549.238z"/>
								<path style="fill:#FFFFFF;" d="M1843.399,1549.238c-13.466-16.633-13.466-9.637,0-27.001
									C1857.138,1539.601,1857.138,1532.604,1843.399,1549.238z"/>
								<path style="fill:#FFFFFF;" d="M1872.903,1549.238c-13.466-16.633-13.466-9.637,0-27.001
									C1886.633,1539.601,1886.633,1532.604,1872.903,1549.238z"/>
								<path style="fill:#FFFFFF;" d="M1902.409,1549.238c-13.466-16.633-13.466-9.637,0-27.001
									C1916.138,1539.601,1916.138,1532.604,1902.409,1549.238z"/>
							</g>
							<g>
								<path style="fill:#FFFFFF;" d="M1744.018,1569.652c-13.116-16.214-13.116-9.393,0-26.319
									C1757.406,1560.268,1757.406,1553.437,1744.018,1569.652z"/>
								<path style="fill:#FFFFFF;" d="M1772.764,1569.652c-13.126-16.214-13.126-9.393,0-26.319
									C1786.161,1560.268,1786.161,1553.437,1772.764,1569.652z"/>
								<path style="fill:#FFFFFF;" d="M1801.518,1569.652c-13.125-16.214-13.125-9.393,0-26.319
									C1814.897,1560.258,1814.906,1553.437,1801.518,1569.652z"/>
								<path style="fill:#FFFFFF;" d="M1830.264,1569.652c-13.126-16.214-13.126-9.393,0-26.319
									C1843.642,1560.258,1843.652,1553.437,1830.264,1569.652z"/>
								<path style="fill:#FFFFFF;" d="M1859.018,1569.652c-13.135-16.214-13.135-9.384,0-26.319
									C1872.387,1560.258,1872.397,1553.437,1859.018,1569.652z"/>
								<path style="fill:#FFFFFF;" d="M1887.763,1569.652c-13.125-16.214-13.125-9.393,0-26.319
									C1901.142,1560.258,1901.152,1553.437,1887.763,1569.652z"/>
								<path style="fill:#FFFFFF;" d="M1913.498,1569.652c-13.125-16.214-13.125-9.393,0-26.319
									C1926.876,1560.258,1926.886,1553.437,1913.498,1569.652z"/>
							</g>
							<g>
								<path style="fill:#FFFFFF;" d="M1754.883,1590.407c-13.457-16.643-13.457-9.637,0-27.011
									C1768.622,1580.76,1768.632,1573.754,1754.883,1590.407z"/>
								<path style="fill:#FFFFFF;" d="M1784.388,1590.407c-13.466-16.643-13.466-9.637,0-27.011
									C1798.127,1580.76,1798.137,1573.754,1784.388,1590.407z"/>
								<path style="fill:#FFFFFF;" d="M1813.893,1590.407c-13.466-16.643-13.466-9.637,0-27.011
									C1827.632,1580.76,1827.642,1573.764,1813.893,1590.407z"/>
								<path style="fill:#FFFFFF;" d="M1843.399,1590.407c-13.466-16.643-13.466-9.637,0-27.011
									C1857.128,1580.76,1857.138,1573.764,1843.399,1590.407z"/>
								<path style="fill:#FFFFFF;" d="M1872.903,1590.407c-13.466-16.643-13.466-9.637,0-27.011
									C1886.633,1580.76,1886.643,1573.754,1872.903,1590.407z"/>
								<path style="fill:#FFFFFF;" d="M1902.409,1590.407c-13.466-16.643-13.466-9.637,0-27.011
									C1916.138,1580.76,1916.148,1573.754,1902.409,1590.407z"/>
							</g>
							<g>
								<path style="fill:#FFFFFF;" d="M1744.018,1610.821c-13.116-16.205-13.116-9.384,0-26.309
									C1757.406,1601.437,1757.416,1594.607,1744.018,1610.821z"/>
								<path style="fill:#FFFFFF;" d="M1772.764,1610.821c-13.126-16.205-13.116-9.384,0-26.309
									C1786.161,1601.437,1786.161,1594.607,1772.764,1610.821z"/>
								<path style="fill:#FFFFFF;" d="M1801.518,1610.821c-13.125-16.205-13.125-9.384,0-26.309
									C1814.897,1601.437,1814.897,1594.616,1801.518,1610.821z"/>
								<path style="fill:#FFFFFF;" d="M1830.264,1610.821c-13.126-16.205-13.116-9.384,0-26.309
									C1843.642,1601.437,1843.642,1594.616,1830.264,1610.821z"/>
								<path style="fill:#FFFFFF;" d="M1859.018,1610.821c-13.135-16.205-13.135-9.384,0-26.309
									C1872.397,1601.437,1872.397,1594.616,1859.018,1610.821z"/>
								<path style="fill:#FFFFFF;" d="M1887.763,1610.821c-13.125-16.205-13.125-9.384,0-26.309
									C1901.142,1601.437,1901.142,1594.616,1887.763,1610.821z"/>
								<path style="fill:#FFFFFF;" d="M1913.498,1610.821c-13.125-16.205-13.116-9.384,0-26.309
									C1926.886,1601.437,1926.886,1594.616,1913.498,1610.821z"/>
							</g>
							<g>
								<path style="fill:#FFFFFF;" d="M1754.883,1631.576c-13.457-16.633-13.457-9.637,0-27.001
									C1768.622,1621.939,1768.632,1614.933,1754.883,1631.576z"/>
								<path style="fill:#FFFFFF;" d="M1784.388,1631.576c-13.466-16.633-13.466-9.637,0-27.001
									C1798.127,1621.939,1798.137,1614.933,1784.388,1631.576z"/>
								<path style="fill:#FFFFFF;" d="M1813.893,1631.576c-13.466-16.633-13.466-9.637,0-27.001
									C1827.632,1621.939,1827.642,1614.933,1813.893,1631.576z"/>
								<path style="fill:#FFFFFF;" d="M1843.399,1631.576c-13.466-16.633-13.466-9.637,0-27.001
									C1857.128,1621.939,1857.138,1614.933,1843.399,1631.576z"/>
								<path style="fill:#FFFFFF;" d="M1872.903,1631.576c-13.466-16.633-13.466-9.637,0-27.001
									C1886.633,1621.939,1886.643,1614.933,1872.903,1631.576z"/>
								<path style="fill:#FFFFFF;" d="M1902.409,1631.576c-13.466-16.633-13.466-9.637,0-27.001
									C1916.138,1621.939,1916.148,1614.933,1902.409,1631.576z"/>
							</g>
							<g>
								<path style="fill:#FFFFFF;" d="M1744.018,1651.98c-13.116-16.195-13.116-9.374,0-26.309
									C1757.406,1642.606,1757.416,1635.775,1744.018,1651.98z"/>
								<path style="fill:#FFFFFF;" d="M1772.764,1651.98c-13.126-16.205-13.116-9.384,0-26.309
									C1786.161,1642.606,1786.161,1635.775,1772.764,1651.98z"/>
								<path style="fill:#FFFFFF;" d="M1801.518,1651.98c-13.125-16.205-13.125-9.384,0-26.309
									C1814.897,1642.596,1814.897,1635.785,1801.518,1651.98z"/>
								<path style="fill:#FFFFFF;" d="M1830.264,1651.98c-13.126-16.205-13.116-9.384,0-26.309
									C1843.642,1642.606,1843.642,1635.785,1830.264,1651.98z"/>
								<path style="fill:#FFFFFF;" d="M1859.018,1651.98c-13.135-16.205-13.135-9.374,0-26.309
									C1872.397,1642.606,1872.397,1635.785,1859.018,1651.98z"/>
								<path style="fill:#FFFFFF;" d="M1887.763,1651.98c-13.125-16.205-13.125-9.384,0-26.309
									C1901.142,1642.596,1901.142,1635.785,1887.763,1651.98z"/>
								<path style="fill:#FFFFFF;" d="M1913.498,1651.98c-13.125-16.205-13.116-9.384,0-26.309
									C1926.886,1642.596,1926.886,1635.785,1913.498,1651.98z"/>
							</g>
							<g>
								<path style="fill:#FFFFFF;" d="M1764.754,1658.216c-12.424-15.717-6.957-16.244-19.537,0H1764.754z"/>
								<path style="fill:#FFFFFF;" d="M1794.259,1658.216c-12.434-15.717-6.958-16.234-19.537,0H1794.259z"/>
								<path style="fill:#FFFFFF;" d="M1823.764,1658.216c-12.424-15.717-6.957-16.244-19.546,0H1823.764z"/>
								<path style="fill:#FFFFFF;" d="M1853.269,1658.216c-12.433-15.717-6.957-16.244-19.537,0H1853.269z"/>
								<path style="fill:#FFFFFF;" d="M1882.774,1658.216c-12.433-15.717-6.957-16.244-19.546,0H1882.774z"/>
								<path style="fill:#FFFFFF;" d="M1912.28,1658.216c-12.433-15.717-6.957-16.244-19.547,0H1912.28z"/>
							</g>
						</g>
					</g>
				</g>
				<g>
					<g>
						<path style="fill:#9DA5B8;" d="M1897.663,1646.601c-48.419,0-89.207,0-137.587,0l-21.788-189.202h181.163L1897.663,1646.601z
							 M1891.739,1639.956l20.258-175.92h-166.264l20.258,175.92C1807.949,1639.956,1849.801,1639.956,1891.739,1639.956z"/>
					</g>
				</g>
				<g>
					<path style="fill:#9DA5B8;" d="M1742.011,1460.713c8.497,73.724-8.302,15.22,80.974,37.203
						c83.322,20.531,92.589,129.382-11.031,134.858c-56.925,3.04-53.232-26.942-48.916,10.504h131.663l21.018-182.566H1742.011z"/>
				</g>
				<path style="fill:#585B5C;" d="M1921.868,1452.42c-199.843,0-190.985-2.134-190.985,4.979c0,23.435,11.459,32.643,22.694,32.643
					c149.952,0,173.27,9.52,173.27-27.615C1926.847,1458.598,1927.646,1452.42,1921.868,1452.42z"/>
				<path style="fill:#585B5C;" d="M1730.922,1463.353c0.41,14.791,10.407,26.689,22.656,26.689
					c157.679,0,167.063,7.24,172.637-21.233C1862.633,1488.785,1795.204,1481.925,1730.922,1463.353z"/>
			</g>
		</g>
		<g>
			<g>
				<g>
					<g>
						<g>
							<path style="fill:none;stroke:#A7A9AC;stroke-width:5.5465;stroke-miterlimit:10;" d="M427.138,571.025l-94.966-160.593
								l106.737-100.968c-7.396-8.137,11.44-21.661-117.816,100.968C433.745,600.949,415.845,578.187,427.138,571.025z"/>
						</g>
						<path style="fill:#293D98;" d="M439.63,559.059c-12.501-22.733-45.115-22.772-57.627-0.009
							c-12.453,6.568-22.421,17.237-28.034,30.236h113.685C462.042,576.287,452.083,565.617,439.63,559.059z"/>
						<g>
							<path style="fill:#293D98;" d="M348.864,410.608c0,24.73-37.437,24.779-37.437,0
								C311.427,385.828,348.864,385.838,348.864,410.608z"/>
							<path style="fill:#0073BD;" d="M343.027,410.608c0,17.023-25.754,17.042-25.754,0
								C317.273,393.565,343.027,393.575,343.027,410.608z"/>
						</g>
						<path style="fill:#9B9DA0;" d="M441.024,580.243c-30.85,8.955-67.634,2.524-79.22-4.2
							c-14.548,18.768-18.748,13.242,105.85,13.242C457.969,566.854,457.326,575.527,441.024,580.243z"/>
					</g>
					<g>
						<path style="fill:#FCD767;" d="M508.083,337.205c11.371,36.784-44.238,54.041-55.639,17.208
							C441.063,317.629,496.692,300.382,508.083,337.205z"/>
						<g>
							<path style="fill:#293D98;" d="M445.984,285.006c-30.636-1.715-51.098,30.996-36.112,57.812
								c-6.636,30.207,20.745,54.84,33.861,60.248l71.239-114.065C500.882,281.897,471.932,264.017,445.984,285.006z"/>
							<path style="fill:#0073BD;" d="M523.401,294.253c-81.948,131.273-67.838,116.199-79.668,108.813
								C525.681,271.793,511.571,286.876,523.401,294.253z"/>
						</g>
						<g>
							<path style="fill:#9B9DA0;" d="M433.921,397.151c-5.311-47.006,17.345-95.551,52.842-120.242
								c-12.697-3.225-27.147-2.924-40.779,8.097c-30.636-1.715-51.098,30.996-36.112,57.812
								C404.649,366.613,420.532,386.949,433.921,397.151z"/>
						</g>
					</g>
				</g>
				
					<linearGradient id="SVGID_00000086665483235026061890000001462757908395133072_" gradientUnits="userSpaceOnUse" x1="796.391" y1="286.7168" x2="1279.6345" y2="648.6516" gradientTransform="matrix(1 0 0 1 -336.667 0)">
					<stop  offset="0" style="stop-color:#FFDE17"/>
					<stop  offset="1" style="stop-color:#FFFFFF"/>
				</linearGradient>
				<polygon style="opacity:0.5;fill:url(#SVGID_00000086665483235026061890000001462757908395133072_);" points="495.932,326.516 
					1024.912,441.652 689.577,727.243 469.808,361.312 				"/>
			</g>
			<g>
				<rect x="247.399" y="589.607" style="fill:#C49A6C;" width="462.349" height="989.993"/>
				<path style="fill:#C49A6C;" d="M709.747,589.607v68.764C395.928,551.39,269.927,676.719,268.163,957.233
					c-1.696,265.537,58.182,492.312,285.016,622.367h-305.78V589.607H709.747z"/>
				<rect x="269.021" y="616.12" style="fill:#8B5E3C;" width="419.104" height="243.116"/>
				<rect x="269.021" y="922.037" style="fill:#8B5E3C;" width="419.104" height="243.106"/>
				<rect x="269.021" y="1227.945" style="fill:#8B5E3C;" width="419.104" height="243.106"/>
				<rect x="269.021" y="1485.141" style="fill:#754C29;" width="419.104" height="84.774"/>
				<path style="fill:#8B5E3C;" d="M688.125,616.12c0,33.832,3.557,27.411-10.69,25.169
					c-11.342-1.784-258.375-24.594-329.302,13.535c-43.498,23.367-56.341,69.68-44.794,97.685
					c36.921,89.558,226.58,68.658,384.785,70.294v36.433H269.021V616.12H688.125z"/>
				<path style="fill:#8B5E3C;" d="M688.125,922.037c0,50.397,36.277,9.413-227.135,35.751
					c-195.555,19.664-180.51,120.583-154.542,148.082c33.647,35.663,168.077,37.32,263.345,38.616
					c141.095,1.9,118.332-15.825,118.332,20.657H269.021V922.037H688.125z"/>
				<path style="fill:#8B5E3C;" d="M688.125,1227.945c0,27.732,25.949,9.276-221.23,20.697
					c-52.979,2.436-122.591,9.266-152.671,53.378c-27.498,40.311-15.922,106.62,64.418,131.75
					c51.965,16.282,132.365,15.172,188.296,14.246c145.363-2.416,121.188-13.622,121.188,23.035H269.021v-243.106H688.125z"/>
				<path style="fill:#8B5E3C;" d="M513.267,1555.347c50.387-7.406,127.453-21.213,174.858-39.961v54.528H269.021
					C269.021,1500.001,259.15,1592.579,513.267,1555.347z"/>
			</g>
			<g>
				<g>
					<rect x="290.37" y="675.297" style="fill:#8DC63F;" width="48.214" height="183.94"/>
					<rect x="301.303" y="675.297" style="fill:#FFFFFF;" width="26.348" height="167.531"/>
				</g>
				<g>
					<path style="fill:#BCBEC0;" d="M324.436,675.297c0,192.758-0.643,174.118,1.491,174.118
						C325.926,656.656,326.569,675.297,324.436,675.297z"/>
				</g>
				<g>
					<path style="fill:#BCBEC0;" d="M319.203,675.297c0,192.758-0.644,174.118,1.491,174.118
						C320.694,656.656,321.337,675.297,319.203,675.297z"/>
				</g>
				<g>
					<path style="fill:#BCBEC0;" d="M313.97,675.297c0,192.758-0.643,174.118,1.491,174.118
						C315.461,656.656,316.104,675.297,313.97,675.297z"/>
				</g>
				<g>
					<path style="fill:#BCBEC0;" d="M308.728,675.297c0,192.758-0.653,174.118,1.491,174.118
						C310.219,656.656,310.872,675.297,308.728,675.297z"/>
				</g>
				<g>
					<path style="fill:#BCBEC0;" d="M303.495,675.297c0,192.758-0.643,174.118,1.491,174.118
						C304.986,656.656,305.629,675.297,303.495,675.297z"/>
				</g>
				<path style="fill:#F2676D;" d="M327.651,675.297c15.328,0,10.933-27.488,10.933,183.94H290.37v-183.94
					c15.405,0,10.933-24.467,10.933,167.531h26.348V675.297z"/>
			</g>
			<g>
				<g>
					<polygon style="fill:#8DC63F;" points="337.083,678.912 373.497,859.198 420.766,849.658 384.352,669.363 					"/>
					<polygon style="fill:#FFFFFF;" points="347.802,676.749 373.634,671.536 406.793,835.743 380.971,840.957 					"/>
				</g>
				<g>
					<path style="fill:#BCBEC0;" d="M370.486,672.169c38.148,188.939,33.822,170.785,35.917,170.367
						C368.255,653.597,372.571,671.74,370.486,672.169z"/>
				</g>
				<g>
					<path style="fill:#BCBEC0;" d="M365.351,673.202c38.148,188.948,33.831,170.795,35.926,170.376
						C363.12,654.63,367.446,672.783,365.351,673.202z"/>
				</g>
				<g>
					<path style="fill:#BCBEC0;" d="M360.216,674.235c38.158,188.948,33.831,170.805,35.926,170.376
						C358.998,660.642,362.486,673.786,360.216,674.235z"/>
				</g>
				<g>
					<path style="fill:#BCBEC0;" d="M355.09,675.278c38.148,188.939,33.832,170.795,35.917,170.366
						C352.859,656.705,357.176,674.858,355.09,675.278z"/>
				</g>
				<g>
					<path style="fill:#BCBEC0;" d="M349.955,676.31c38.148,188.948,33.832,170.795,35.927,170.376
						C347.724,657.738,352.041,675.891,349.955,676.31z"/>
				</g>
				<path style="fill:#356C99;" d="M373.634,671.536c15.025-3.04,5.281-29.116,47.133,178.122l-47.269,9.539l-36.414-180.286
					c15.133-3.06,5.905-26.007,43.888,162.045l25.822-5.214L373.634,671.536z"/>
			</g>
			<g>
				<path style="fill:#EEBC3B;" d="M605.213,950.695c47.21,0,48.467-1.14,48.467,2.748c0,224.251,1.267,211.701-2.748,211.701
					c-47.21,0-48.467,1.14-48.467-2.748C602.465,938.992,601.12,950.695,605.213,950.695z"/>
				<path style="fill:#EEBC3B;" d="M605.213,950.695c16.74,0,14.285-2.007,12.015,7.493c-23.805,99.673-0.41,178.717,20.044,206.955
					c-33.686,0-34.806,1.013-34.806-2.748C602.465,938.992,601.12,950.695,605.213,950.695z"/>
				<rect x="610.24" y="965.097" style="fill:#FFFFFF;" width="35.663" height="31.999"/>
			</g>
			<g>
				<path style="fill:#EEBC3B;" d="M549.427,950.695c47.21,0,48.468-1.14,48.468,2.748c0,224.251,1.267,211.701-2.748,211.701
					c-47.21,0-48.458,1.14-48.458-2.748C546.689,939.041,545.345,950.695,549.427,950.695z"/>
				<path style="fill:#EEBC3B;" d="M549.427,950.695c16.721,0,14.304-2.007,12.015,7.493
					c-25.052,104.895,2.689,183.024,20.044,206.955c-33.676,0-34.796,1.013-34.796-2.748
					C546.689,939.041,545.345,950.695,549.427,950.695z"/>
				<rect x="554.455" y="965.097" style="fill:#FFFFFF;" width="35.664" height="31.999"/>
			</g>
			<g>
				<path style="fill:#FFFFFF;" d="M420.532,986.865c53.018,176.525,50.689,164.842,47.191,165.904
					c-44.219,13.271-44.531,14.45-45.554,11.03l-48.886-162.736L420.532,986.865z"/>
				<path style="fill:#BCBEC0;" d="M401.892,992.468c8.185,188.149,97.578,150.761,23.425,173.026
					c-3.527,1.072,0.4,10.115-52.034-164.432L401.892,992.468z"/>
				<path style="fill:#71566F;" d="M374.248,995.489c9.364-2.816,1.062-19.908,54.626,158.371l29.066-8.731l-48.155-160.32
					c6.129-1.841,9.091-3.449,10.017-0.36c53.232,177.206,51.449,167.248,47.922,168.32c-44.219,13.271-44.531,14.45-45.554,11.03
					C368.937,986.593,370.72,996.551,374.248,995.489z"/>
				<path style="fill:#71566F;" d="M374.248,995.489c5.233-1.578-1.861-19.381,53.738,165.679l35.128-10.543l-50.095-166.781
					c1.969-0.595,5.837-2.572,6.782,0.604c53.232,177.206,51.449,167.248,47.922,168.32c-44.219,13.271-44.531,14.45-45.554,11.03
					C368.937,986.593,370.72,996.551,374.248,995.489z"/>
			</g>
			<g>
				<path style="fill:#FFFFFF;" d="M368.801,986.865c53.027,176.535,50.689,164.832,47.19,165.904
					c-44.218,13.271-44.54,14.45-45.553,11.03l-48.886-162.736L368.801,986.865z"/>
				<path style="fill:#BCBEC0;" d="M350.15,992.468c8.263,188.627,97.675,150.732,23.434,173.026
					c-3.527,1.082,0.4,10.115-52.033-164.432L350.15,992.468z"/>
				<path style="fill:#526D75;" d="M322.516,995.489c9.296-2.797,1.12-19.723,54.616,158.371l29.086-8.731l-48.165-160.32
					c6.138-1.841,9.091-3.439,10.017-0.36c53.232,177.216,51.449,167.239,47.921,168.32c-44.218,13.271-44.54,14.45-45.553,11.03
					C317.303,986.943,318.969,996.531,322.516,995.489z"/>
				<path style="fill:#526D75;" d="M322.516,995.489c5.242-1.569-1.861-19.381,53.729,165.679l35.138-10.543l-50.104-166.781
					c1.988-0.604,5.837-2.572,6.792,0.604c53.232,177.216,51.449,167.239,47.921,168.32c-44.218,13.271-44.54,14.45-45.553,11.03
					C317.303,986.943,318.969,996.531,322.516,995.489z"/>
			</g>
			<g>
				<path style="fill:#FFFFFF;" d="M317.108,987.06c52.989,176.408,50.689,164.841,47.191,165.894
					c-44.219,13.281-44.531,14.46-45.554,11.04l-48.887-162.737L317.108,987.06z"/>
				<path style="fill:#BCBEC0;" d="M298.457,992.663c8.039,183.511,94.908,151.56,23.445,173.026
					c-3.537,1.072,0.39,10.114-52.044-164.432L298.457,992.663z"/>
				<path style="fill:#A08BC1;" d="M270.823,995.683c9.364-2.826,1.062-19.907,54.625,158.372l29.067-8.731l-48.156-160.32
					c6.129-1.841,9.091-3.449,10.017-0.361c53.233,177.207,51.449,167.249,47.922,168.311c-44.219,13.281-44.531,14.46-45.554,11.04
					C265.561,986.972,267.286,996.746,270.823,995.683z"/>
				<path style="fill:#A08BC1;" d="M270.823,995.683c5.242-1.578-1.89-19.507,53.739,165.68l35.128-10.553l-50.104-166.771
					c1.968-0.594,5.847-2.572,6.792,0.604c53.233,177.207,51.449,167.249,47.922,168.311c-44.219,13.281-44.531,14.46-45.554,11.04
					C265.561,986.972,267.286,996.746,270.823,995.683z"/>
			</g>
		</g>
		<g>
			<g>
				<polygon style="fill:#00002A;" points="1057.564,1403.261 967.684,1688.364 1022.544,1394.506 				"/>
				<polygon style="fill:#00002A;" points="1176.881,1354.034 1087.016,1639.127 1141.855,1345.283 				"/>
				<polygon style="fill:#00002A;" points="1279.082,1394.506 1333.932,1688.364 1244.077,1403.261 				"/>
				<polygon style="fill:#00002A;" points="1315.793,1305.293 1370.628,1599.157 1280.768,1314.054 				"/>
				<polygon style="fill:#0078A2;" points="916.206,886.764 980.322,886.764 1188.525,855.144 1094.601,859.568 				"/>
				<polygon style="fill:#00B2F0;" points="980.322,886.764 916.206,886.764 967.684,1365.249 1031.82,1365.249 				"/>
				<polygon style="fill:#008DBE;" points="980.322,886.764 1178.937,855.144 1183.341,1365.249 1031.82,1365.249 				"/>
				<path style="fill:#00B2F0;" d="M1280.651,1409.897h-268.304c-24.545,0-44.662-20.088-44.662-44.647l0,0
					c0-24.555,20.117-44.648,44.662-44.648h268.304c24.545,0,44.653,20.092,44.653,44.648l0,0
					C1325.303,1389.809,1305.196,1409.897,1280.651,1409.897z"/>
				<g>
					<path style="fill:#C7EAFB;" d="M1200.194,838.482c16.984,26.552,24.258,55.259,24.385,86.996
						c0.195,40.677,35.653,10.455,30.572,90.718c-3.376,53.388,25.856,204.008,18.665,257.04l-224.446-8.389
						c5.554-30.977,36.082-323.398,37.914-337.824c5.077-39.916,23.211-84.896,54.918-116.023
						c0.604-0.595,20.229,14.333,22.694,15.717c9.057,5.033,18.67,8.75,28.969,10.84
						C1195.453,837.868,1197.738,838.185,1200.194,838.482z"/>
					<g>
						<g>
							<g>
								<g>
									<path style="fill:#EAB1B8;" d="M1300.061,1109.475c-2.884-7.406-43.941-35.459-35.176-45.407
										c7.357-8.332,27.805-9.608,27.795-9.593c51.858-1.038,149.723,7.001,186.736,13.403c36.404,6.28,2.339,28.317,2.339,28.317
										C1438.886,1103.483,1366.959,1115.897,1300.061,1109.475z"/>
								</g>
							</g>
						</g>
						<g>
							<g>
								<path style="fill:#B5D5E5;" d="M1331.423,1053.174c-15.196-26.757-39.62-58.533-44.609-69.486
									c-29.12-63.79-59.41-123.073-91.103-111.21c-35.873,13.437-15.225,87.176,12.487,140.978
									c24.102,46.782,50.738,73.388,85.68,117.037C1311.535,1116.004,1330.984,1078.241,1331.423,1053.174z"/>
							</g>
						</g>
						<path style="fill:#EAB1B8;" d="M1563.538,1070.002c-2.923-2.914-6.558-5.944-8.083-6.265
							c-17.339-3.839-30.854-5.749-48.579-2.534c-5.544,1.009-77.802,12.677-78.333,11.371l17.461,23.966
							c32.413,1.788,64.905,8.064,96.974,1.828C1555.348,1095.96,1575.834,1082.246,1563.538,1070.002z"/>
					</g>
					<path style="fill:#31456D;" d="M1145.695,1155.4c140.116,55.323,290.823,120.72,320.129,147.307
						c26.894,24.404-30.509,65.899-30.509,65.899s-280.402-62.289-327.31-71.122
						C1081.91,1292.573,1118.864,1144.808,1145.695,1155.4z"/>
					<path style="fill:#EAB1B8;" d="M1385.312,1614.221c-0.273-65.072,17.374-329.04,17.374-329.04s65.821-7.766,74.046,37.437
						c4.307,23.61-36.506,226.161-52.789,293.732L1385.312,1614.221z"/>
					<path style="fill:#31456D;" d="M1364.436,1577.924c-0.273-65.052,22.402-301.678,22.402-301.678s82.908-1.476,91.127,43.721
						c4.317,23.61-9.481,171.813-25.773,239.394L1364.436,1577.924z"/>
					<path style="fill:#3A507B;" d="M1080.697,1216.339c142.635,48.399,281.703,116.286,312.275,141.426
						c28.053,23.064-27.244,67.302-27.244,67.302s-245.776-51.453-289.474-70.616
						C997.852,1320.066,1053.369,1207.073,1080.697,1216.339z"/>
					<path style="fill:#EAB1B8;" d="M1304.743,1665.368c1.71-64.671,27.498-325.356,27.498-325.356s66.202-1.598,73.086,44.082
						c3.586,23.863-43.551,221.348-61.939,286.994L1304.743,1665.368z"/>
					<path style="fill:#3A507B;" d="M1271.603,1606.221c18.641-173.592,54.09-270.965,54.09-270.965s74.002,3.157,80.877,48.837
						c3.576,23.863-17.803,144.7-36.185,210.337L1271.603,1606.221z"/>
					<path style="fill:#8B0417;" d="M1082.918,1181.104"/>
					<path style="fill:#374D7E;" d="M1423.953,1690.766c-9.554-1.384-12.536-0.073-22.1-1.632
						c-9.433-1.549-18.724-4.852-27.293-9.101c-8.463-4.205-20.775-12.794-28.029-18.601c-0.94-0.736-1.876-1.335-2.806-1.905
						c-12.926,5.988-20.326,5.589-34.178-0.287c-1.32-0.545-2.173-1.354-2.65-2.285c-0.41,0.307-0.75,0.692-1.092,1.097
						c-2.217,2.845-2.607,6.762-3.128,10.192c-0.97,6.417-3.976,33.043-2.665,39.357c1.851,8.901,50.392,19.537,66.343,20.536
						c21.437,1.325,37.817,2.236,58.981-1.203C1445.994,1723.589,1440.133,1693.139,1423.953,1690.766z"/>
					<path style="fill:#374D7E;" d="M1505.784,1635.239c-9.578-1.384-12.541-0.078-22.105-1.637
						c-9.447-1.55-18.728-4.853-27.308-9.101c-8.458-4.204-20.77-12.789-28.034-18.596c-0.921-0.74-1.861-1.34-2.787-1.905
						c-12.931,5.983-20.331,5.574-34.183-0.283c-1.311-0.555-2.183-1.374-2.655-2.294c-0.414,0.316-0.745,0.687-1.077,1.096
						c-2.227,2.85-2.621,6.763-3.138,10.197c-0.964,6.412-3.98,33.038-2.675,39.347c1.856,8.911,50.411,19.541,66.343,20.536
						c21.447,1.334,37.826,2.241,58.991-1.189C1527.806,1668.057,1521.954,1637.612,1505.784,1635.239z"/>
					<path style="fill:#4865A2;" d="M1065.549,694.561c-1.15,6.948-3.318,13.651-7.834,19.878
						c-5.355,7.381-12.536,12.94-18.187,20.092c-8.365,10.563-11.454,24.477-15.63,36.93c-6.743,20.161-4.765,41.753-9.51,62.635
						c-2.782,12.209-6.1,26.455-11.708,37.778c-4.775,9.666-13.569,18.12-17.734,27.864c-11.576,26.986,7.922,63.698,33.281,78.221
						c27.425,15.727,69.028,11.43,96.979-0.887c23.537-10.373,24.901-33.676,27.6-55.883c3.201-26.329,7.552-57.495,22.646-80.486
						c20.521-31.255,54.889-55.756,68.565-90.703c7.634-19.503,15.571-39.663,20.112-60.029c4.224-18.943,4.083-37.973,0.102-56.925
						c-1.749-8.312-3.152-21.427-8.029-28.628c-4.989-7.357-12.779-9.013-21.953-12.2c-12.054-4.219-23.635-11.683-36.058-14.675
						c-30.65-7.405-70.192,14.738-87.449,37.335c-9.969,13.091-27.43,27.474-31.259,43.201
						C1066.582,669.967,1067.547,682.595,1065.549,694.561z"/>
					<g>
						<g>
							<path style="fill:#EAB1B8;" d="M1126.348,701.031c2.368,11.127,19.625,25.988,23.985,16.477
								c2.67-5.822,5.014-18.64,2.626-29.768c-2.387-11.132-0.39-12.56-11.259-10.524
								C1130.835,679.233,1123.955,689.903,1126.348,701.031z"/>
						</g>
					</g>
					<path style="fill:#EAB1B8;" d="M1148.569,738.122c1.827-22.445,72.287,19.269,72.287,19.269l-7.542,85.602
						c0,0-0.74-3.435-35.391-2.67c-21.115,0.458-39.03-0.477-37.978-18.894C1140.594,810.039,1147.931,745.874,1148.569,738.122z"/>
					<path style="fill:#E5958A;" d="M1147.483,759.764c9.988,30.061,38.606,51.737,68.579,49.525l4.794-51.897
						c0,0-70.46-41.715-72.287-19.269c-0.19,2.373-1.013,10.041-2.1,19.864C1146.898,758.463,1147.264,759.048,1147.483,759.764z"/>
					<path style="fill:#EAB1B8;" d="M1225.67,775.778c-23.259,10.3-60.706-2.299-73.514-22.236
						c-7.742-12.058-10.724-24.263-9.72-37.768c1.116-15.211,5.891-28.765,7.133-44.044c0.541-6.596,1.257-13.223,3.269-19.576
						c3.201-10.177,9.773-19.478,18.645-26.402c8.706-6.816,20.17-8.716,30.811-11.99c8.974-2.762,19.176-6.382,28.823-5.837
						c6.641,0.39,10.027,4.901,14.538,9.13c24.409,23.001,29.174,64.068,22.236,94.606
						C1262.736,734.4,1249.621,765.157,1225.67,775.778z"/>
					<path style="fill:#EAB1B8;" d="M1237.275,1195.584c5.442-101.31,26.538-250.307,12.862-264.738
						c-24.078-25.364-25.213-80.784-42.63-101.114c-26.046-30.392-48.55-44.667-81.115-0.692
						c-11.026,14.928-24.672,104.35-27.279,115.536c-5.788,24.75-7.956,148.091-14.499,247.442L1237.275,1195.584z"/>
					<path style="fill:#6FC3EE;" d="M1237.275,1195.584c5.622-74.192,10.982-135.56,17.875-179.389
						c2.09-13.301,6.421-26.158,8.78-39.24c2.207-12.112-3.951-28.774-9.169-39.702c-5.325-11.142-10.913-22.29-15.99-33.563
						c-4.97-11.084-8.853-22.548-12.735-33.997c-1.218-3.566-7.654-29.495-11.503-29.797c-0.419-0.029-14.938-1.179-20.667-2.339
						c-10.299-2.09-19.912-5.807-28.969-10.84c-2.466-1.384-22.09-16.312-22.694-15.717
						c-31.707,31.127-49.841,76.107-54.918,116.023c-1.832,14.426,0.935,234.79-4.633,265.781L1237.275,1195.584z"/>
					<path style="fill:#FFFFFF;" d="M1200.194,838.482c16.984,26.552,24.258,55.259,24.385,86.996
						c0.161,36.565-1.37,73.47-3.678,109.967c-3.387,53.383-12.458,178.561-19.644,231.583l-151.887-2.183
						c5.554-30.977,36.082-323.398,37.914-337.824c5.077-39.916,23.211-84.896,54.918-116.023
						c0.604-0.595,20.229,14.333,22.694,15.717c9.057,5.033,18.67,8.75,28.969,10.84
						C1195.453,837.868,1197.738,838.185,1200.194,838.482z"/>
					<path style="fill:#C7EAFB;" d="M1200.194,838.482c16.984,26.552,24.258,55.259,24.385,86.996
						c0.161,36.565-1.37,73.47-3.678,109.967c-3.387,53.383-12.458,178.561-19.644,231.583l-169.436-4.521
						c5.569-31.001,53.632-321.059,55.464-335.485c5.077-39.916,23.211-84.896,54.918-116.023
						c0.604-0.595,20.229,14.333,22.694,15.717c9.057,5.033,18.67,8.75,28.969,10.84
						C1195.453,837.868,1197.738,838.185,1200.194,838.482z"/>
					<path style="fill:#4865A2;" d="M1199.117,568.35c10.933,2.256,21.91,6.855,32.634,9.066
						c16.389,4.575,41.398,19.07,50.138,33.082c32.735,52.477-71.089,52.307-93.656,68.243
						c-7.079,4.984-10.962,11.795-17.062,16.667c-14.149,11.304-18.738-0.692-20.955-12.151c0.546,2.84-0.107,0.706-1.973-6.402
						c-4.029-15.596-3.922-28.317-13.627-41.876c-8.521-11.912-11.873-33.583-2.943-46.133
						c10.465-14.704,36.126-21.018,53.895-21.788C1190.074,566.854,1194.591,567.4,1199.117,568.35z"/>
					<g>
						<g>
							<g>
								<path style="fill:#EAB1B8;" d="M1113.344,1117.251c7.401-3.8,30.757-46.012,42.63-39.444
									c9.953,5.486,14.455,24.16,14.446,24.146c9.081,47.688,15.668,139.185,14.611,174.327
									c-1.023,34.543-29.612,6.524-29.612,6.524C1141.1,1244.383,1116.862,1179.945,1113.344,1117.251z"/>
							</g>
						</g>
					</g>
					<g>
						<g>
							<path style="fill:#B5D5E5;" d="M1181.042,1120.126c2.904-30.158-5.515-112.613-3.294-124.34
								c12.853-68.291,22.1-133.412-11.391-139.599c-37.934-6.997-63.697,65.305-71.897,124.53
								c-7.113,51.478,6.192,101.797,9.978,156.174C1127.702,1133.743,1166.045,1140.92,1181.042,1120.126z"/>
						</g>
					</g>
					<path style="fill:#EAB1B8;" d="M1195.76,1354.209c2.636-3.157,5.276-6.977,5.393-8.433c1.384-16.58,1.311-29.345-4.823-45.203
						c-1.92-4.954-25.408-69.802-24.122-70.494l-22.665,19.8c3.104,30.168,1.476,61.115,13.023,89.729
						C1167.02,1350.643,1184.696,1367.427,1195.76,1354.209z"/>
				</g>
			</g>
			<g>
				<g>
					<rect x="856.319" y="1177.626" style="fill:#ADAFB2;" width="26.075" height="564.565"/>
					<polygon style="fill:#888A8C;" points="882.394,1742.191 894.749,1718.396 894.749,1177.626 882.394,1177.626 					"/>
				</g>
				<g>
					<rect x="1630.27" y="1177.626" style="fill:#ADAFB2;" width="26.07" height="564.565"/>
					<polygon style="fill:#888A8C;" points="1656.34,1742.191 1668.696,1718.396 1668.696,1177.626 1656.34,1177.626 					"/>
				</g>
				<rect x="696.817" y="1145.563" style="fill:#ADAFB2;" width="1129.48" height="42.855"/>
				<polygon style="fill:#7D7E81;" points="1881.78,1120.876 755.959,1121.373 696.817,1145.563 1826.297,1145.563 				"/>
				<polygon style="fill:#4A4B4C;" points="1826.297,1145.563 1826.297,1188.418 1881.78,1156.267 1881.78,1120.876 				"/>
			</g>
			<g>
				<polygon style="fill:#4A4B4C;" points="1487.465,1131.741 1437.059,1149.125 1262.907,1149.125 1262.907,1123.77 
					1481.974,1123.77 				"/>
				<polygon style="fill:#BCBEC0;" points="1524.902,969.672 1437.059,1149.125 1437.103,1149.125 1574.363,1133.602 
					1667.921,941.925 				"/>
				<polygon style="fill:#A5A7AA;" points="1509.789,969.672 1650.177,938.807 1667.921,941.925 1524.483,972.951 				"/>
				<polygon style="fill:#4A4B4C;" points="1437.059,1149.125 1524.483,972.951 1509.789,969.672 1421.517,1149.125 				"/>
			</g>
		</g>
	</g>
</g>
</svg>
