<?xml version="1.0" encoding="UTF-8" standalone="no"?>
<!-- Created with Inkscape (http://www.inkscape.org/) -->

<svg
   version="1.1"
   id="svg2"
   xml:space="preserve"
   width="1260.4386"
   height="858.66663"
   viewBox="0 0 1260.4386 858.66663"
   sodipodi:docname="ac043e695bfb18d2ac82db8b85774414.ai"
   xmlns:inkscape="http://www.inkscape.org/namespaces/inkscape"
   xmlns:sodipodi="http://sodipodi.sourceforge.net/DTD/sodipodi-0.dtd"
   xmlns="http://www.w3.org/2000/svg"
   xmlns:svg="http://www.w3.org/2000/svg"><defs
     id="defs6"><clipPath
       clipPathUnits="userSpaceOnUse"
       id="clipPath18"><path
         d="M 0,644 H 945.329 V 0 H 0 Z"
         id="path16" /></clipPath><clipPath
       clipPathUnits="userSpaceOnUse"
       id="clipPath316"><path
         d="m 824.219,355.974 c -8.656,-4.541 -67.023,-40.265 -66.946,-41.602 v 0 c 0.073,-1.338 -18.713,-35.177 -18.404,-41.997 v 0 c 0.312,-6.822 -4.755,-63.8 -5.32,-65.039 v 0 c -0.563,-1.238 -12.862,-51.632 -12.862,-51.632 v 0 l 203.464,-0.805 c 0,0 11.148,119.325 10.322,125.932 v 0 c -0.825,6.605 -28.902,58.628 -35.921,63.17 v 0 c -5.931,3.838 -48.74,12.983 -67.088,12.984 v 0 c -3.365,0 -5.903,-0.307 -7.245,-1.011"
         id="path314" /></clipPath><clipPath
       clipPathUnits="userSpaceOnUse"
       id="clipPath372"><path
         d="m 145.127,355.974 c -8.656,-4.541 -67.021,-40.265 -66.948,-41.602 v 0 c 0.075,-1.338 -18.712,-35.177 -18.402,-41.997 v 0 c 0.31,-6.822 -4.755,-63.8 -5.319,-65.039 v 0 C 53.894,206.098 41.594,155.704 41.594,155.704 v 0 l 203.465,-0.805 c 0,0 11.148,119.325 10.321,125.932 v 0 c -0.824,6.605 -28.9,58.628 -35.92,63.17 v 0 c -5.932,3.838 -48.741,12.983 -67.089,12.984 v 0 c -3.364,0 -5.903,-0.307 -7.244,-1.011"
         id="path370" /></clipPath><clipPath
       clipPathUnits="userSpaceOnUse"
       id="clipPath428"><path
         d="M 0,644 H 945.329 V 0 H 0 Z"
         id="path426" /></clipPath><clipPath
       clipPathUnits="userSpaceOnUse"
       id="clipPath552"><path
         d="m 336.186,418.096 h 5.752 v -16.427 h -5.752 z"
         id="path550" /></clipPath><clipPath
       clipPathUnits="userSpaceOnUse"
       id="clipPath576"><path
         d="m 326.988,427.674 h 7.039 v -13.396 h -7.039 z"
         id="path574" /></clipPath><clipPath
       clipPathUnits="userSpaceOnUse"
       id="clipPath600"><path
         d="m 299.335,426.738 h 19.577 v -19.249 h -19.577 z"
         id="path598" /></clipPath></defs><sodipodi:namedview
     id="namedview4"
     pagecolor="#ffffff"
     bordercolor="#666666"
     borderopacity="1.0"
     inkscape:pageshadow="2"
     inkscape:pageopacity="0.0"
     inkscape:pagecheckerboard="0" /><g
     id="g8"
     inkscape:groupmode="layer"
     inkscape:label="ac043e695bfb18d2ac82db8b85774414"
     transform="matrix(1.3333333,0,0,-1.3333333,0,858.66665)"><path
       d="M 0,0 H 945.329 V 644 H 0 Z"
       style="fill:#ffffff;fill-opacity:1;fill-rule:nonzero;stroke:none"
       id="path10" /><g
       id="g12"><g
         id="g14"
         clip-path="url(#clipPath18)"><g
           id="g20"
           transform="translate(360.4839,19.9121)"><path
             d="M 0,0 H 0.535 C 1.327,0 2.069,0.079 2.773,0.236 3.477,0.392 4.089,0.656 4.615,1.032 5.138,1.401 5.559,1.888 5.87,2.488 6.185,3.089 6.34,3.831 6.34,4.717 6.34,5.595 6.186,6.344 5.878,6.964 5.572,7.585 5.142,8.068 4.59,8.416 4.039,8.772 3.43,9.032 2.766,9.194 2.103,9.356 1.358,9.437 0.535,9.437 H 0 Z m -1.521,10.831 h 2.528 c 1.987,0 3.629,-0.525 4.913,-1.574 C 7.215,8.222 7.865,6.729 7.865,4.781 7.865,2.784 7.222,1.258 5.936,0.195 4.651,-0.864 2.991,-1.394 0.959,-1.394 h -2.48 z"
             style="fill:#262262;fill-opacity:1;fill-rule:nonzero;stroke:none"
             id="path22" /></g><g
           id="g24"
           transform="translate(374.9165,23.1709)"><path
             d="M 0,0 C -0.088,0.584 -0.312,1.048 -0.675,1.388 -1.037,1.729 -1.507,1.897 -2.093,1.897 -2.373,1.897 -2.637,1.851 -2.879,1.76 -3.122,1.669 -3.338,1.538 -3.526,1.365 -3.718,1.19 -3.873,0.985 -3.998,0.755 -4.121,0.522 -4.205,0.271 -4.248,0 Z m -4.331,-1.104 c 0.02,-0.677 0.238,-1.266 0.648,-1.763 0.419,-0.498 0.969,-0.746 1.638,-0.746 0.529,0 0.965,0.12 1.305,0.364 0.341,0.242 0.665,0.61 0.964,1.111 L 1.457,-2.836 C 1.102,-3.485 0.612,-3.991 -0.01,-4.361 c -0.621,-0.364 -1.303,-0.552 -2.05,-0.552 -1.134,0 -2.043,0.38 -2.724,1.136 -0.673,0.767 -1.005,1.72 -1.005,2.856 0,1.197 0.317,2.179 0.957,2.948 0.627,0.756 1.541,1.138 2.739,1.138 1.167,0 2.048,-0.382 2.642,-1.138 0.607,-0.754 0.908,-1.726 0.908,-2.9 v -0.231 z"
             style="fill:#262262;fill-opacity:1;fill-rule:nonzero;stroke:none"
             id="path26" /></g><g
           id="g28"
           transform="translate(380.6704,24.3721)"><path
             d="m 0,0 c -0.216,0.442 -0.54,0.665 -0.973,0.665 -0.206,0 -0.387,-0.073 -0.549,-0.218 -0.164,-0.15 -0.245,-0.322 -0.245,-0.53 0,-0.195 0.063,-0.357 0.187,-0.495 0.125,-0.134 0.294,-0.262 0.51,-0.38 0.143,-0.063 0.248,-0.115 0.324,-0.153 0.074,-0.038 0.199,-0.092 0.376,-0.168 0.087,-0.045 0.161,-0.077 0.224,-0.102 C -0.08,-1.4 -0.031,-1.423 0,-1.444 0.541,-1.692 0.967,-1.979 1.279,-2.305 1.594,-2.628 1.752,-3.06 1.752,-3.602 c 0,-0.71 -0.262,-1.312 -0.777,-1.795 -0.508,-0.48 -1.121,-0.717 -1.832,-0.717 -0.294,0 -0.576,0.04 -0.846,0.121 -0.271,0.081 -0.522,0.195 -0.754,0.339 -0.232,0.149 -0.436,0.326 -0.616,0.539 -0.178,0.211 -0.315,0.446 -0.412,0.703 l 1.246,0.566 c 0.359,-0.643 0.817,-0.968 1.382,-0.968 0.225,0 0.435,0.061 0.629,0.185 0.197,0.125 0.336,0.281 0.429,0.473 0.092,0.184 0.113,0.39 0.059,0.614 -0.054,0.222 -0.223,0.433 -0.503,0.622 l -1.429,0.763 c -0.246,0.131 -0.461,0.259 -0.645,0.39 -0.186,0.128 -0.334,0.268 -0.455,0.412 -0.119,0.147 -0.208,0.308 -0.268,0.488 -0.061,0.18 -0.091,0.387 -0.091,0.626 0,0.612 0.218,1.131 0.652,1.555 0.429,0.433 0.961,0.65 1.587,0.65 0.951,0 1.643,-0.446 2.076,-1.332 z"
             style="fill:#262262;fill-opacity:1;fill-rule:nonzero;stroke:none"
             id="path30" /></g><path
           d="m 385.633,18.519 h -1.462 v 7.589 h 1.462 z m 0.274,11.054 c 0,-0.268 -0.097,-0.499 -0.292,-0.695 -0.194,-0.193 -0.432,-0.29 -0.713,-0.29 -0.282,0 -0.517,0.097 -0.713,0.29 -0.194,0.196 -0.295,0.427 -0.295,0.695 0,0.286 0.101,0.523 0.295,0.723 0.196,0.204 0.431,0.301 0.713,0.301 0.281,0 0.519,-0.097 0.713,-0.301 0.195,-0.2 0.292,-0.437 0.292,-0.723"
           style="fill:#262262;fill-opacity:1;fill-rule:nonzero;stroke:none"
           id="path32" /><g
           id="g34"
           transform="translate(391.2271,19.5576)"><path
             d="m 0,0 c 0.766,0 1.366,0.265 1.799,0.795 0.443,0.538 0.662,1.193 0.662,1.96 0,0.753 -0.219,1.399 -0.662,1.93 C 1.366,5.216 0.766,5.479 0,5.479 -0.725,5.479 -1.309,5.21 -1.752,4.668 -2.185,4.14 -2.401,3.5 -2.401,2.755 -2.401,1.988 -2.185,1.339 -1.752,0.811 -1.309,0.27 -0.725,0 0,0 m 3.84,-0.896 c 0,-1.421 -0.269,-2.53 -0.807,-3.322 -0.543,-0.775 -1.506,-1.167 -2.889,-1.167 -1.072,0 -1.946,0.309 -2.628,0.923 -0.669,0.62 -1.016,1.453 -1.036,2.514 h 1.461 c 0,-0.68 0.207,-1.207 0.622,-1.576 0.414,-0.378 0.965,-0.563 1.648,-0.563 0.832,0 1.402,0.245 1.709,0.73 0.309,0.488 0.459,1.169 0.459,2.057 V 0.146 H 2.351 C 2.043,-0.312 1.671,-0.661 1.223,-0.918 0.774,-1.17 0.289,-1.3 -0.229,-1.3 c -1.124,0 -2.009,0.398 -2.659,1.182 -0.648,0.794 -0.971,1.766 -0.971,2.923 0,1.093 0.33,2.021 0.987,2.788 0.66,0.786 1.519,1.185 2.577,1.185 1.116,0 1.994,-0.511 2.646,-1.526 H 2.379 V 6.55 H 3.84 Z"
             style="fill:#262262;fill-opacity:1;fill-rule:nonzero;stroke:none"
             id="path36" /></g><g
           id="g38"
           transform="translate(398.4263,25.084)"><path
             d="m 0,0 h 0.029 c 0.216,0.398 0.53,0.713 0.942,0.926 0.41,0.217 0.863,0.326 1.343,0.326 0.5,0 0.919,-0.078 1.265,-0.229 C 3.928,0.87 4.206,0.658 4.418,0.372 4.628,0.092 4.777,-0.251 4.868,-0.656 4.962,-1.062 5.007,-1.522 5.007,-2.04 V -6.565 H 3.55 v 4.345 c 0,0.744 -0.112,1.292 -0.323,1.637 C 3.006,-0.225 2.561,-0.047 1.88,-0.047 1.631,-0.047 1.418,-0.072 1.245,-0.12 1.075,-0.168 0.923,-0.238 0.793,-0.328 0.661,-0.422 0.554,-0.53 0.467,-0.648 0.382,-0.765 0.299,-0.895 0.226,-1.036 0.193,-1.112 0.163,-1.209 0.134,-1.329 0.106,-1.446 0.085,-1.567 0.062,-1.693 0.041,-1.819 0.025,-1.942 0.014,-2.067 0.002,-2.191 0,-2.289 0,-2.369 V -3.08 -6.565 H -1.463 V 1.023 H 0 Z"
             style="fill:#262262;fill-opacity:1;fill-rule:nonzero;stroke:none"
             id="path40" /></g><g
           id="g42"
           transform="translate(413.7925,19.5576)"><path
             d="m 0,0 c 0.768,0 1.368,0.265 1.802,0.795 0.444,0.538 0.666,1.193 0.666,1.96 0,0.753 -0.222,1.399 -0.666,1.93 C 1.368,5.216 0.768,5.479 0,5.479 -0.723,5.479 -1.306,5.21 -1.75,4.668 -2.184,4.14 -2.398,3.5 -2.398,2.755 -2.398,1.988 -2.184,1.339 -1.75,0.811 -1.306,0.27 -0.723,0 0,0 m -3.776,13.035 h 1.46 V 5.288 h 0.031 c 0.671,0.99 1.552,1.49 2.645,1.49 1.059,0 1.918,-0.399 2.578,-1.185 C 3.596,4.826 3.927,3.898 3.927,2.805 3.927,1.648 3.603,0.676 2.952,-0.118 2.303,-0.902 1.419,-1.3 0.294,-1.3 c -0.52,0 -1.003,0.13 -1.453,0.382 -0.446,0.257 -0.824,0.606 -1.126,1.064 h -0.031 v -1.185 h -1.46 z"
             style="fill:#262262;fill-opacity:1;fill-rule:nonzero;stroke:none"
             id="path44" /></g><g
           id="g46"
           transform="translate(417.9292,26.1074)"><path
             d="M 0,0 H 1.701 L 4.266,-4.816 6.646,0 H 8.283 L 2.139,-11.935 H 0.487 l 2.981,5.644 z"
             style="fill:#262262;fill-opacity:1;fill-rule:nonzero;stroke:none"
             id="path48" /></g><g
           id="g50"
           transform="translate(436.3794,27.9209)"><path
             d="M 0,0 -2.175,-4.945 H 2.169 Z M -2.804,-6.336 -4.2,-9.402 H -5.838 L 0,3.343 5.839,-9.402 h -1.64 l -1.395,3.066 z"
             style="fill:#262262;fill-opacity:1;fill-rule:nonzero;stroke:none"
             id="path52" /></g><path
           d="m 444.598,18.519 h -1.457 v 14.074 h 1.457 z"
           style="fill:#262262;fill-opacity:1;fill-rule:nonzero;stroke:none"
           id="path54" /><path
           d="m 448.2,18.519 h -1.461 v 14.074 h 1.461 z"
           style="fill:#262262;fill-opacity:1;fill-rule:nonzero;stroke:none"
           id="path56" /><path
           d="m 453.744,23.107 h -3.55 v 1.216 h 3.55 z"
           style="fill:#262262;fill-opacity:1;fill-rule:nonzero;stroke:none"
           id="path58" /><g
           id="g60"
           transform="translate(459.4165,31.1182)"><path
             d="m 0,0 c -0.454,0.199 -0.775,0.307 -0.972,0.307 -0.314,0 -0.542,-0.099 -0.677,-0.299 -0.146,-0.203 -0.24,-0.445 -0.297,-0.739 -0.031,-0.214 -0.048,-0.385 -0.055,-0.512 -0.007,-0.123 -0.008,-0.297 -0.008,-0.51 V -5.011 H 0 V -6.375 H -2.009 V -12.6 H -3.47 v 6.225 h -0.663 v 1.364 h 0.663 v 3.694 c 0,1.991 0.818,2.984 2.45,2.984 0.355,0 0.698,-0.066 1.02,-0.192 z"
             style="fill:#262262;fill-opacity:1;fill-rule:nonzero;stroke:none"
             id="path62" /></g><g
           id="g64"
           transform="translate(461.6724,24.873)"><path
             d="m 0,0 h 0.048 c 0.183,0.455 0.455,0.813 0.808,1.071 0.358,0.259 0.78,0.392 1.267,0.392 0.4,0 0.801,-0.126 1.201,-0.375 L 2.659,-0.244 C 2.422,-0.038 2.123,0.062 1.764,0.062 1.021,0.062 0.523,-0.234 0.276,-0.844 0.165,-1.124 0.092,-1.401 0.057,-1.673 0.019,-1.952 0,-2.268 0,-2.623 V -6.354 H -1.461 V 1.234 H 0 Z"
             style="fill:#262262;fill-opacity:1;fill-rule:nonzero;stroke:none"
             id="path66" /></g><g
           id="g68"
           transform="translate(471.0103,23.1709)"><path
             d="M 0,0 C -0.087,0.584 -0.31,1.048 -0.674,1.388 -1.036,1.729 -1.507,1.897 -2.092,1.897 -2.372,1.897 -2.637,1.851 -2.878,1.76 -3.121,1.669 -3.338,1.538 -3.524,1.365 -3.717,1.19 -3.871,0.985 -3.996,0.755 -4.121,0.522 -4.204,0.271 -4.246,0 Z m -4.326,-1.104 c 0.021,-0.677 0.233,-1.266 0.645,-1.763 0.422,-0.498 0.967,-0.746 1.64,-0.746 0.527,0 0.961,0.12 1.301,0.364 0.343,0.242 0.665,0.61 0.969,1.111 L 1.46,-2.836 c -0.357,-0.649 -0.849,-1.155 -1.471,-1.525 -0.617,-0.364 -1.305,-0.552 -2.047,-0.552 -1.136,0 -2.045,0.38 -2.727,1.136 -0.669,0.767 -1.004,1.72 -1.004,2.856 0,1.197 0.318,2.179 0.955,2.948 0.63,0.756 1.543,1.138 2.742,1.138 1.167,0 2.05,-0.382 2.644,-1.138 0.604,-0.754 0.908,-1.726 0.908,-2.9 v -0.231 z"
             style="fill:#262262;fill-opacity:1;fill-rule:nonzero;stroke:none"
             id="path70" /></g><g
           id="g72"
           transform="translate(478.9219,23.1709)"><path
             d="M 0,0 C -0.088,0.584 -0.311,1.048 -0.672,1.388 -1.035,1.729 -1.508,1.897 -2.092,1.897 -2.374,1.897 -2.636,1.851 -2.878,1.76 -3.122,1.669 -3.336,1.538 -3.525,1.365 -3.715,1.19 -3.872,0.985 -3.995,0.755 -4.123,0.522 -4.206,0.271 -4.246,0 Z m -4.331,-1.104 c 0.027,-0.677 0.24,-1.266 0.65,-1.763 0.421,-0.498 0.969,-0.746 1.639,-0.746 0.53,0 0.964,0.12 1.306,0.364 0.34,0.242 0.66,0.61 0.965,1.111 l 1.234,-0.698 c -0.359,-0.649 -0.85,-1.155 -1.473,-1.525 -0.617,-0.364 -1.304,-0.552 -2.046,-0.552 -1.14,0 -2.046,0.38 -2.725,1.136 -0.674,0.767 -1.006,1.72 -1.006,2.856 0,1.197 0.317,2.179 0.954,2.948 0.627,0.756 1.541,1.138 2.741,1.138 1.166,0 2.049,-0.382 2.643,-1.138 0.607,-0.754 0.912,-1.726 0.912,-2.9 v -0.231 z"
             style="fill:#262262;fill-opacity:1;fill-rule:nonzero;stroke:none"
             id="path74" /></g><path
           d="m 485.102,23.107 h -3.553 v 1.216 h 3.553 z"
           style="fill:#262262;fill-opacity:1;fill-rule:nonzero;stroke:none"
           id="path76" /><g
           id="g78"
           transform="translate(490.2891,19.5576)"><path
             d="m 0,0 c 0.768,0 1.365,0.265 1.799,0.795 0.439,0.538 0.664,1.193 0.664,1.96 0,0.753 -0.225,1.399 -0.664,1.93 C 1.365,5.216 0.768,5.479 0,5.479 -0.725,5.479 -1.309,5.21 -1.754,4.668 -2.188,4.14 -2.402,3.5 -2.402,2.755 -2.402,1.988 -2.188,1.339 -1.754,0.811 -1.309,0.27 -0.725,0 0,0 M 2.383,0.146 H 2.346 C 2.047,-0.312 1.67,-0.661 1.221,-0.918 0.775,-1.17 0.291,-1.3 -0.229,-1.3 c -1.123,0 -2.011,0.398 -2.66,1.182 -0.648,0.794 -0.97,1.766 -0.97,2.923 0,1.093 0.326,2.021 0.986,2.788 0.658,0.786 1.521,1.185 2.576,1.185 1.096,0 1.977,-0.5 2.643,-1.49 h 0.037 v 7.747 H 3.842 V -1.039 H 2.383 Z"
             style="fill:#262262;fill-opacity:1;fill-rule:nonzero;stroke:none"
             id="path80" /></g><g
           id="g82"
           transform="translate(496.8047,22.2979)"><path
             d="m 0,0 c 0,-0.705 0.254,-1.323 0.762,-1.866 0.498,-0.52 1.109,-0.78 1.832,-0.78 0.715,0 1.326,0.26 1.834,0.78 C 4.932,-1.323 5.187,-0.705 5.187,0 5.187,0.712 4.932,1.331 4.428,1.858 3.92,2.38 3.309,2.638 2.594,2.638 1.871,2.638 1.26,2.38 0.762,1.858 0.254,1.331 0,0.712 0,0 M -0.293,2.869 C 0.496,3.646 1.459,4.038 2.594,4.038 3.729,4.038 4.687,3.646 5.463,2.869 6.252,2.091 6.648,1.132 6.648,0 6.648,-1.137 6.252,-2.093 5.463,-2.871 4.687,-3.649 3.729,-4.04 2.594,-4.04 c -1.135,0 -2.098,0.391 -2.887,1.169 -0.773,0.778 -1.166,1.734 -1.166,2.871 0,1.132 0.393,2.091 1.166,2.869"
             style="fill:#262262;fill-opacity:1;fill-rule:nonzero;stroke:none"
             id="path84" /></g><g
           id="g86"
           transform="translate(507.377,21.2744)"><path
             d="M 0,0 2.234,5.253 4.457,0 6.662,4.833 H 8.313 L 4.457,-3.017 2.234,2.061 0,-3.017 -3.859,4.833 h 1.648 z"
             style="fill:#262262;fill-opacity:1;fill-rule:nonzero;stroke:none"
             id="path88" /></g><g
           id="g90"
           transform="translate(517.8828,25.084)"><path
             d="m 0,0 h 0.033 c 0.215,0.398 0.529,0.713 0.938,0.926 0.41,0.217 0.861,0.326 1.347,0.326 0.495,0 0.918,-0.078 1.264,-0.229 C 3.932,0.87 4.207,0.658 4.416,0.372 4.627,0.092 4.777,-0.251 4.871,-0.656 4.963,-1.062 5.01,-1.522 5.01,-2.04 V -6.565 H 3.549 v 4.345 c 0,0.744 -0.106,1.292 -0.324,1.637 -0.217,0.358 -0.664,0.536 -1.344,0.536 -0.25,0 -0.459,-0.025 -0.633,-0.073 C 1.072,-0.168 0.922,-0.238 0.795,-0.328 0.662,-0.422 0.555,-0.53 0.469,-0.648 0.383,-0.765 0.301,-0.895 0.225,-1.036 0.193,-1.112 0.162,-1.209 0.135,-1.329 0.109,-1.446 0.086,-1.567 0.064,-1.693 0.043,-1.819 0.025,-1.942 0.012,-2.067 0.006,-2.191 0,-2.289 0,-2.369 V -3.08 -6.565 H -1.461 V 1.023 H 0 Z"
             style="fill:#262262;fill-opacity:1;fill-rule:nonzero;stroke:none"
             id="path92" /></g><path
           d="m 526.426,18.519 h -1.461 v 14.074 h 1.461 z"
           style="fill:#262262;fill-opacity:1;fill-rule:nonzero;stroke:none"
           id="path94" /><g
           id="g96"
           transform="translate(529.2793,22.2979)"><path
             d="m 0,0 c 0,-0.705 0.256,-1.323 0.762,-1.866 0.496,-0.52 1.105,-0.78 1.834,-0.78 0.711,0 1.322,0.26 1.832,0.78 C 4.934,-1.323 5.186,-0.705 5.186,0 5.186,0.712 4.934,1.331 4.428,1.858 3.918,2.38 3.307,2.638 2.596,2.638 1.867,2.638 1.258,2.38 0.762,1.858 0.256,1.331 0,0.712 0,0 M -0.293,2.869 C 0.5,3.646 1.459,4.038 2.596,4.038 3.727,4.038 4.686,3.646 5.463,2.869 6.252,2.091 6.648,1.132 6.648,0 6.648,-1.137 6.252,-2.093 5.463,-2.871 4.686,-3.649 3.727,-4.04 2.596,-4.04 c -1.137,0 -2.096,0.391 -2.889,1.169 -0.779,0.778 -1.166,1.734 -1.166,2.871 0,1.132 0.387,2.091 1.166,2.869"
             style="fill:#262262;fill-opacity:1;fill-rule:nonzero;stroke:none"
             id="path98" /></g><g
           id="g100"
           transform="translate(540.5312,19.5576)"><path
             d="m 0,0 c 0.768,0 1.367,0.265 1.799,0.795 0.445,0.538 0.666,1.193 0.666,1.96 0,0.753 -0.221,1.399 -0.666,1.93 C 1.367,5.216 0.768,5.479 0,5.479 -0.725,5.479 -1.309,5.21 -1.752,4.668 -2.184,4.14 -2.398,3.5 -2.398,2.755 -2.398,1.988 -2.184,1.339 -1.752,0.811 -1.309,0.27 -0.725,0 0,0 M 3.84,-1.039 H 2.383 V 0.146 H 2.352 C 1.701,-0.816 0.844,-1.3 -0.225,-1.3 c -1.117,0 -2.002,0.398 -2.66,1.182 -0.65,0.794 -0.976,1.766 -0.976,2.923 0,1.093 0.332,2.021 0.992,2.788 0.662,0.786 1.525,1.185 2.594,1.185 1.078,0 1.955,-0.5 2.627,-1.49 H 2.383 V 6.55 H 3.84 Z"
             style="fill:#262262;fill-opacity:1;fill-rule:nonzero;stroke:none"
             id="path102" /></g><g
           id="g104"
           transform="translate(549.543,19.5576)"><path
             d="m 0,0 c 0.771,0 1.367,0.265 1.801,0.795 0.447,0.538 0.668,1.193 0.668,1.96 0,0.753 -0.221,1.399 -0.668,1.93 C 1.367,5.216 0.771,5.479 0,5.479 -0.721,5.479 -1.305,5.21 -1.746,4.668 -2.182,4.14 -2.398,3.5 -2.398,2.755 -2.398,1.988 -2.182,1.339 -1.746,0.811 -1.305,0.27 -0.721,0 0,0 M 2.383,0.146 H 2.354 C 2.053,-0.312 1.67,-0.661 1.232,-0.918 0.779,-1.17 0.295,-1.3 -0.225,-1.3 c -1.123,0 -2.009,0.398 -2.658,1.182 -0.648,0.794 -0.972,1.766 -0.972,2.923 0,1.093 0.33,2.021 0.988,2.788 0.658,0.786 1.519,1.185 2.578,1.185 1.092,0 1.969,-0.5 2.643,-1.49 h 0.029 v 7.747 H 3.846 V -1.039 H 2.383 Z"
             style="fill:#262262;fill-opacity:1;fill-rule:nonzero;stroke:none"
             id="path106" /></g><g
           id="g108"
           transform="translate(557.5703,19.1982)"><path
             d="m 0,0 c 0,-0.259 -0.09,-0.48 -0.271,-0.665 -0.188,-0.181 -0.407,-0.275 -0.666,-0.275 -0.262,0 -0.483,0.094 -0.667,0.275 -0.185,0.185 -0.277,0.406 -0.277,0.665 0,0.25 0.092,0.469 0.277,0.659 0.184,0.188 0.405,0.284 0.667,0.284 0.259,0 0.478,-0.096 0.666,-0.284 C -0.09,0.469 0,0.25 0,0"
             style="fill:#262262;fill-opacity:1;fill-rule:nonzero;stroke:none"
             id="path110" /></g><g
           id="g112"
           transform="translate(565.5488,23.9531)"><path
             d="m 0,0 c -0.605,0.676 -1.33,1.019 -2.174,1.019 -0.699,0 -1.305,-0.263 -1.799,-0.793 -0.488,-0.541 -0.73,-1.163 -0.73,-1.867 0,-0.79 0.242,-1.431 0.73,-1.929 0.51,-0.511 1.141,-0.76 1.895,-0.76 0.779,0 1.473,0.333 2.078,0.999 L 0,-5.19 c -0.627,-0.336 -1.324,-0.505 -2.092,-0.505 -1.123,0 -2.088,0.383 -2.887,1.152 -0.791,0.758 -1.183,1.704 -1.183,2.84 0,1.164 0.392,2.139 1.183,2.917 0.79,0.777 1.776,1.169 2.969,1.169 0.776,0 1.446,-0.171 2.01,-0.507 z"
             style="fill:#262262;fill-opacity:1;fill-rule:nonzero;stroke:none"
             id="path114" /></g><g
           id="g116"
           transform="translate(567.9023,22.2979)"><path
             d="m 0,0 c 0,-0.705 0.252,-1.323 0.758,-1.866 0.496,-0.52 1.109,-0.78 1.834,-0.78 0.711,0 1.324,0.26 1.832,0.78 0.506,0.543 0.76,1.161 0.76,1.866 0,0.712 -0.254,1.331 -0.76,1.858 C 3.916,2.38 3.303,2.638 2.592,2.638 1.867,2.638 1.254,2.38 0.758,1.858 0.252,1.331 0,0.712 0,0 M -0.293,2.869 C 0.498,3.646 1.455,4.038 2.592,4.038 3.725,4.038 4.686,3.646 5.461,2.869 6.25,2.091 6.645,1.132 6.645,0 6.645,-1.137 6.25,-2.093 5.461,-2.871 4.686,-3.649 3.725,-4.04 2.592,-4.04 c -1.137,0 -2.094,0.391 -2.885,1.169 -0.783,0.778 -1.168,1.734 -1.168,2.871 0,1.132 0.385,2.091 1.168,2.869"
             style="fill:#262262;fill-opacity:1;fill-rule:nonzero;stroke:none"
             id="path118" /></g><g
           id="g120"
           transform="translate(577.2852,25.1504)"><path
             d="m 0,0 h 0.033 c 0.217,0.348 0.506,0.632 0.865,0.852 0.366,0.219 0.747,0.334 1.145,0.334 0.943,0 1.67,-0.452 2.191,-1.347 0.237,0.408 0.561,0.733 0.979,0.979 0.418,0.242 0.867,0.368 1.357,0.368 1.672,0 2.508,-1.095 2.508,-3.279 V -6.632 H 7.621 v 4.296 C 7.621,-2.141 7.613,-1.95 7.6,-1.76 7.582,-1.569 7.551,-1.384 7.51,-1.212 7.463,-1.028 7.4,-0.869 7.314,-0.715 7.227,-0.562 7.105,-0.426 6.957,-0.305 6.764,-0.179 6.512,-0.113 6.211,-0.113 5.906,-0.113 5.65,-0.179 5.437,-0.305 5.227,-0.426 5.066,-0.576 4.959,-0.756 4.842,-0.932 4.75,-1.159 4.687,-1.428 4.621,-1.694 4.582,-1.94 4.561,-2.159 4.551,-2.372 4.539,-2.623 4.539,-2.9 V -6.632 H 3.084 v 4.022 c 0,0.256 -0.008,0.475 -0.018,0.649 -0.011,0.17 -0.045,0.388 -0.099,0.648 -0.053,0.279 -0.123,0.486 -0.211,0.616 -0.084,0.151 -0.221,0.284 -0.406,0.406 -0.18,0.117 -0.405,0.178 -0.663,0.178 -0.744,0 -1.228,-0.324 -1.443,-0.972 C 0.148,-1.39 0.084,-1.679 0.051,-1.946 0.016,-2.215 0,-2.534 0,-2.9 V -6.632 H -1.459 V 0.957 H 0 Z"
             style="fill:#262262;fill-opacity:1;fill-rule:nonzero;stroke:none"
             id="path122" /></g><g
           id="g124"
           transform="translate(324.9517,22.9941)"><path
             d="m 0,0 h 20.652 c 0.622,0 0.622,0.97 0,0.97 H 0 C -0.621,0.97 -0.621,0 0,0"
             style="fill:#262262;fill-opacity:1;fill-rule:nonzero;stroke:none"
             id="path126" /></g><g
           id="g128"
           transform="translate(599.7246,22.9941)"><path
             d="m 0,0 h 20.648 c 0.627,0 0.627,0.97 0,0.97 H 0 C -0.625,0.97 -0.625,0 0,0"
             style="fill:#262262;fill-opacity:1;fill-rule:nonzero;stroke:none"
             id="path130" /></g><g
           id="g132"
           transform="translate(219.8335,261.1016)"><path
             d="m 0,0 h -122.703 l 55.8,178.444 H 55.799 Z"
             style="fill:none;stroke:#543dd8;stroke-width:1;stroke-linecap:butt;stroke-linejoin:miter;stroke-miterlimit:10;stroke-dasharray:none;stroke-opacity:1"
             id="path134" /></g><g
           id="g136"
           transform="translate(217.4292,267.6729)"><path
             d="m 0,0 h -122.703 l 55.8,178.445 H 55.799 Z"
             style="fill:none;stroke:#543dd8;stroke-width:1;stroke-linecap:butt;stroke-linejoin:miter;stroke-miterlimit:10;stroke-dasharray:none;stroke-opacity:1"
             id="path138" /></g><g
           id="g140"
           transform="translate(217.4292,267.6729)"><path
             d="m 0,0 h -122.703 l 8.738,27.941 H 8.737 Z"
             style="fill:#ffe100;fill-opacity:1;fill-rule:nonzero;stroke:none"
             id="path142" /></g><g
           id="g144"
           transform="translate(176.9697,419.3159)"><path
             d="m 0,0 c -1.203,-3.846 -5.294,-6.962 -9.139,-6.962 -3.845,0 -5.987,3.116 -4.784,6.962 1.202,3.844 5.293,6.961 9.138,6.961 C -0.939,6.961 1.202,3.844 0,0"
             style="fill:#f24693;fill-opacity:1;fill-rule:nonzero;stroke:none"
             id="path146" /></g><g
           id="g148"
           transform="translate(183.5937,419.3159)"><path
             d="M 0,0 H 60.353"
             style="fill:none;stroke:#9eaeff;stroke-width:0.519;stroke-linecap:butt;stroke-linejoin:miter;stroke-miterlimit:10;stroke-dasharray:none;stroke-opacity:1"
             id="path150" /></g><g
           id="g152"
           transform="translate(166.7197,386.5371)"><path
             d="m 0,0 c -1.203,-3.847 -5.294,-6.963 -9.139,-6.963 -3.845,0 -5.987,3.116 -4.784,6.963 1.202,3.843 5.293,6.961 9.138,6.961 C -0.94,6.961 1.202,3.843 0,0"
             style="fill:#4862e0;fill-opacity:1;fill-rule:nonzero;stroke:none"
             id="path154" /></g><g
           id="g156"
           transform="translate(173.3437,386.5371)"><path
             d="M 0,0 H 60.353"
             style="fill:none;stroke:#9eaeff;stroke-width:0.519;stroke-linecap:butt;stroke-linejoin:miter;stroke-miterlimit:10;stroke-dasharray:none;stroke-opacity:1"
             id="path158" /></g><g
           id="g160"
           transform="translate(156.4697,353.7563)"><path
             d="m 0,0 c -1.203,-3.845 -5.293,-6.961 -9.139,-6.961 -3.844,0 -5.986,3.116 -4.785,6.961 1.203,3.845 5.294,6.961 9.138,6.961 C -0.94,6.961 1.202,3.845 0,0"
             style="fill:#262f57;fill-opacity:1;fill-rule:nonzero;stroke:none"
             id="path162" /></g><g
           id="g164"
           transform="translate(163.0928,353.7563)"><path
             d="M 0,0 H 60.354"
             style="fill:none;stroke:#9eaeff;stroke-width:0.519;stroke-linecap:butt;stroke-linejoin:miter;stroke-miterlimit:10;stroke-dasharray:none;stroke-opacity:1"
             id="path166" /></g><g
           id="g168"
           transform="translate(146.2197,320.9775)"><path
             d="m 0,0 c -1.203,-3.845 -5.294,-6.962 -9.139,-6.962 -3.845,0 -5.986,3.117 -4.785,6.962 1.202,3.845 5.294,6.961 9.138,6.961 C -0.94,6.961 1.202,3.845 0,0"
             style="fill:#ddff00;fill-opacity:1;fill-rule:nonzero;stroke:none"
             id="path170" /></g><g
           id="g172"
           transform="translate(152.8433,320.9775)"><path
             d="M 0,0 H 60.353"
             style="fill:none;stroke:#9eaeff;stroke-width:0.519;stroke-linecap:butt;stroke-linejoin:miter;stroke-miterlimit:10;stroke-dasharray:none;stroke-opacity:1"
             id="path174" /></g><g
           id="g176"
           transform="translate(157.7285,470.3413)"><path
             d="M 0,0 8.281,-10.777"
             style="fill:none;stroke:#4862e0;stroke-width:1.022;stroke-linecap:round;stroke-linejoin:round;stroke-miterlimit:10;stroke-dasharray:none;stroke-opacity:1"
             id="path178" /></g><g
           id="g180"
           transform="translate(169.3799,470.3413)"><path
             d="M 0,0 -15.021,-10.777"
             style="fill:none;stroke:#4862e0;stroke-width:1.022;stroke-linecap:round;stroke-linejoin:round;stroke-miterlimit:10;stroke-dasharray:none;stroke-opacity:1"
             id="path182" /></g><g
           id="g184"
           transform="translate(185.2471,459.5645)"><path
             d="m 0,0 h -10.777 l 3.37,10.777 H 3.37 Z"
             style="fill:none;stroke:#4862e0;stroke-width:1.022;stroke-linecap:round;stroke-linejoin:round;stroke-miterlimit:10;stroke-dasharray:none;stroke-opacity:1"
             id="path186" /></g><g
           id="g188"
           transform="translate(206.3247,464.9541)"><path
             d="m 0,0 c -0.944,-3.019 -4.157,-5.467 -7.176,-5.467 -3.019,0 -4.701,2.448 -3.757,5.467 0.944,3.019 4.157,5.464 7.176,5.464 C -0.738,5.464 0.944,3.019 0,0 Z"
             style="fill:none;stroke:#4862e0;stroke-width:1.022;stroke-linecap:round;stroke-linejoin:round;stroke-miterlimit:10;stroke-dasharray:none;stroke-opacity:1"
             id="path190" /></g><g
           id="g192"
           transform="translate(212.1597,464.9541)"><path
             d="M 0,0 H 66.959"
             style="fill:none;stroke:#4862e0;stroke-width:1.022;stroke-linecap:round;stroke-linejoin:round;stroke-miterlimit:10;stroke-dasharray:none;stroke-opacity:1"
             id="path194" /></g><path
           d="m 517.708,322.123 h 200.86 v 128.275 h -200.86 z"
           style="fill:none;stroke:#543dd8;stroke-width:1;stroke-linecap:butt;stroke-linejoin:miter;stroke-miterlimit:10;stroke-dasharray:none;stroke-opacity:1"
           id="path196" /><path
           d="M 528.534,329.039 H 707.742 V 443.485 H 528.534 Z"
           style="fill:none;stroke:#543dd8;stroke-width:1;stroke-linecap:butt;stroke-linejoin:miter;stroke-miterlimit:10;stroke-dasharray:none;stroke-opacity:1"
           id="path198" /><path
           d="m 528.534,438.109 h 179.208 v 5.375 H 528.534 Z"
           style="fill:none;stroke:#543dd8;stroke-width:1;stroke-linecap:butt;stroke-linejoin:miter;stroke-miterlimit:10;stroke-dasharray:none;stroke-opacity:1"
           id="path200" /><g
           id="g202"
           transform="translate(701.9277,440.8477)"><path
             d="m 0,0 c 0,-0.965 0.782,-1.746 1.745,-1.746 0.964,0 1.747,0.781 1.747,1.746 0,0.96 -0.783,1.743 -1.747,1.743 C 0.782,1.743 0,0.96 0,0 Z"
             style="fill:none;stroke:#543dd8;stroke-width:1;stroke-linecap:butt;stroke-linejoin:miter;stroke-miterlimit:10;stroke-dasharray:none;stroke-opacity:1"
             id="path204" /></g><path
           d="m 683.176,439.934 h 13.729 v 2.209 h -13.729 z"
           style="fill:none;stroke:#543dd8;stroke-width:1;stroke-linecap:butt;stroke-linejoin:miter;stroke-miterlimit:10;stroke-dasharray:none;stroke-opacity:1"
           id="path206" /><path
           d="m 666.949,439.934 h 13.729 v 2.209 h -13.729 z"
           style="fill:none;stroke:#543dd8;stroke-width:1;stroke-linecap:butt;stroke-linejoin:miter;stroke-miterlimit:10;stroke-dasharray:none;stroke-opacity:1"
           id="path208" /><path
           d="m 650.724,439.934 h 13.73 v 2.209 h -13.73 z"
           style="fill:none;stroke:#543dd8;stroke-width:1;stroke-linecap:butt;stroke-linejoin:miter;stroke-miterlimit:10;stroke-dasharray:none;stroke-opacity:1"
           id="path210" /><path
           d="m 634.495,439.934 h 13.731 v 2.209 h -13.731 z"
           style="fill:none;stroke:#543dd8;stroke-width:1;stroke-linecap:butt;stroke-linejoin:miter;stroke-miterlimit:10;stroke-dasharray:none;stroke-opacity:1"
           id="path212" /><path
           d="M 618.271,439.934 H 632 v 2.209 h -13.729 z"
           style="fill:none;stroke:#543dd8;stroke-width:1;stroke-linecap:butt;stroke-linejoin:miter;stroke-miterlimit:10;stroke-dasharray:none;stroke-opacity:1"
           id="path214" /><path
           d="m 533.924,439.934 h 13.729 v 2.209 h -13.729 z"
           style="fill:none;stroke:#543dd8;stroke-width:1;stroke-linecap:butt;stroke-linejoin:miter;stroke-miterlimit:10;stroke-dasharray:none;stroke-opacity:1"
           id="path216" /><g
           id="g218"
           transform="translate(637.3496,396.627)"><path
             d="m 0,0 c 0,-17.418 14.122,-31.54 31.54,-31.54 17.417,0 31.537,14.122 31.537,31.54 0,17.419 -14.12,31.54 -31.537,31.54 C 14.122,31.54 0,17.419 0,0 Z"
             style="fill:none;stroke:#543dd8;stroke-width:1;stroke-linecap:butt;stroke-linejoin:miter;stroke-miterlimit:10;stroke-dasharray:none;stroke-opacity:1"
             id="path220" /></g><g
           id="g222"
           transform="translate(646.5889,418.9292)"><path
             d="m 0,0 c 5.707,5.705 13.591,9.238 22.301,9.238 v -31.54 z"
             style="fill:none;stroke:#543dd8;stroke-width:1;stroke-linecap:butt;stroke-linejoin:miter;stroke-miterlimit:10;stroke-dasharray:none;stroke-opacity:1"
             id="path224" /></g><path
           d="m 608.838,426.565 h 23.039 v 2.59 h -23.039 z"
           style="fill:#ece6ff;fill-opacity:1;fill-rule:nonzero;stroke:none"
           id="path226" /><path
           d="m 535.313,333.325 h 41.725 v 95.831 h -41.725 z"
           style="fill:none;stroke:#543dd8;stroke-width:1;stroke-linecap:butt;stroke-linejoin:miter;stroke-miterlimit:10;stroke-dasharray:none;stroke-opacity:1"
           id="path228" /><g
           id="g230"
           transform="translate(608.8379,417.4419)"><path
             d="M 0,0 H -26.544"
             style="fill:none;stroke:#ece6ff;stroke-width:1;stroke-linecap:butt;stroke-linejoin:miter;stroke-miterlimit:10;stroke-dasharray:none;stroke-opacity:1"
             id="path232" /></g><g
           id="g234"
           transform="translate(631.877,411.0747)"><path
             d="M 0,0 H -49.583"
             style="fill:none;stroke:#ece6ff;stroke-width:1;stroke-linecap:butt;stroke-linejoin:miter;stroke-miterlimit:10;stroke-dasharray:none;stroke-opacity:1"
             id="path236" /></g><g
           id="g238"
           transform="translate(631.877,405.8745)"><path
             d="M 0,0 H -49.583"
             style="fill:none;stroke:#ece6ff;stroke-width:1;stroke-linecap:butt;stroke-linejoin:miter;stroke-miterlimit:10;stroke-dasharray:none;stroke-opacity:1"
             id="path240" /></g><g
           id="g242"
           transform="translate(631.877,400.6733)"><path
             d="M 0,0 H -49.583"
             style="fill:none;stroke:#ece6ff;stroke-width:1;stroke-linecap:butt;stroke-linejoin:miter;stroke-miterlimit:10;stroke-dasharray:none;stroke-opacity:1"
             id="path244" /></g><g
           id="g246"
           transform="translate(666.6641,356.9028)"><path
             d="M 0,0 H 33.765"
             style="fill:none;stroke:#ece6ff;stroke-width:1;stroke-linecap:butt;stroke-linejoin:miter;stroke-miterlimit:10;stroke-dasharray:none;stroke-opacity:1"
             id="path248" /></g><g
           id="g250"
           transform="translate(637.3496,350.5337)"><path
             d="M 0,0 H 63.079"
             style="fill:none;stroke:#ece6ff;stroke-width:1;stroke-linecap:butt;stroke-linejoin:miter;stroke-miterlimit:10;stroke-dasharray:none;stroke-opacity:1"
             id="path252" /></g><g
           id="g254"
           transform="translate(637.3496,345.3354)"><path
             d="M 0,0 H 63.079"
             style="fill:none;stroke:#ece6ff;stroke-width:1;stroke-linecap:butt;stroke-linejoin:miter;stroke-miterlimit:10;stroke-dasharray:none;stroke-opacity:1"
             id="path256" /></g><g
           id="g258"
           transform="translate(637.3496,340.1382)"><path
             d="M 0,0 H 63.079"
             style="fill:none;stroke:#ece6ff;stroke-width:1;stroke-linecap:butt;stroke-linejoin:miter;stroke-miterlimit:10;stroke-dasharray:none;stroke-opacity:1"
             id="path260" /></g><g
           id="g262"
           transform="translate(631.877,395.4761)"><path
             d="M 0,0 H -49.583"
             style="fill:none;stroke:#ece6ff;stroke-width:1;stroke-linecap:butt;stroke-linejoin:miter;stroke-miterlimit:10;stroke-dasharray:none;stroke-opacity:1"
             id="path264" /></g><g
           id="g266"
           transform="translate(631.877,390.2749)"><path
             d="M 0,0 H -49.583"
             style="fill:none;stroke:#ece6ff;stroke-width:1;stroke-linecap:butt;stroke-linejoin:miter;stroke-miterlimit:10;stroke-dasharray:none;stroke-opacity:1"
             id="path268" /></g><g
           id="g270"
           transform="translate(631.877,385.0742)"><path
             d="M 0,0 H -49.583"
             style="fill:none;stroke:#ece6ff;stroke-width:1;stroke-linecap:butt;stroke-linejoin:miter;stroke-miterlimit:10;stroke-dasharray:none;stroke-opacity:1"
             id="path272" /></g><g
           id="g274"
           transform="translate(631.877,379.8765)"><path
             d="M 0,0 H -49.583"
             style="fill:none;stroke:#ece6ff;stroke-width:1;stroke-linecap:butt;stroke-linejoin:miter;stroke-miterlimit:10;stroke-dasharray:none;stroke-opacity:1"
             id="path276" /></g><g
           id="g278"
           transform="translate(631.877,374.6758)"><path
             d="M 0,0 H -49.583"
             style="fill:none;stroke:#ece6ff;stroke-width:1;stroke-linecap:butt;stroke-linejoin:miter;stroke-miterlimit:10;stroke-dasharray:none;stroke-opacity:1"
             id="path280" /></g><g
           id="g282"
           transform="translate(651.4463,370.3511)"><path
             d="m 0,0 c -8.497,5.649 -14.097,15.309 -14.097,26.276 0,8.71 3.532,16.595 9.24,22.302 l 22.3,-22.302 z"
             style="fill:none;stroke:#543dd8;stroke-width:1;stroke-linecap:butt;stroke-linejoin:miter;stroke-miterlimit:10;stroke-dasharray:none;stroke-opacity:1"
             id="path284" /></g><g
           id="g286"
           transform="translate(668.8896,396.627)"><path
             d="m 0,0 v 31.54 c 3.775,0 7.396,-0.665 10.749,-1.881 z"
             style="fill:none;stroke:#543dd8;stroke-width:1;stroke-linecap:butt;stroke-linejoin:miter;stroke-miterlimit:10;stroke-dasharray:none;stroke-opacity:1"
             id="path288" /></g><path
           d="m 608.838,351.383 h 24.004 v 13.126 h -24.004 z"
           style="fill:none;stroke:#ece6ff;stroke-width:1;stroke-linecap:butt;stroke-linejoin:miter;stroke-miterlimit:10;stroke-dasharray:none;stroke-opacity:1"
           id="path290" /><path
           d="m 582.294,333.222 h 42.108 v 26.914 h -42.108 z"
           style="fill:none;stroke:#ece6ff;stroke-width:1;stroke-linecap:butt;stroke-linejoin:miter;stroke-miterlimit:10;stroke-dasharray:none;stroke-opacity:1"
           id="path292" /><g
           id="g294"
           transform="translate(582.2939,360.1357)"><path
             d="M 0,0 42.108,-26.914"
             style="fill:none;stroke:#ece6ff;stroke-width:1;stroke-linecap:butt;stroke-linejoin:miter;stroke-miterlimit:10;stroke-dasharray:none;stroke-opacity:1"
             id="path296" /></g><g
           id="g298"
           transform="translate(365.4487,183.5068)"><path
             d="m 0,0 172.819,129.333 8.374,-83.332 204.98,197.309"
             style="fill:none;stroke:#543dd8;stroke-width:1;stroke-linecap:butt;stroke-linejoin:miter;stroke-miterlimit:10;stroke-dasharray:none;stroke-opacity:1"
             id="path300" /></g><g
           id="g302"
           transform="translate(755.1982,433.3672)"><path
             d="m 0,0 v -24.163 l -22.295,19.83 z"
             style="fill:#ffffff;fill-opacity:1;fill-rule:nonzero;stroke:none"
             id="path304" /></g><g
           id="g306"
           transform="translate(755.1982,433.3672)"><path
             d="m 0,0 v -24.163 l -22.295,19.83 z"
             style="fill:none;stroke:#543dd8;stroke-width:1;stroke-linecap:butt;stroke-linejoin:miter;stroke-miterlimit:10;stroke-dasharray:none;stroke-opacity:1"
             id="path308" /></g></g></g><g
       id="g310"><g
         id="g312"
         clip-path="url(#clipPath316)"><g
           id="g318"
           transform="translate(802.9844,199.0303)"><path
             d="m 0,0 c 4.642,5.867 4.593,14.481 1.457,21.276 -3.133,6.794 -8.86,12.044 -14.916,16.44 -6.227,4.519 -13.26,8.444 -20.935,8.952 -3.235,0.22 -6.658,-0.243 -9.271,-2.16 -3.56,-2.612 -4.868,-7.345 -5.073,-11.75 -0.177,-3.868 0.322,-7.794 1.772,-11.38 C -43.063,11.724 -32.739,0.2 -22.502,-2.812 -15.093,-4.994 -6.923,-2.84 0,0"
             style="fill:#ddeded;fill-opacity:1;fill-rule:nonzero;stroke:none"
             id="path320" /></g><g
           id="g322"
           transform="translate(852.4072,224.1172)"><path
             d="m 0,0 c -7.048,5.646 -9.675,15.399 -8.555,24.357 1.719,13.747 9.242,28.403 20.767,36.875 4.279,3.143 9.871,4.934 14.978,3.63 C 37.786,62.157 40.808,49.366 39.139,39.986 36.971,27.789 28.416,17.141 19.635,8.612 14.353,3.482 7.662,-0.775 0,0"
             style="fill:#fcb72d;fill-opacity:1;fill-rule:nonzero;stroke:none"
             id="path324" /></g><g
           id="g326"
           transform="translate(836.8545,271.7441)"><path
             d="m 0,0 c -2.963,0.799 -6.893,3.276 -8.105,5.806 -6.979,14.552 -7.603,32.764 0.757,47.671 4.516,8.049 12.958,16.937 22.352,20.713 4.525,1.82 10.167,2.043 14.038,-0.585 4.898,-3.316 6.193,-10.353 7.017,-15.51 C 36.967,52.429 36.841,46.628 35.898,40.934 34.016,29.537 28.887,18.262 20.682,9.173 19.424,7.779 18.092,6.44 16.685,5.165 13.623,2.397 7.863,-0.162 0,0"
             style="fill:#725ae8;fill-opacity:1;fill-rule:nonzero;stroke:none"
             id="path328" /></g><g
           id="g330"
           transform="translate(860.2158,200.8018)"><path
             d="M 0,0 C -1.116,1.434 -2.072,4.104 -1.722,5.881 0.3,16.124 6.676,26.22 16.104,31.492 c 5.09,2.845 12.353,4.826 18.195,3.713 2.815,-0.536 5.574,-2.315 6.451,-5.043 1.109,-3.454 -0.854,-7.705 -2.352,-10.781 -1.647,-3.38 -3.83,-6.485 -6.363,-9.253 C 26.965,4.575 20.399,0.184 13.177,-1.985 12.066,-2.319 10.943,-2.598 9.81,-2.813 7.345,-3.287 3.671,-2.735 0,0"
             style="fill:#eff5f9;fill-opacity:1;fill-rule:nonzero;stroke:none"
             id="path332" /></g><g
           id="g334"
           transform="translate(808.7822,289.2803)"><path
             d="m 0,0 c -2.715,3.819 -6.032,7.194 -10.019,9.879 -8.843,5.962 -23.949,8.999 -31.422,-0.713 -3.567,-4.643 -2.612,-11.28 -0.729,-16.827 4.737,-13.952 14.402,-26.175 26.885,-34.008 7.367,-4.624 18.614,-7.121 23.97,1.869 3.345,5.62 1.084,14.344 -0.281,20.318 C 6.828,-12.542 4.101,-5.767 0,0"
             style="fill:#fcb72d;fill-opacity:1;fill-rule:nonzero;stroke:none"
             id="path336" /></g><g
           id="g338"
           transform="translate(822.5205,165.7627)"><path
             d="m 0,0 c -0.861,20.995 -1.75,42.705 -6.262,63.572 -4.587,21.223 -15.449,48.695 -32.164,62.156 l 0.795,0.984 C -20.656,113.045 -9.658,85.271 -5.023,63.839 -0.487,42.863 0.402,21.1 1.263,0.053 Z"
             style="fill:#a5c6c4;fill-opacity:1;fill-rule:nonzero;stroke:none"
             id="path340" /></g><g
           id="g342"
           transform="translate(837.8164,148.3066)"><path
             d="m 0,0 -1.267,0.001 c 0.154,51.911 19.384,96.871 35.807,119.603 l 1.025,-0.743 C 19.253,96.285 0.15,51.606 0,0"
             style="fill:#a5c6c4;fill-opacity:1;fill-rule:nonzero;stroke:none"
             id="path344" /></g><g
           id="g346"
           transform="translate(831.3057,152.5537)"><path
             d="m 0,0 -0.111,11.273 c -0.641,62.62 -1.194,116.696 23.572,169.373 l 1.143,-0.539 C -0.039,127.695 0.516,73.747 1.154,11.286 L 1.264,0.011 Z"
             style="fill:#a5c6c4;fill-opacity:1;fill-rule:nonzero;stroke:none"
             id="path348" /></g><g
           id="g350"
           transform="translate(815.5137,149.5654)"><path
             d="m 0,0 -1.263,0.086 c 2.239,32.3 -16.359,65.096 -45.227,79.754 l 0.575,1.131 C -16.609,66.088 2.272,32.789 0,0"
             style="fill:#a5c6c4;fill-opacity:1;fill-rule:nonzero;stroke:none"
             id="path352" /></g><g
           id="g354"
           transform="translate(839.3721,141.4238)"><path
             d="M 0,0 -1.261,0.078 C 0.461,28.466 12.926,66.6 42.377,80.646 L 42.92,79.503 C 13.965,65.694 1.702,28.046 0,0"
             style="fill:#a5c6c4;fill-opacity:1;fill-rule:nonzero;stroke:none"
             id="path356" /></g><g
           id="g358"
           transform="translate(791.4229,174.5586)"><path
             d="m 0,0 0.048,-23.588 c 0.124,-61.04 19.791,-70.164 19.791,-70.164 l 43.261,0.085 c 0,0 19.629,9.207 19.503,70.248 L 82.555,0.168 Z"
             style="fill:#ffffff;fill-opacity:1;fill-rule:nonzero;stroke:none"
             id="path360" /></g><g
           id="g362"
           transform="translate(792.2666,173.7178)"><path
             d="m 0,0 0.048,-22.747 c 0.116,-56.769 17.374,-68.289 19.158,-69.32 l 42.833,0.088 c 1.762,1.028 18.994,12.598 18.877,69.397 L 80.869,0.162 Z m 18.812,-93.758 -0.172,0.078 c -0.824,0.383 -20.157,10.052 -20.281,70.931 l -0.051,24.433 84.245,0.17 0.051,-24.432 c 0.124,-60.875 -19.171,-70.627 -19.99,-71.011 l -0.358,-0.082 z"
             style="fill:#725ae8;fill-opacity:1;fill-rule:nonzero;stroke:none"
             id="path364" /></g></g></g><g
       id="g366"><g
         id="g368"
         clip-path="url(#clipPath372)"><g
           id="g374"
           transform="translate(123.8916,199.0303)"><path
             d="m 0,0 c 4.642,5.867 4.593,14.481 1.458,21.276 -3.132,6.794 -8.861,12.044 -14.916,16.44 -6.227,4.519 -13.26,8.444 -20.936,8.952 -3.234,0.22 -6.657,-0.243 -9.27,-2.16 -3.56,-2.612 -4.868,-7.345 -5.073,-11.75 -0.178,-3.868 0.321,-7.794 1.771,-11.38 C -43.063,11.724 -32.738,0.2 -22.501,-2.812 -15.092,-4.994 -6.922,-2.84 0,0"
             style="fill:#ddeded;fill-opacity:1;fill-rule:nonzero;stroke:none"
             id="path376" /></g><g
           id="g378"
           transform="translate(173.3149,224.1172)"><path
             d="m 0,0 c -7.047,5.646 -9.675,15.399 -8.555,24.357 1.72,13.747 9.241,28.403 20.767,36.875 4.278,3.143 9.87,4.934 14.977,3.63 C 37.786,62.157 40.808,49.366 39.14,39.986 36.971,27.789 28.416,17.141 19.635,8.612 14.353,3.482 7.663,-0.775 0,0"
             style="fill:#fcb72d;fill-opacity:1;fill-rule:nonzero;stroke:none"
             id="path380" /></g><g
           id="g382"
           transform="translate(157.7622,271.7441)"><path
             d="m 0,0 c -2.963,0.799 -6.893,3.276 -8.106,5.806 -6.977,14.552 -7.603,32.764 0.759,47.671 4.515,8.049 12.957,16.937 22.351,20.713 4.525,1.82 10.167,2.043 14.038,-0.585 4.898,-3.316 6.193,-10.353 7.017,-15.51 C 36.967,52.429 36.842,46.628 35.898,40.934 34.016,29.537 28.887,18.262 20.682,9.173 19.424,7.779 18.091,6.44 16.685,5.165 13.623,2.397 7.863,-0.162 0,0"
             style="fill:#725ae8;fill-opacity:1;fill-rule:nonzero;stroke:none"
             id="path384" /></g><g
           id="g386"
           transform="translate(181.1226,200.8018)"><path
             d="m 0,0 c -1.114,1.434 -2.071,4.104 -1.72,5.881 2.021,10.243 8.396,20.339 17.825,25.611 5.09,2.845 12.353,4.826 18.195,3.713 2.815,-0.536 5.574,-2.315 6.452,-5.043 1.109,-3.454 -0.856,-7.705 -2.353,-10.781 -1.647,-3.38 -3.83,-6.485 -6.363,-9.253 C 26.966,4.575 20.401,0.184 13.177,-1.985 12.067,-2.319 10.944,-2.598 9.811,-2.813 7.345,-3.287 3.672,-2.735 0,0"
             style="fill:#eff5f9;fill-opacity:1;fill-rule:nonzero;stroke:none"
             id="path388" /></g><g
           id="g390"
           transform="translate(129.6904,289.2803)"><path
             d="m 0,0 c -2.715,3.819 -6.033,7.194 -10.02,9.879 -8.842,5.962 -23.948,8.999 -31.422,-0.713 -3.567,-4.643 -2.61,-11.28 -0.729,-16.827 4.738,-13.952 14.403,-26.175 26.885,-34.008 7.368,-4.624 18.614,-7.121 23.971,1.869 3.345,5.62 1.083,14.344 -0.282,20.318 C 6.828,-12.542 4.1,-5.767 0,0"
             style="fill:#fcb72d;fill-opacity:1;fill-rule:nonzero;stroke:none"
             id="path392" /></g><g
           id="g394"
           transform="translate(143.4287,165.7627)"><path
             d="m 0,0 c -0.862,20.995 -1.75,42.705 -6.262,63.572 -4.588,21.223 -15.449,48.695 -32.165,62.156 l 0.796,0.984 C -20.658,113.045 -9.659,85.271 -5.023,63.839 -0.487,42.863 0.402,21.1 1.262,0.053 Z"
             style="fill:#a5c6c4;fill-opacity:1;fill-rule:nonzero;stroke:none"
             id="path396" /></g><g
           id="g398"
           transform="translate(158.7236,148.3066)"><path
             d="m 0,0 -1.266,0.001 c 0.153,51.911 19.384,96.871 35.806,119.603 l 1.025,-0.743 C 19.253,96.285 0.151,51.606 0,0"
             style="fill:#a5c6c4;fill-opacity:1;fill-rule:nonzero;stroke:none"
             id="path400" /></g><g
           id="g402"
           transform="translate(152.2129,152.5537)"><path
             d="m 0,0 -0.111,11.273 c -0.641,62.62 -1.194,116.696 23.572,169.373 l 1.143,-0.539 C -0.039,127.695 0.515,73.747 1.154,11.286 L 1.264,0.011 Z"
             style="fill:#a5c6c4;fill-opacity:1;fill-rule:nonzero;stroke:none"
             id="path404" /></g><g
           id="g406"
           transform="translate(136.4209,149.5654)"><path
             d="m 0,0 -1.262,0.086 c 2.238,32.3 -16.36,65.096 -45.228,79.754 l 0.576,1.131 C -16.609,66.088 2.273,32.789 0,0"
             style="fill:#a5c6c4;fill-opacity:1;fill-rule:nonzero;stroke:none"
             id="path408" /></g><g
           id="g410"
           transform="translate(160.2798,141.4238)"><path
             d="M 0,0 -1.261,0.078 C 0.461,28.466 12.925,66.6 42.377,80.646 L 42.92,79.503 C 13.965,65.694 1.702,28.046 0,0"
             style="fill:#a5c6c4;fill-opacity:1;fill-rule:nonzero;stroke:none"
             id="path412" /></g><g
           id="g414"
           transform="translate(112.3301,174.5586)"><path
             d="M 0,0 0.048,-23.588 C 0.173,-84.628 19.84,-93.752 19.84,-93.752 l 43.26,0.085 c 0,0 19.629,9.207 19.503,70.248 L 82.555,0.168 Z"
             style="fill:#ffffff;fill-opacity:1;fill-rule:nonzero;stroke:none"
             id="path416" /></g><g
           id="g418"
           transform="translate(113.1748,173.7178)"><path
             d="m 0,0 0.047,-22.747 c 0.117,-56.769 17.374,-68.289 19.159,-69.32 l 42.833,0.088 c 1.761,1.028 18.995,12.598 18.877,69.397 L 80.869,0.162 Z m 18.811,-93.758 -0.173,0.078 c -0.823,0.383 -20.157,10.052 -20.279,70.931 l -0.052,24.433 84.246,0.17 0.051,-24.432 c 0.123,-60.875 -19.172,-70.627 -19.99,-71.011 l -0.359,-0.082 z"
             style="fill:#725ae8;fill-opacity:1;fill-rule:nonzero;stroke:none"
             id="path420" /></g></g></g><g
       id="g422"><g
         id="g424"
         clip-path="url(#clipPath428)"><g
           id="g430"
           transform="translate(420.9922,308.7593)"><path
             d="m 0,0 c -4.429,-5.269 -10.633,-7.343 -13.855,-4.634 -3.224,2.71 -2.247,9.178 2.182,14.446 4.43,5.269 10.633,7.343 13.857,4.633 C 5.406,11.735 4.429,5.268 0,0 m 93.705,90.565 c -3.366,2.104 -27.344,17.001 -30.289,17.966 -2.944,0.965 -44.319,0 -44.319,0 0,0 -43.811,-34.793 -35.819,-60.874 4.377,-14.283 2.735,-26.503 -5.678,-40.385 -8.414,-13.882 -27.073,-48.798 20.748,-30.289 47.821,18.51 55.815,47.116 64.228,39.965 8.413,-7.152 45.031,13.337 54.701,31.208 9.669,17.871 -20.207,40.307 -23.572,42.409"
             style="fill:#a9cdff;fill-opacity:1;fill-rule:nonzero;stroke:none"
             id="path432" /></g><g
           id="g434"
           transform="translate(550.876,393.0146)"><path
             d="m 0,0 c 0,-32.062 -25.991,-58.053 -58.055,-58.053 -32.061,0 -58.052,25.991 -58.052,58.053 0,32.063 25.991,58.053 58.052,58.053 C -25.991,58.053 0,32.063 0,0"
             style="fill:#ffffff;fill-opacity:1;fill-rule:nonzero;stroke:none"
             id="path436" /></g><g
           id="g438"
           transform="translate(550.876,393.0146)"><path
             d="m 0,0 c 0,-32.062 -25.991,-58.053 -58.055,-58.053 -32.061,0 -58.052,25.991 -58.052,58.053 0,32.063 25.991,58.053 58.052,58.053 C -25.991,58.053 0,32.063 0,0 Z"
             style="fill:none;stroke:#543dd8;stroke-width:1;stroke-linecap:butt;stroke-linejoin:miter;stroke-miterlimit:10;stroke-dasharray:none;stroke-opacity:1"
             id="path440" /></g><g
           id="g442"
           transform="translate(492.8213,393.0146)"><path
             d="M 0,0 V 45.012"
             style="fill:none;stroke:#543dd8;stroke-width:1;stroke-linecap:butt;stroke-linejoin:miter;stroke-miterlimit:10;stroke-dasharray:none;stroke-opacity:1"
             id="path444" /></g><g
           id="g446"
           transform="translate(492.8213,393.0146)"><path
             d="M 0,0 H 24.4"
             style="fill:none;stroke:#543dd8;stroke-width:1;stroke-linecap:butt;stroke-linejoin:miter;stroke-miterlimit:10;stroke-dasharray:none;stroke-opacity:1"
             id="path448" /></g><g
           id="g450"
           transform="translate(554.0166,150.7354)"><path
             d="M 0,0 C 0,0.487 -0.395,0.884 -0.883,0.884 H -23.636 C -24.124,0.884 -24.52,0.487 -24.52,0 v -15.685 c 0,-0.486 0.396,-0.882 0.884,-0.882 h 22.753 c 0.488,0 0.883,0.396 0.883,0.882 z"
             style="fill:none;stroke:#543dd8;stroke-width:1;stroke-linecap:butt;stroke-linejoin:miter;stroke-miterlimit:10;stroke-dasharray:none;stroke-opacity:1"
             id="path452" /></g><g
           id="g454"
           transform="translate(587.1533,150.7354)"><path
             d="m 0,0 c 0,0.487 -0.396,0.884 -0.884,0.884 h -22.753 c -0.488,0 -0.884,-0.397 -0.884,-0.884 v -15.685 c 0,-0.486 0.396,-0.882 0.884,-0.882 h 22.753 c 0.488,0 0.884,0.396 0.884,0.882 z"
             style="fill:none;stroke:#543dd8;stroke-width:1;stroke-linecap:butt;stroke-linejoin:miter;stroke-miterlimit:10;stroke-dasharray:none;stroke-opacity:1"
             id="path456" /></g><g
           id="g458"
           transform="translate(431.416,150.7354)"><path
             d="M 0,0 C 0,0.487 -0.396,0.884 -0.884,0.884 H -23.637 C -24.125,0.884 -24.52,0.487 -24.52,0 v -15.685 c 0,-0.486 0.395,-0.882 0.883,-0.882 h 22.753 c 0.488,0 0.884,0.396 0.884,0.882 z"
             style="fill:none;stroke:#543dd8;stroke-width:1;stroke-linecap:butt;stroke-linejoin:miter;stroke-miterlimit:10;stroke-dasharray:none;stroke-opacity:1"
             id="path460" /></g><g
           id="g462"
           transform="translate(492.165,150.7354)"><path
             d="m 0,0 c 0,0.487 -0.396,0.884 -0.885,0.884 h -22.752 c -0.489,0 -0.884,-0.397 -0.884,-0.884 v -15.685 c 0,-0.486 0.395,-0.882 0.884,-0.882 h 22.752 c 0.489,0 0.885,0.396 0.885,0.882 z"
             style="fill:none;stroke:#543dd8;stroke-width:1;stroke-linecap:butt;stroke-linejoin:miter;stroke-miterlimit:10;stroke-dasharray:none;stroke-opacity:1"
             id="path464" /></g><g
           id="g466"
           transform="translate(522.4277,150.7354)"><path
             d="M 0,0 C 0,0.487 -0.396,0.884 -0.883,0.884 H -23.637 C -24.125,0.884 -24.52,0.487 -24.52,0 v -15.685 c 0,-0.486 0.395,-0.882 0.883,-0.882 h 22.754 c 0.487,0 0.883,0.396 0.883,0.882 z"
             style="fill:none;stroke:#543dd8;stroke-width:1;stroke-linecap:butt;stroke-linejoin:miter;stroke-miterlimit:10;stroke-dasharray:none;stroke-opacity:1"
             id="path468" /></g><g
           id="g470"
           transform="translate(462.3418,146.0967)"><path
             d="m 0,0 c 0,0.487 -0.394,0.884 -0.883,0.884 h -23.416 c -0.488,0 -0.883,-0.397 -0.883,-0.884 v -11.046 c 0,-0.486 0.395,-0.883 0.883,-0.883 h 23.416 c 0.489,0 0.883,0.397 0.883,0.883 z"
             style="fill:none;stroke:#543dd8;stroke-width:1;stroke-linecap:butt;stroke-linejoin:miter;stroke-miterlimit:10;stroke-dasharray:none;stroke-opacity:1"
             id="path472" /></g><g
           id="g474"
           transform="translate(324.7935,121.7227)"><path
             d="m 0,0 10.604,16.789 c 0,0 1.472,3.058 7.215,2.945 5.743,-0.109 246.971,0.002 246.971,0.002 V 0 Z"
             style="fill:#251b2d;fill-opacity:1;fill-rule:nonzero;stroke:none"
             id="path476" /></g><g
           id="g478"
           transform="translate(399.8267,150.7354)"><path
             d="m 0,0 c 0,0.487 -0.396,0.884 -0.884,0.884 h -38.658 c -0.487,0 -0.883,-0.397 -0.883,-0.884 v -19.439 c 0,-0.488 0.396,-0.884 0.883,-0.884 h 38.658 c 0.488,0 0.884,0.396 0.884,0.884 z"
             style="fill:#dc3c31;fill-opacity:1;fill-rule:nonzero;stroke:none"
             id="path480" /></g><g
           id="g482"
           transform="translate(13.6748,154.6055)"><path
             d="M 0,0 H 857.446"
             style="fill:none;stroke:#543dd8;stroke-width:2;stroke-linecap:butt;stroke-linejoin:miter;stroke-miterlimit:10;stroke-dasharray:none;stroke-opacity:1"
             id="path484" /></g><g
           id="g486"
           transform="translate(457.5229,246.8174)"><path
             d="m 0,0 8.556,1.223 c 0,0 7.845,9.372 20.883,10.288 C 42.478,12.428 61.476,9.5 61.476,9.5 c 0,0 2.444,-5.884 -4.584,-8.022 0,0 9.703,-1.07 15.509,-2.521 5.807,-1.452 8.366,-2.979 8.328,-5.807 -0.038,-2.827 -3.019,-3.552 -3.019,-3.552 0,0 8.137,-0.994 8.366,-4.393 0.229,-3.399 -3.323,-5.54 -10.39,-4.584 0,0 2.941,-3.247 0.076,-5.616 -2.864,-2.368 -14.324,-0.725 -14.324,-0.725 0,0 8.951,-3.007 7.627,-6.673 -1.324,-3.668 -8.505,-1.935 -12.988,-0.864 -4.483,1.068 -16.756,0.66 -24.092,0.507 -7.333,-0.152 -17.036,1.146 -17.036,1.146 l -24.372,-6.494 z"
             style="fill:#ff735e;fill-opacity:1;fill-rule:nonzero;stroke:none"
             id="path488" /></g><g
           id="g490"
           transform="translate(476.3926,226.7969)"><path
             d="M 0,0 C -6.235,0 -9.84,4.437 -9.892,4.501 L -9.411,4.88 C -9.126,4.519 -2.256,-3.89 9.278,3.8 20.964,11.589 23.339,20.642 23.362,20.731 l 0.058,0.233 h 0.239 c 0.084,0 8.488,0.009 14.32,0.837 l 0.086,-0.606 C 32.734,20.438 25.285,20.362 23.889,20.354 23.431,18.869 20.452,10.513 9.618,3.29 5.961,0.852 2.728,0 0,0"
             style="fill:#ffffff;fill-opacity:1;fill-rule:nonzero;stroke:none"
             id="path492" /></g><g
           id="g494"
           transform="translate(502.8184,220.5996)"><path
             d="M 0,0 -0.542,0.281 C 4.44,9.947 1.399,22.252 1.368,22.375 L 1.96,22.524 C 1.992,22.399 5.087,9.873 0,0"
             style="fill:#ffffff;fill-opacity:1;fill-rule:nonzero;stroke:none"
             id="path496" /></g><g
           id="g498"
           transform="translate(515.002,221.6582)"><path
             d="m 0,0 -11.513,0.926 0.05,0.608 11.512,-0.925 z"
             style="fill:#ffffff;fill-opacity:1;fill-rule:nonzero;stroke:none"
             id="path500" /></g><g
           id="g502"
           transform="translate(533.1113,227.1484)"><path
             d="m 0,0 c -6.375,2.175 -27.453,2.503 -27.664,2.505 l 0.007,0.612 C -26.786,3.104 -6.269,2.785 0.195,0.579 Z"
             style="fill:#ffffff;fill-opacity:1;fill-rule:nonzero;stroke:none"
             id="path504" /></g><g
           id="g506"
           transform="translate(535.1865,236.1123)"><path
             d="m 0,0 c -0.143,0.024 -14.604,2.239 -29.933,1.839 l -0.015,0.61 C -14.571,2.849 -0.05,0.627 0.095,0.605 Z"
             style="fill:#ffffff;fill-opacity:1;fill-rule:nonzero;stroke:none"
             id="path508" /></g><g
           id="g510"
           transform="translate(512.1221,257.2158)"><path
             d="m 0,0 c 0,0 0.421,-2.427 3.21,-2.541 2.788,-0.114 3.042,1.736 3.042,1.736 0,0 -4.537,0.826 -6.252,0.805"
             style="fill:#fefbfc;fill-opacity:1;fill-rule:nonzero;stroke:none"
             id="path512" /></g><g
           id="g514"
           transform="translate(472.3379,214.9385)"><path
             d="m 0,0 c -0.185,0.089 -4.571,2.255 -6.196,7.865 l 0.588,0.17 C -4.063,2.695 0.223,0.572 0.266,0.551 Z"
             style="fill:#ffffff;fill-opacity:1;fill-rule:nonzero;stroke:none"
             id="path516" /></g><g
           id="g518"
           transform="translate(463.9912,241.3242)"><path
             d="m 0,0 -0.611,0.038 c 0.31,4.724 2.397,6.812 2.486,6.896 L 2.301,6.499 C 2.282,6.477 0.292,4.469 0,0"
             style="fill:#ffffff;fill-opacity:1;fill-rule:nonzero;stroke:none"
             id="path520" /></g><g
           id="g522"
           transform="translate(452.5166,260.1123)"><path
             d="m 0,0 c -27.98,-5.088 -27.98,-5.088 -55.963,-10.176 -6.532,-1.188 -13.063,-2.376 -19.595,-3.563 -9.804,30.871 -19.588,61.749 -29.234,92.669 -1.485,4.763 -3.585,9.721 -4.463,14.65 0.131,-0.975 0.262,-1.948 0.393,-2.922 -1.067,5.906 -3.216,11.084 -7.827,15.697 -5.396,5.395 -12.802,8.464 -20.436,8.464 -14.634,0 -30.386,-13.189 -28.903,-28.902 0.714,-7.551 2.94,-14.142 5.179,-21.333 3.375,-10.834 6.786,-21.656 10.198,-32.478 7.552,-23.949 15.136,-47.889 22.729,-71.826 1.543,-4.86 3.084,-9.72 4.628,-14.582 2.31,-7.271 6.613,-13.365 13.282,-17.273 7.151,-4.188 14.359,-4.351 22.27,-2.913 l 115.724,10.687 z"
             style="fill:#788bf1;fill-opacity:1;fill-rule:nonzero;stroke:none"
             id="path524" /></g><g
           id="g526"
           transform="translate(337.0527,351.8594)"><path
             d="M 0,0 C 0,0 12.989,-45.142 4.655,-63.033 -3.68,-80.925 -13.644,-82.025 -13.644,-82.025 l -7.89,-20.81 -2.474,7.813 -2.792,9.418 c 0,0 -2.543,41.838 -3.198,42.665 C -30.654,-42.114 -3.49,3.3 -3.49,3.3 Z"
             style="fill:#403a3d;fill-opacity:1;fill-rule:nonzero;stroke:none"
             id="path528" /></g><g
           id="g530"
           transform="translate(317.6938,396.4438)"><path
             d="m 0,0 c 5.475,-1.015 11.17,0.653 15.964,3.479 15.949,9.4 21.757,32.396 12.615,48.491 -9.146,16.094 -31.397,22.954 -48.225,15.247 -16.838,-7.699 -26.196,-28.558 -21.252,-46.399 1.21,-4.374 3.242,-8.639 6.53,-11.767 6.426,-6.103 16.435,-6.754 25.057,-4.702"
             style="fill:#251b2d;fill-opacity:1;fill-rule:nonzero;stroke:none"
             id="path532" /></g><g
           id="g534"
           transform="translate(316.9956,366.5859)"><path
             d="m 0,0 2.059,25.616 c 0,0 18.446,-6.452 20.667,10.032 3.874,28.724 6.58,36.288 -4.06,46.588 -10.638,10.3 -42.455,1.559 -43.769,-22.735 L -37.572,-2.065 c 0,0 8.132,-7.856 16.928,-9.91 C -11.424,-14.128 0,0 0,0"
             style="fill:#ff735e;fill-opacity:1;fill-rule:nonzero;stroke:none"
             id="path536" /></g><g
           id="g538"
           transform="translate(321.4395,423.3091)"><path
             d="m 0,0 c -0.253,-1.134 -0.043,-2.148 0.47,-2.258 0.513,-0.114 1.135,0.72 1.39,1.857 C 2.118,0.733 1.904,1.746 1.388,1.858 0.876,1.971 0.252,1.138 0,0"
             style="fill:#251b2d;fill-opacity:1;fill-rule:nonzero;stroke:none"
             id="path540" /></g><g
           id="g542"
           transform="translate(336.1216,420.2178)"><path
             d="M 0,0 C -0.252,-1.136 -0.041,-2.147 0.471,-2.261 0.986,-2.372 1.609,-1.542 1.864,-0.403 2.115,0.733 1.903,1.747 1.391,1.858 0.877,1.968 0.255,1.135 0,0"
             style="fill:#251b2d;fill-opacity:1;fill-rule:nonzero;stroke:none"
             id="path544" /></g><g
           id="g546"><g
             id="g548" /><g
             id="g560"><g
               clip-path="url(#clipPath552)"
               id="g558"><g
                 transform="translate(336.6128,411.9858)"
                 id="g556"><path
                   d="M 0,0 C 0.851,2.798 2.848,4.93 5.326,6.11 4.718,1.634 3.949,-3.539 3.108,-9.751 3.084,-9.954 3.022,-10.116 2.991,-10.316 0.14,-7.809 -1.169,-3.837 0,0"
                   style="fill:#0f0f0f;fill-opacity:1;fill-rule:nonzero;stroke:none"
                   id="path554" /></g></g></g></g><g
           id="g562"
           transform="translate(322.3105,432.4922)"><path
             d="M 0,0 C -0.079,-0.787 0.984,-1.541 2.383,-1.691 3.78,-1.832 4.984,-1.316 5.064,-0.528 5.149,0.256 4.081,1.013 2.688,1.157 1.288,1.302 0.087,0.782 0,0"
             style="fill:#251b2d;fill-opacity:1;fill-rule:nonzero;stroke:none"
             id="path564" /></g><g
           id="g566"
           transform="translate(336.9531,429.6812)"><path
             d="M 0,0 C -0.451,-0.651 0.121,-1.815 1.278,-2.597 2.439,-3.379 3.746,-3.485 4.204,-2.833 4.659,-2.186 4.084,-1.021 2.926,-0.239 1.767,0.542 0.458,0.651 0,0"
             style="fill:#251b2d;fill-opacity:1;fill-rule:nonzero;stroke:none"
             id="path568" /></g><g
           id="g570"><g
             id="g572" /><g
             id="g584"><g
               clip-path="url(#clipPath576)"
               id="g582"><g
                 transform="translate(332.314,416.1489)"
                 id="g580"><path
                   d="M 0,0 C 0.849,2.887 1.54,6.51 1.707,9.215 1.793,10.613 0.889,11.244 -0.313,11.46 -2.049,11.773 -2.461,10.918 -2.9,9.759 -3.499,8.153 -3.955,6.494 -4.375,4.83 -4.734,3.415 -5.431,1.606 -5.312,0.138 c 0.107,-1.337 1.928,-1.96 3.046,-2.006 1.166,-0.053 1.975,0.684 2.265,1.832"
                   style="fill:#0f0f0f;fill-opacity:1;fill-rule:nonzero;stroke:none"
                   id="path578" /></g></g></g></g><g
           id="g586"
           transform="translate(327.2373,411.8716)"><path
             d="M 0,0 C -1.26,0.656 -1.755,1.919 -2.927,1.904 -3.621,1.896 -4.266,1.469 -4.536,0.843 c -0.268,-0.626 -0.211,-1.364 0.03,-2.016 0.463,-1.246 1.494,-2.302 2.725,-2.834 3.241,-1.411 5.149,0.025 5.582,1.076 C 4.103,-2.197 3.83,-1.295 3.127,-0.82 2.44,-0.361 0.896,-0.463 0,0"
             style="fill:#ffffff;fill-opacity:1;fill-rule:nonzero;stroke:none"
             id="path588" /></g><g
           id="g590"
           transform="translate(323.6533,411.6851)"><path
             d="M 0,0 C -0.383,0 -0.75,-0.064 -1.105,-0.157 -1.078,-0.438 -1.02,-0.72 -0.922,-0.986 -0.459,-2.233 0.572,-3.289 1.803,-3.821 2.799,-4.254 3.668,-4.417 4.409,-4.407 4.407,-1.973 2.434,0 0,0"
             style="fill:#ef4136;fill-opacity:1;fill-rule:nonzero;stroke:none"
             id="path592" /></g><g
           id="g594"><g
             id="g596" /><g
             id="g608"><g
               clip-path="url(#clipPath600)"
               id="g606"><g
                 transform="translate(299.7476,419.8774)"
                 id="g604"><path
                   d="m 0,0 c 1.552,5.09 7,7.979 12.179,6.453 5.179,-1.525 8.12,-6.89 6.573,-11.98 -1.546,-5.09 -7,-7.979 -12.179,-6.454 C 1.396,-10.456 -1.546,-5.092 0,0"
                   style="fill:#0f0f0f;fill-opacity:1;fill-rule:nonzero;stroke:none"
                   id="path602" /></g></g></g></g><g
           id="g610"
           transform="translate(290.8501,430.2656)"><path
             d="M 0,0 C 0,0 34.678,3.094 47.664,23.219 47.664,23.219 -0.24,48.507 0,0"
             style="fill:#251b2d;fill-opacity:1;fill-rule:nonzero;stroke:none"
             id="path612" /></g><g
           id="g614"
           transform="translate(282.2705,424.7407)"><path
             d="M 0,0 C 1.41,4.638 6.381,7.276 11.102,5.884 15.825,4.491 18.509,-0.398 17.098,-5.041 15.685,-9.681 10.715,-12.318 5.992,-10.925 1.273,-9.535 -1.414,-4.644 0,0"
             style="fill:#ff735e;fill-opacity:1;fill-rule:nonzero;stroke:none"
             id="path616" /></g><g
           id="g618"
           transform="translate(289.856,425.9692)"><path
             d="M 0,0 C 2.669,-0.366 4.682,-2.943 4.156,-5.637 4.08,-6.018 4.666,-6.171 4.742,-5.787 5.327,-2.799 3.163,0.174 0.151,0.586 -0.231,0.638 -0.387,0.052 0,0"
             style="fill:#251b2d;fill-opacity:1;fill-rule:nonzero;stroke:none"
             id="path620" /></g><g
           id="g622"
           transform="translate(320.0552,433.0103)"><path
             d="m 0,0 c -0.169,0.018 -0.342,0.037 -0.511,0.045 -2.396,0.149 -4.713,-0.648 -6.513,-2.237 -1.804,-1.592 -2.877,-3.79 -3.023,-6.19 -0.306,-4.933 3.427,-9.218 8.428,-9.538 4.954,-0.306 9.231,3.474 9.537,8.433 C 8.212,-4.729 4.735,-0.559 0,0 m -2.217,-18.62 c -5.127,0.608 -8.896,5.124 -8.576,10.281 0.155,2.599 1.319,4.982 3.273,6.706 1.947,1.727 4.456,2.585 7.055,2.425 5.42,-0.324 9.459,-4.985 9.133,-10.326 -0.331,-5.368 -4.967,-9.465 -10.33,-9.132 -0.188,0.008 -0.374,0.025 -0.555,0.046"
             style="fill:#ffffff;fill-opacity:1;fill-rule:nonzero;stroke:none"
             id="path624" /></g><g
           id="g626"
           transform="translate(343.6294,428.4863)"><path
             d="m 0,0 c -0.165,0.02 -0.339,0.035 -0.515,0.044 -4.947,0.306 -9.227,-3.475 -9.533,-8.428 -0.304,-4.932 3.443,-9.227 8.43,-9.538 2.403,-0.148 4.716,0.648 6.517,2.241 1.8,1.592 2.871,3.789 3.023,6.19 C 8.211,-4.729 4.733,-0.561 0,0 m -2.216,-18.617 c -5.13,0.605 -8.898,5.12 -8.578,10.278 0.329,5.365 4.961,9.46 10.331,9.132 5.409,-0.328 9.458,-4.988 9.13,-10.33 -0.159,-2.598 -1.32,-4.982 -3.274,-6.706 -1.952,-1.726 -4.462,-2.588 -7.059,-2.427 -0.182,0.013 -0.37,0.029 -0.55,0.053"
             style="fill:#ffffff;fill-opacity:1;fill-rule:nonzero;stroke:none"
             id="path628" /></g><g
           id="g630"
           transform="translate(328.1655,421.9771)"><path
             d="M 0,0 0.022,0.749 5.397,0.307 5.371,-0.443 Z"
             style="fill:#ffffff;fill-opacity:1;fill-rule:nonzero;stroke:none"
             id="path632" /></g><g
           id="g634"
           transform="translate(310.5498,427.9238)"><path
             d="M 0,0 -17.412,3.111 -17.278,3.846 0.134,0.738 Z"
             style="fill:#ffffff;fill-opacity:1;fill-rule:nonzero;stroke:none"
             id="path636" /></g><g
           id="g638"
           transform="translate(319.0542,392.2017)"><path
             d="m 0,0 c 0,0 -7.511,2.957 -12,9.006 0,0 2.769,-10.392 11.554,-16.712 0,0 1.397,4.764 0.446,7.706"
             style="fill:#251b2d;fill-opacity:1;fill-rule:nonzero;stroke:none"
             id="path640" /></g><g
           id="g642"
           transform="translate(318.208,381.6685)"><path
             d="m 0,0 c -10.482,3.73 -25.062,8.629 -33.026,11.286 l -4.673,-23.071 c 3.898,-5.079 10.419,-9.842 11.653,-11.968 0.805,-1.388 5.406,-2.238 10.242,-2.756 7.511,2.675 14.592,11.426 14.592,11.426 z"
             style="fill:#f2f2f2;fill-opacity:1;fill-rule:nonzero;stroke:none"
             id="path644" /></g><g
           id="g646"
           transform="translate(297.5903,381.5869)"><path
             d="m 0,0 c 0,0 -52.574,26.424 -64.685,7.708 -12.111,-18.718 -60.007,-202.589 -60.007,-202.589 H -4.68 l 23.121,93.588 c 0,0 22.022,-3.098 24.498,19.611 2.478,22.709 1.239,60.9 -5.573,67.3 C 30.554,-7.982 0,0 0,0"
             style="fill:#788bf1;fill-opacity:1;fill-rule:nonzero;stroke:none"
             id="path648" /></g><g
           id="g650"
           transform="translate(316.0317,280.2939)"><path
             d="M 0,0 -66.336,20.574"
             style="fill:none;stroke:#fff8f8;stroke-width:1;stroke-linecap:butt;stroke-linejoin:miter;stroke-miterlimit:10;stroke-dasharray:none;stroke-opacity:1"
             id="path652" /></g><g
           id="g654"
           transform="translate(251.8125,328.7441)"><path
             d="m 0,0 c 0,0 -10.375,-14.526 -11.819,-27.876 -1.445,-13.349 1.444,-22.639 -11.148,-31.103 -12.593,-8.465 -9.833,-28.412 -9.833,-28.412 l -28.189,-6.407 z"
             style="fill:#403a3d;fill-opacity:1;fill-rule:nonzero;stroke:none"
             id="path656" /></g><g
           id="g658"
           transform="translate(158.8457,186.7061)"><path
             d="M 0,0 -21.454,-32.418 H 252.7 l -40.462,56.64 c 0,0 -13.763,25.323 -55.052,12.663 z"
             style="fill:#dc3c31;fill-opacity:1;fill-rule:nonzero;stroke:none"
             id="path660" /></g><g
           id="g662"
           transform="translate(311.4678,480.2446)"><path
             d="m 0,0 c 0,-15.865 -12.86,-28.725 -28.726,-28.725 -15.863,0 -28.724,12.86 -28.724,28.725 0,15.864 12.861,28.726 28.724,28.726 C -12.86,28.726 0,15.864 0,0"
             style="fill:#251b2d;fill-opacity:1;fill-rule:nonzero;stroke:none"
             id="path664" /></g><g
           id="g666"
           transform="translate(308.1431,466.8252)"><path
             d="M 0,0 C 0,0 -16.608,-3.625 -24.315,-14.498"
             style="fill:none;stroke:#fff8f8;stroke-width:2;stroke-linecap:butt;stroke-linejoin:miter;stroke-miterlimit:10;stroke-dasharray:none;stroke-opacity:1"
             id="path668" /></g><g
           id="g670"
           transform="translate(293.1382,495.8179)"><path
             d="M 0,0 C 0,0 -14.334,-7.844 -13.715,-40.462"
             style="fill:none;stroke:#fff8f8;stroke-width:2;stroke-linecap:butt;stroke-linejoin:miter;stroke-miterlimit:10;stroke-dasharray:none;stroke-opacity:1"
             id="path672" /></g><g
           id="g674"
           transform="translate(305.2495,247.458)"><path
             d="m 0,0 32.029,0.499 c 0,0 0.504,-14.598 -13.739,-12.478 C 4.048,-9.858 0,0 0,0"
             style="fill:#ce7602;fill-opacity:1;fill-rule:nonzero;stroke:none"
             id="path676" /></g><g
           id="g678"
           transform="translate(328.4541,247.8203)"><path
             d="M 0,0 C 0,0 3.137,-4.388 6.714,0.104 Z"
             style="fill:#f4f4f4;fill-opacity:1;fill-rule:nonzero;stroke:none"
             id="path680" /></g><g
           id="g682"
           transform="translate(321.4111,251.7295)"><path
             d="m 0,0 -2.874,-39.836 c -0.647,-5.16 3.342,-7.234 8.503,-7.883 l 12.038,-1.51 c 5.159,-0.647 9.537,0.377 10.185,5.536 l 7.86,39.21 z"
             style="fill:#1a2042;fill-opacity:1;fill-rule:nonzero;stroke:none"
             id="path684" /></g><g
           id="g686"
           transform="translate(356.6436,244.8506)"><path
             d="M 0,0 0.479,2.396 -35.232,6.879 -35.408,4.444 Z"
             style="fill:#0d1533;fill-opacity:1;fill-rule:nonzero;stroke:none"
             id="path688" /></g><g
           id="g690"
           transform="translate(354.1504,250.3652)"><path
             d="m 0,0 0.003,0.034 c 0.648,5.161 -3.01,9.868 -8.169,10.517 l -10.4,1.304 c -5.16,0.647 -9.869,-3.01 -10.517,-8.171 L -29.086,3.65 Z"
             style="fill:#405096;fill-opacity:1;fill-rule:nonzero;stroke:none"
             id="path692" /></g><g
           id="g694"
           transform="translate(353.8794,248.209)"><path
             d="M 0,0 0.274,2.19 C 0.479,3.814 0.255,5.394 -0.308,6.816 L -27.103,10.18 C -28,8.939 -28.607,7.466 -28.812,5.84 l -0.274,-2.19 z"
             style="fill:#1a2042;fill-opacity:1;fill-rule:nonzero;stroke:none"
             id="path696" /></g><g
           id="g698"
           transform="translate(360.5322,246.0439)"><path
             d="m 0,0 0.112,0.89 c 0.399,3.188 -1.861,6.097 -5.05,6.497 l -31.172,3.912 c -3.188,0.4 -6.098,-1.861 -6.498,-5.048 l -0.113,-0.889 z"
             style="fill:#405096;fill-opacity:1;fill-rule:nonzero;stroke:none"
             id="path700" /></g><g
           id="g702"
           transform="translate(319.4414,246.6963)"><path
             d="m 0,0 c -16.006,6.006 -54.796,-0.63 -77.594,-8.313 4.291,-17.943 8.436,-35.921 12.709,-53.869 22.792,9.335 44.772,23.023 44.772,23.023 0,0 4.259,-4.606 10.391,-6.555 6.134,-1.947 9.758,1.252 10.01,3.646 0,0 7.7,-2.912 10.627,-0.146 2.926,2.765 1.401,5.296 1.401,5.296 0,0 5.731,-2.101 8.373,0.042 2.644,2.142 1.665,5.509 1.665,5.509 0,0 3.886,-1.93 5.818,1.957 C 30.102,-25.525 16.988,-6.375 0,0"
             style="fill:#ff735e;fill-opacity:1;fill-rule:nonzero;stroke:none"
             id="path704" /></g><g
           id="g706"
           transform="translate(291.6045,231.2617)"><path
             d="m 0,0 c -2.604,-5.74 -9.368,-8.281 -15.107,-5.677 -5.739,2.605 -8.28,9.368 -5.675,15.11 2.604,5.738 9.368,8.278 15.107,5.672 C 0.064,12.5 2.604,5.738 0,0"
             style="fill:#1e1f39;fill-opacity:1;fill-rule:nonzero;stroke:none"
             id="path708" /></g><g
           id="g710"
           transform="translate(289.6641,232.1416)"><path
             d="m 0,0 c -2.118,-4.668 -7.619,-6.734 -12.286,-4.617 -4.668,2.119 -6.734,7.621 -4.616,12.289 2.119,4.667 7.619,6.733 12.287,4.614 C 0.054,10.167 2.12,4.667 0,0"
             style="fill:#f5bb9e;fill-opacity:1;fill-rule:nonzero;stroke:none"
             id="path712" /></g><g
           id="g714"
           transform="translate(281.5596,235.8203)"><path
             d="M 0,0 C 1.006,2.216 2.012,4.432 3.019,6.649 3.221,7.097 2.528,7.411 2.326,6.964 1.319,4.746 0.313,2.53 -0.693,0.314 -0.896,-0.133 -0.202,-0.447 0,0"
             style="fill:#000000;fill-opacity:1;fill-rule:nonzero;stroke:none"
             id="path716" /></g><g
           id="g718"
           transform="translate(281.0562,235.6309)"><path
             d="m 0,0 c 1.455,-0.66 2.91,-1.321 4.365,-1.98 0.446,-0.203 0.76,0.488 0.314,0.691 C 3.225,-0.628 1.769,0.031 0.314,0.692 -0.132,0.895 -0.447,0.203 0,0"
             style="fill:#000000;fill-opacity:1;fill-rule:nonzero;stroke:none"
             id="path720" /></g><g
           id="g722"
           transform="translate(281.9062,235.6621)"><path
             d="M 0,0 C -0.173,-0.382 -0.625,-0.552 -1.007,-0.377 -1.39,-0.204 -1.559,0.247 -1.385,0.63 -1.211,1.012 -0.761,1.183 -0.378,1.009 0.004,0.835 0.173,0.383 0,0"
             style="fill:#1e1f39;fill-opacity:1;fill-rule:nonzero;stroke:none"
             id="path724" /></g><g
           id="g726"
           transform="translate(287.1807,226.668)"><path
             d="m 0,0 c 0,0 0.369,-10.108 7.668,-21.822 l -9.127,-5.197 c 0,0 -5.99,9.381 -8.52,25.649 z"
             style="fill:#1e1f39;fill-opacity:1;fill-rule:nonzero;stroke:none"
             id="path728" /></g><g
           id="g730"
           transform="translate(319.7295,204.6279)"><path
             d="M 0,0 C 0,0 -9.485,5.056 -12.472,9.336"
             style="fill:#fd9d09;fill-opacity:1;fill-rule:nonzero;stroke:none"
             id="path732" /></g><g
           id="g734"
           transform="translate(319.624,204.4326)"><path
             d="m 0,0 c -0.389,0.206 -9.566,5.131 -12.547,9.404 l 0.362,0.255 C -9.264,5.471 0.114,0.44 0.208,0.39 Z"
             style="fill:#ffffff;fill-opacity:1;fill-rule:nonzero;stroke:none"
             id="path736" /></g><g
           id="g738"
           transform="translate(331.7573,209.7783)"><path
             d="M 0,0 C 0,0 -9.882,6.574 -13.751,13.509"
             style="fill:#fd9d09;fill-opacity:1;fill-rule:nonzero;stroke:none"
             id="path740" /></g><g
           id="g742"
           transform="translate(331.6353,209.5937)"><path
             d="m 0,0 c -0.1,0.065 -9.971,6.683 -13.824,13.586 l 0.389,0.216 C -9.637,6.992 0.147,0.434 0.245,0.369 Z"
             style="fill:#ffffff;fill-opacity:1;fill-rule:nonzero;stroke:none"
             id="path744" /></g><g
           id="g746"
           transform="translate(341.7959,215.3291)"><path
             d="M 0,0 C 0,0 -10.778,6.563 -13.636,12.539"
             style="fill:#fd9d09;fill-opacity:1;fill-rule:nonzero;stroke:none"
             id="path748" /></g><g
           id="g750"
           transform="translate(341.6812,215.1406)"><path
             d="m 0,0 c -0.443,0.271 -10.867,6.667 -13.72,12.633 l 0.399,0.19 C -10.525,6.976 0.124,0.444 0.23,0.378 Z"
             style="fill:#ffffff;fill-opacity:1;fill-rule:nonzero;stroke:none"
             id="path752" /></g><g
           id="g754"
           transform="translate(299.3281,207.5371)"><path
             d="M 0,0 C 0,0 -4.674,2.957 -5.627,10.24"
             style="fill:#fd9d09;fill-opacity:1;fill-rule:nonzero;stroke:none"
             id="path756" /></g><g
           id="g758"
           transform="translate(299.2095,207.3496)"><path
             d="m 0,0 c -0.047,0.03 -4.771,3.096 -5.729,10.399 l 0.439,0.057 C -4.36,3.371 0.191,0.405 0.237,0.374 Z"
             style="fill:#ffffff;fill-opacity:1;fill-rule:nonzero;stroke:none"
             id="path760" /></g><g
           id="g762"
           transform="translate(267.8628,345.8037)"><path
             d="m 0,0 c 0,0 11.286,25.911 0,38.692 -11.285,12.781 -35.271,22.415 -61.126,-13.093 -25.855,-35.508 -109.395,-197.22 -109.395,-197.22 l 199.539,7.792 -39.578,66.563 -62.097,-11.651 z"
             style="fill:#788bf1;fill-opacity:1;fill-rule:nonzero;stroke:none"
             id="path764" /></g><g
           id="g766"
           transform="translate(195.2056,236.8867)"><path
             d="M 0,0 -39.922,-13.491"
             style="fill:none;stroke:#fff8f8;stroke-width:1;stroke-linecap:butt;stroke-linejoin:miter;stroke-miterlimit:10;stroke-dasharray:none;stroke-opacity:1"
             id="path768" /></g><g
           id="g770"
           transform="translate(376.9585,246.373)"><path
             d="M 0,0 -8.077,-21.811"
             style="fill:none;stroke:#fff8f8;stroke-width:1;stroke-linecap:butt;stroke-linejoin:miter;stroke-miterlimit:10;stroke-dasharray:none;stroke-opacity:1"
             id="path772" /></g><g
           id="g774"
           transform="translate(376.9585,246.373)"><path
             d="M 0,0 6.487,-12.76"
             style="fill:none;stroke:#fff8f8;stroke-width:1;stroke-linecap:butt;stroke-linejoin:miter;stroke-miterlimit:10;stroke-dasharray:none;stroke-opacity:1"
             id="path776" /></g><g
           id="g778"
           transform="translate(292.1621,414.9224)"><path
             d="m 0,0 c 0,-1.398 -1.133,-2.531 -2.53,-2.531 -1.398,0 -2.532,1.133 -2.532,2.531 0,1.397 1.134,2.531 2.532,2.531 C -1.133,2.531 0,1.397 0,0"
             style="fill:#ddeded;fill-opacity:1;fill-rule:nonzero;stroke:none"
             id="path780" /></g><g
           id="g782"
           transform="translate(264.147,365.7598)"><path
             d="M 0,0 C 0,0 8.919,-20.081 -23.41,-60.618"
             style="fill:none;stroke:#fff8f8;stroke-width:1;stroke-linecap:butt;stroke-linejoin:miter;stroke-miterlimit:10;stroke-dasharray:none;stroke-opacity:1"
             id="path784" /></g><g
           id="g786"
           transform="translate(253.0059,243.124)"><path
             d="M 0,0 37.491,-57.821"
             style="fill:none;stroke:#fff8f8;stroke-width:1;stroke-linecap:butt;stroke-linejoin:miter;stroke-miterlimit:10;stroke-dasharray:none;stroke-opacity:1"
             id="path788" /></g><g
           id="g790"
           transform="translate(255.9414,232.875)"><path
             d="m 0,0 c 0,-2.279 -1.849,-4.129 -4.129,-4.129 -2.28,0 -4.128,1.85 -4.128,4.129 0,2.281 1.848,4.13 4.128,4.13 C -1.849,4.13 0,2.281 0,0 Z"
             style="fill:none;stroke:#fff8f8;stroke-width:1;stroke-linecap:butt;stroke-linejoin:miter;stroke-miterlimit:10;stroke-dasharray:none;stroke-opacity:1"
             id="path792" /></g><g
           id="g794"
           transform="translate(261.4658,220.6953)"><path
             d="m 0,0 c 0,-2.299 -1.864,-4.163 -4.163,-4.163 -2.298,0 -4.162,1.864 -4.162,4.163 0,2.3 1.864,4.162 4.162,4.162 C -1.864,4.162 0,2.3 0,0 Z"
             style="fill:none;stroke:#fff8f8;stroke-width:1;stroke-linecap:butt;stroke-linejoin:miter;stroke-miterlimit:10;stroke-dasharray:none;stroke-opacity:1"
             id="path796" /></g><g
           id="g798"
           transform="translate(448.0996,257.3877)"><path
             d="M 0,0 28.247,-57.738"
             style="fill:none;stroke:#fff8f8;stroke-width:1;stroke-linecap:butt;stroke-linejoin:miter;stroke-miterlimit:10;stroke-dasharray:none;stroke-opacity:1"
             id="path800" /></g><g
           id="g802"
           transform="translate(448.6265,249.0244)"><path
             d="m 0,0 c 0,-1.465 -1.187,-2.651 -2.651,-2.651 -1.465,0 -2.652,1.186 -2.652,2.651 0,1.465 1.187,2.651 2.652,2.651 C -1.187,2.651 0,1.465 0,0 Z"
             style="fill:none;stroke:#fff8f8;stroke-width:1;stroke-linecap:butt;stroke-linejoin:miter;stroke-miterlimit:10;stroke-dasharray:none;stroke-opacity:1"
             id="path804" /></g><g
           id="g806"
           transform="translate(453.6445,237.3604)"><path
             d="m 0,0 c 0,-2.069 -1.677,-3.747 -3.747,-3.747 -2.07,0 -3.748,1.678 -3.748,3.747 0,2.07 1.678,3.747 3.748,3.747 C -1.677,3.747 0,2.07 0,0 Z"
             style="fill:none;stroke:#fff8f8;stroke-width:1;stroke-linecap:butt;stroke-linejoin:miter;stroke-miterlimit:10;stroke-dasharray:none;stroke-opacity:1"
             id="path808" /></g><g
           id="g810"
           transform="translate(561.5127,309.2666)"><path
             d="m 0,0 c -7.736,0 -15.832,-6.29 -18.049,-14.028 l -43.877,-153.074 c -2.218,-7.738 2.271,-14.028 10.009,-14.028 h 253.978 c 7.735,0 15.83,6.29 18.048,14.028 l 43.875,153.074 C 266.204,-6.29 261.716,0 253.979,0 Z m 201.638,-182.608 h -253.98 c -8.549,0 -13.51,6.957 -11.06,15.506 l 43.877,153.074 c 2.451,8.551 11.4,15.506 19.95,15.506 h 253.977 c 8.547,0 13.513,-6.955 11.061,-15.506 l -43.877,-153.074 c -2.45,-8.549 -11.401,-15.506 -19.948,-15.506"
             style="fill:#2b3990;fill-opacity:1;fill-rule:nonzero;stroke:none"
             id="path812" /></g><g
           id="g814"
           transform="translate(771.2461,134.2988)"><path
             d="m 0,0 c -2.338,-8.156 -10.845,-14.767 -18.997,-14.767 h -253.981 c -8.154,0 -12.87,6.611 -10.533,14.767 l 43.877,153.076 c 2.337,8.153 10.844,14.766 18.999,14.766 h 253.98 c 8.152,0 12.869,-6.613 10.532,-14.766 z"
             style="fill:#98ccfe;fill-opacity:1;fill-rule:nonzero;stroke:none"
             id="path816" /></g><g
           id="g818"
           transform="translate(654.3984,226.3691)"><path
             d="M 0,0 C 0.612,2.132 1.674,4.143 3.032,5.953 1.918,6.297 0.694,6.494 -0.63,6.494 c -7.825,0 -15.979,-6.345 -18.223,-14.166 -2.241,-7.82 2.279,-14.158 10.104,-14.158 5.692,0 11.547,3.364 15.187,8.206 C 0.951,-11.955 -1.86,-6.496 0,0"
             style="fill:#ffffff;fill-opacity:1;fill-rule:nonzero;stroke:none"
             id="path820" /></g><g
           id="g822"
           transform="translate(655.0146,189.8574)"><path
             d="m 0,0 h -29.904 l 0.899,3.137 H 0.899 Z"
             style="fill:#4f6aff;fill-opacity:1;fill-rule:nonzero;stroke:none"
             id="path824" /></g><g
           id="g826"
           transform="translate(653.709,185.3027)"><path
             d="m 0,0 h -29.904 l 0.899,3.139 H 0.9 Z"
             style="fill:#4f6aff;fill-opacity:1;fill-rule:nonzero;stroke:none"
             id="path828" /></g><g
           id="g830"
           transform="translate(652.667,181.6709)"><path
             d="m 0,0 h -29.904 l 0.635,2.215 H 0.636 Z"
             style="fill:#4f6aff;fill-opacity:1;fill-rule:nonzero;stroke:none"
             id="path832" /></g><g
           id="g834"
           transform="translate(625.542,176.752)"><path
             d="m 0,0 c -2.302,0 -5.284,-1.792 -6.63,-3.982 l -43.314,-70.671 c -1.339,-2.184 -0.554,-3.98 1.747,-3.98 h 69.891 c 2.302,0 4.183,1.816 4.177,4.024 l -0.15,70.587 C 25.719,-1.811 23.831,0 21.531,0 Z"
             style="fill:#4f6aff;fill-opacity:1;fill-rule:nonzero;stroke:none"
             id="path836" /></g><g
           id="g838"
           transform="translate(634.6035,130.9775)"><path
             d="m 0,0 c -1.694,-5.912 -7.859,-10.706 -13.772,-10.706 -5.913,0 -9.332,4.794 -7.637,10.706 1.694,5.91 7.861,10.704 13.773,10.704 C -1.723,10.704 1.694,5.91 0,0"
             style="fill:#18004c;fill-opacity:1;fill-rule:nonzero;stroke:none"
             id="path840" /></g></g></g></g></svg>
