<?xml version="1.0" encoding="UTF-8" standalone="no"?>
<!-- Created with Inkscape (http://www.inkscape.org/) -->

<svg
   version="1.1"
   id="svg2"
   xml:space="preserve"
   width="4946.6665"
   height="4946.6665"
   viewBox="0 0 4946.6665 4946.6665"
   sodipodi:docname="1553a2f29b190a1fd7d7c3e4400272f5.eps"
   xmlns:inkscape="http://www.inkscape.org/namespaces/inkscape"
   xmlns:sodipodi="http://sodipodi.sourceforge.net/DTD/sodipodi-0.dtd"
   xmlns="http://www.w3.org/2000/svg"
   xmlns:svg="http://www.w3.org/2000/svg"><defs
     id="defs6"><clipPath
       clipPathUnits="userSpaceOnUse"
       id="clipPath22"><path
         d="m 19009.1,5186.4 c -1651.6,0 -2913.4,231 -3416.6,333.2 -1524.2,309.6 -4236.2,860.5 -6574.53,2780.8 H 28267.9 c -258,-209.4 -498,-381.6 -709.6,-533.4 C 24644.8,5676.5 21414,5186.4 19009.1,5186.4 M 6521.81,11285.1 c -2519.56,4486.8 -1742.95,10556.2 902.51,14727.3 547.48,863.3 3439.48,5654.4 9317.38,6422.8 583.4,76.2 1183.3,114.8 1790.7,114.8 3096.5,0 6405.7,-1000.2 8916.1,-3103.5 C 32558,25165.8 33230.6,17344.4 31044.8,12159 l 146.3,10105.5 c 0,230.6 -262,673 -743.7,673 -17.9,0 -36.1,-0.6 -54.7,-1.9 l -2966.7,76.8 -270.4,5310.8 c -35.8,702.7 -616,1254.2 -1319.7,1254.2 H 14304.1 c -494.1,58.6 -896.8,111 -1183.8,149.9 -20.1,2.7 -39.9,4 -59.4,4 -153.7,0 -291.2,-81.2 -368.7,-204.8 -639.9,-171.2 -1111,-755.1 -1111,-1449 v -4655.2 l -4196.68,108.6 c -9.48,0.3 -18.99,0.4 -28.45,0.4 -290.28,0 -569.18,-114.9 -775.21,-320.3 -212.75,-212 -329.17,-502 -322.07,-802.1 l 263.02,-11123.8"
         id="path20" /></clipPath><linearGradient
       x1="0"
       y1="0"
       x2="1"
       y2="0"
       gradientUnits="userSpaceOnUse"
       gradientTransform="matrix(-24348.4,30239.2,30239.2,24348.4,35763.3,-2889.8)"
       spreadMethod="pad"
       id="linearGradient30"><stop
         style="stop-opacity:1;stop-color:#dae3fe"
         offset="0"
         id="stop26" /><stop
         style="stop-opacity:1;stop-color:#e9effd"
         offset="1"
         id="stop28" /></linearGradient><clipPath
       clipPathUnits="userSpaceOnUse"
       id="clipPath112"><path
         d="M 30559.8,8300.4 H 7017.46 c -239.45,0 -435.36,195.7 -435.36,434.9 l -60.29,2549.8 -263.02,11123.8 c -7.1,300.1 109.32,590.1 322.07,802.1 206.03,205.4 484.93,320.3 775.21,320.3 9.46,0 18.97,-0.1 28.45,-0.4 l 4196.68,-108.6 V 22905 l -4106.19,110.1 c -6.88,0.2 -13.78,0.3 -20.64,0.3 -203.7,0 -399.37,-80.8 -543.99,-225.1 -149.49,-149.1 -231.72,-353.1 -226.41,-564.2 L 7011.91,9152.6 c 0,-226.5 185.35,-411.9 411.88,-411.9 h 4508.61 c 157.7,-124.9 357,-199.4 573.4,-199.4 5.7,0 11.4,0.1 17.1,0.2 l 10962.9,199.2 h 6506.3 c 226.5,0 411.9,185.4 411.9,411.9 l 184.8,12281.9 c -21.1,718.6 -634.4,989.7 -1029.4,989.7 -11.2,0 -22.3,-0.2 -33.1,-0.7 l -2073.2,55.6 -27.1,533.3 2966.7,-76.8 c 18.6,1.3 36.8,1.9 54.7,1.9 481.7,0 743.7,-442.4 743.7,-673 L 31044.8,12159 30995.2,8735.3 c 0,-239.2 -195.9,-434.9 -435.4,-434.9"
         id="path110" /></clipPath><linearGradient
       x1="0"
       y1="0"
       x2="1"
       y2="0"
       gradientUnits="userSpaceOnUse"
       gradientTransform="matrix(10573.2,17711.8,17711.8,-10573.2,14352.3,8516)"
       spreadMethod="pad"
       id="linearGradient120"><stop
         style="stop-opacity:1;stop-color:#09005d"
         offset="0"
         id="stop116" /><stop
         style="stop-opacity:1;stop-color:#1a0f91"
         offset="1"
         id="stop118" /></linearGradient><clipPath
       clipPathUnits="userSpaceOnUse"
       id="clipPath142"><path
         d="M 4728.78,7177.3 H 32371.2 c 31.1,0 56.6,25.4 56.6,56.5 v 1075.7 c 0,31.1 -25.5,56.5 -56.6,56.5 H 4728.77 c -31.09,0 -56.53,-25.4 -56.53,-56.5 V 7233.8 c 0,-31.1 25.44,-56.5 56.54,-56.5 z"
         id="path140" /></clipPath><linearGradient
       x1="0"
       y1="0"
       x2="1"
       y2="0"
       gradientUnits="userSpaceOnUse"
       gradientTransform="matrix(-1062.34,-7956.27,-7956.27,1062.34,19632,15875.1)"
       spreadMethod="pad"
       id="linearGradient150"><stop
         style="stop-opacity:1;stop-color:#09005d"
         offset="0"
         id="stop146" /><stop
         style="stop-opacity:1;stop-color:#1a0f91"
         offset="1"
         id="stop148" /></linearGradient><clipPath
       clipPathUnits="userSpaceOnUse"
       id="clipPath160"><path
         d="m 12505.8,8541.3 c -216.4,0 -415.7,74.5 -573.4,199.4 -213.8,169.3 -351.2,431.1 -351.2,725.5 v 13438.8 517.3 4655.2 c 0,693.9 471.1,1277.8 1111,1449 -42.2,-67.4 -66.6,-147.4 -66.1,-233.8 l 114.8,-19509.9 c 1.1,-187.2 142.4,-344 328.6,-363.5 746.8,-78.2 1821.4,-109 3051,-109 3807.9,0 9094.3,295.1 10668.7,388.3 254.6,15 449.1,232.8 435.6,487.5 l -987.2,18574.6 c -11.5,215.6 -190.1,381.2 -402.4,381.2 -10.4,0 -20.9,-0.4 -31.5,-1.2 -990.8,-76.1 -2022.7,-107.7 -3054.2,-107.7 -3274.5,0 -6541.1,318.6 -8445.4,544.4 h 11531.8 c 703.7,0 1283.9,-551.5 1319.7,-1254.2 l 270.4,-5310.8 27.1,-533.3 12.3,-240.3 6.1,-120.7 625.6,-12287.1 c 28,-550 -404.9,-1013.8 -955.5,-1023.9 l -3655.8,-66.4 -10962.9,-199.2 c -5.7,-0.1 -11.4,-0.2 -17.1,-0.2"
         id="path158" /></clipPath><linearGradient
       x1="0"
       y1="0"
       x2="1"
       y2="0"
       gradientUnits="userSpaceOnUse"
       gradientTransform="matrix(-16162.1,-28384.7,-28384.7,16162.1,29392.2,35775.5)"
       spreadMethod="pad"
       id="linearGradient168"><stop
         style="stop-opacity:1;stop-color:#4042e2"
         offset="0"
         id="stop164" /><stop
         style="stop-opacity:1;stop-color:#4f52ff"
         offset="1"
         id="stop166" /></linearGradient><clipPath
       clipPathUnits="userSpaceOnUse"
       id="clipPath262"><path
         d="m 19613.1,31027.8 c -199.3,0 -360.8,161.5 -360.8,360.8 0,199.3 161.5,360.9 360.8,360.9 199.3,0 360.9,-161.6 360.9,-360.9 0,-199.3 -161.6,-360.8 -360.9,-360.8 z m 636.4,1070.9 c -460.7,320.5 -861.3,314.2 -1143.3,230.9 -257.3,-75.9 -424,-324.2 -399.5,-591.3 l 121.6,-1327.5 1447.2,-128.4 c 0,0 877.6,1187.7 -26,1816.3 z"
         id="path260" /></clipPath><linearGradient
       x1="0"
       y1="0"
       x2="1"
       y2="0"
       gradientUnits="userSpaceOnUse"
       gradientTransform="matrix(-2559.13,-6667.21,-6667.21,2559.13,26956.7,50442.8)"
       spreadMethod="pad"
       id="linearGradient270"><stop
         style="stop-opacity:1;stop-color:#09005d"
         offset="0"
         id="stop266" /><stop
         style="stop-opacity:1;stop-color:#1a0f91"
         offset="1"
         id="stop268" /></linearGradient><clipPath
       clipPathUnits="userSpaceOnUse"
       id="clipPath284"><path
         d="m 16853.1,29552.9 v 667.5 c 0,230.3 191,414.9 421.2,407 l 4601.5,-157.7 c 204.2,-7 369.6,-168.2 381.8,-372.1 l 38.4,-641.3 z"
         id="path282" /></clipPath><linearGradient
       x1="0"
       y1="0"
       x2="1"
       y2="0"
       gradientUnits="userSpaceOnUse"
       gradientTransform="matrix(-2559.12,-6667.2,-6667.2,2559.12,27403.1,50271.5)"
       spreadMethod="pad"
       id="linearGradient292"><stop
         style="stop-opacity:1;stop-color:#09005d"
         offset="0"
         id="stop288" /><stop
         style="stop-opacity:1;stop-color:#1a0f91"
         offset="1"
         id="stop290" /></linearGradient><clipPath
       clipPathUnits="userSpaceOnUse"
       id="clipPath310"><path
         d="m 14978.2,29384.4 c 11.1,231.1 201.8,412.8 433.1,412.8 l 8046.5,0.2 c 289.3,0 536.7,-208.2 586,-493.3 l 6.9,-39.3 c 54,-312.3 -186.4,-597.9 -503.3,-597.9 h -8255.2 c -189.7,0 -340.8,158.6 -331.7,348 z"
         id="path308" /></clipPath><linearGradient
       x1="0"
       y1="0"
       x2="1"
       y2="0"
       gradientUnits="userSpaceOnUse"
       gradientTransform="matrix(-4050.9,-7438.27,-7438.27,4050.9,21576.8,33041.3)"
       spreadMethod="pad"
       id="linearGradient318"><stop
         style="stop-opacity:1;stop-color:#4042e2"
         offset="0"
         id="stop314" /><stop
         style="stop-opacity:1;stop-color:#4f52ff"
         offset="1"
         id="stop316" /></linearGradient><clipPath
       clipPathUnits="userSpaceOnUse"
       id="clipPath328"><path
         d="m 15842.6,24072.8 c 0,122.9 33,217.5 99.2,283.7 66.1,66.1 162.3,99.2 288.4,99.2 127.6,0 224.1,-33.9 289.5,-101.6 65.3,-67.7 98,-161.5 98,-281.3 0,-118.3 -33.5,-211.7 -100.4,-280.2 -66.9,-68.5 -162.6,-102.7 -287.1,-102.7 -124.6,0 -220.3,33.5 -287.2,100.4 -67,66.9 -100.4,161.1 -100.4,282.5 z m 109.7,779.8 v 163.4 c 0,149.5 23,279.8 68.9,391.1 45.9,111.3 129.6,230.8 251,358.4 115.1,126.1 188.7,224.9 220.6,296.5 31.9,71.6 47.9,162.7 47.9,273.2 0,101.2 -23.4,183.6 -70.1,247.5 -46.6,63.8 -120.6,95.7 -221.8,95.7 -168.1,0 -344.8,-59.9 -530,-179.8 l -219.4,467 c 244.3,166.5 515.1,249.8 812.5,249.8 256.8,0 459.5,-71.2 608.2,-213.6 148.6,-142.4 223,-340.5 223,-594.2 0,-177.5 -25.7,-328.1 -77.1,-451.8 -51.3,-123.7 -158,-272.8 -319.8,-447.1 -104.4,-113.7 -170.9,-201.2 -199.7,-262.7 -28.8,-61.5 -43.2,-145.1 -43.2,-251 v -142.4 z"
         id="path326" /></clipPath><linearGradient
       x1="0"
       y1="0"
       x2="1"
       y2="0"
       gradientUnits="userSpaceOnUse"
       gradientTransform="matrix(-6667.87,-13537.8,-13537.8,6667.87,16742,26850.3)"
       spreadMethod="pad"
       id="linearGradient336"><stop
         style="stop-opacity:1;stop-color:#fe7062"
         offset="0"
         id="stop332" /><stop
         style="stop-opacity:1;stop-color:#ff928e"
         offset="1"
         id="stop334" /></linearGradient><clipPath
       clipPathUnits="userSpaceOnUse"
       id="clipPath346"><path
         d="m 10881.3,5433.9 c 0,0 -52.8,-298.5 -78.6,-594.1 -10.1,-115.5 78.9,-215.8 194.8,-220.6 393.5,-16.4 1235.4,-48.3 1537.4,-34.8 45.5,2 75.2,48.5 58.3,90.8 -14,35.4 -41.2,64 -75.8,79.9 l -1390.6,639.1 z"
         id="path344" /></clipPath><linearGradient
       x1="0"
       y1="0"
       x2="1"
       y2="0"
       gradientUnits="userSpaceOnUse"
       gradientTransform="matrix(-5092.25,-5538.94,-5538.94,5092.25,12490.9,5846.5)"
       spreadMethod="pad"
       id="linearGradient352"><stop
         style="stop-opacity:1;stop-color:#09005d"
         offset="0"
         id="stop348" /><stop
         style="stop-opacity:1;stop-color:#1a0f91"
         offset="1"
         id="stop350" /></linearGradient><clipPath
       clipPathUnits="userSpaceOnUse"
       id="clipPath362"><path
         d="m 10838.1,5609.3 42.3,-357.1 c 0,0 243.6,-113.4 410,14.3 l -100.9,398 z"
         id="path360" /></clipPath><linearGradient
       x1="0"
       y1="0"
       x2="1"
       y2="0"
       gradientUnits="userSpaceOnUse"
       gradientTransform="matrix(452.317,0,0,-452.317,10838.1,5435.1)"
       spreadMethod="pad"
       id="linearGradient368"><stop
         style="stop-opacity:1;stop-color:#febbba"
         offset="0"
         id="stop364" /><stop
         style="stop-opacity:1;stop-color:#ff928e"
         offset="1"
         id="stop366" /></linearGradient><clipPath
       clipPathUnits="userSpaceOnUse"
       id="clipPath378"><path
         d="m 10869.9,12323 c -18.3,-93.2 -98.2,-4653.7 389.2,-6697.4 8,-33.3 -8.9,-67.7 -40.6,-80.7 -74.8,-30.5 -221.4,-74.7 -397.1,-80.6 -54.4,-1.9 -103.1,33.5 -118.5,85.7 -139.3,474.2 -807.03,2849.9 -894.14,5119.3 -97.32,2535.9 0,86.4 0,86.4 l 57.09,1567.5 z"
         id="path376" /></clipPath><linearGradient
       x1="0"
       y1="0"
       x2="1"
       y2="0"
       gradientUnits="userSpaceOnUse"
       gradientTransform="matrix(-4333.01,-5872.84,-5872.84,4333.01,12891.9,12110.5)"
       spreadMethod="pad"
       id="linearGradient384"><stop
         style="stop-opacity:1;stop-color:#4042e2"
         offset="0"
         id="stop380" /><stop
         style="stop-opacity:1;stop-color:#4f52ff"
         offset="1"
         id="stop382" /></linearGradient><clipPath
       clipPathUnits="userSpaceOnUse"
       id="clipPath394"><path
         d="m 9281.64,5278.2 c 0,0 -83.94,-150.8 -165.22,-551.3 -14.68,-72.3 35.86,-141.5 109.31,-148.7 129.96,-12.8 330.02,-29.3 490.27,-28.2 73.87,0.6 131.53,64.9 122.62,138.2 -17.75,146.2 -73.05,386 -243.88,573 z"
         id="path392" /></clipPath><linearGradient
       x1="0"
       y1="0"
       x2="1"
       y2="0"
       gradientUnits="userSpaceOnUse"
       gradientTransform="matrix(-5092.25,-5538.94,-5538.94,5092.25,11348.6,6896.8)"
       spreadMethod="pad"
       id="linearGradient400"><stop
         style="stop-opacity:1;stop-color:#09005d"
         offset="0"
         id="stop396" /><stop
         style="stop-opacity:1;stop-color:#1a0f91"
         offset="1"
         id="stop398" /></linearGradient><clipPath
       clipPathUnits="userSpaceOnUse"
       id="clipPath410"><path
         d="m 9207.91,5737.5 99,-540.1 c 0,0 97.89,-72.8 291.53,-20 l -47.25,581 z"
         id="path408" /></clipPath><linearGradient
       x1="0"
       y1="0"
       x2="1"
       y2="0"
       gradientUnits="userSpaceOnUse"
       gradientTransform="matrix(390.536,0,0,-390.536,9207.91,5458.3)"
       spreadMethod="pad"
       id="linearGradient416"><stop
         style="stop-opacity:1;stop-color:#febbba"
         offset="0"
         id="stop412" /><stop
         style="stop-opacity:1;stop-color:#ff928e"
         offset="1"
         id="stop414" /></linearGradient><clipPath
       clipPathUnits="userSpaceOnUse"
       id="clipPath426"><path
         d="m 8940.45,12183.1 c -398.69,-2406.1 86.49,-5947 250.12,-6640 10.02,-42.4 44.26,-74.9 87.26,-82.1 73.04,-12.1 193.29,-21.9 311.84,12.5 40.85,11.9 69.54,48.7 71.21,91.2 21.95,560.3 -17.56,3999.9 353.92,5359.3 18.8,68.9 60.9,128.9 119.1,170.3 l 721.1,512.6 55.2,828.6 z"
         id="path424" /></clipPath><linearGradient
       x1="0"
       y1="0"
       x2="1"
       y2="0"
       gradientUnits="userSpaceOnUse"
       gradientTransform="matrix(-4333.01,-5872.84,-5872.84,4333.01,12119.6,12680.2)"
       spreadMethod="pad"
       id="linearGradient432"><stop
         style="stop-opacity:1;stop-color:#4042e2"
         offset="0"
         id="stop428" /><stop
         style="stop-opacity:1;stop-color:#4f52ff"
         offset="1"
         id="stop430" /></linearGradient><clipPath
       clipPathUnits="userSpaceOnUse"
       id="clipPath442"><path
         d="m 11480.9,16742.2 c -1194.8,19.8 -2513.1,-313.7 -2513.1,-313.7 -356.15,-2078.1 -62.28,-4475 -62.28,-4475 924.98,-242.6 1968.38,148.3 1968.38,148.3 153.8,868.6 871.1,3313.1 871.1,3313.1 583.8,72.4 1064.7,240.9 1460.7,463.5 -302.1,350.2 -444.5,795.8 -506.4,1059.1 -422.4,-131.2 -849.9,-201.4 -1218.4,-195.3 z"
         id="path440" /></clipPath><linearGradient
       x1="0"
       y1="0"
       x2="1"
       y2="0"
       gradientUnits="userSpaceOnUse"
       gradientTransform="matrix(-6801.88,-6936.57,-6936.57,6801.88,12128.7,16516.7)"
       spreadMethod="pad"
       id="linearGradient450"><stop
         style="stop-opacity:1;stop-color:#fe7062"
         offset="0"
         id="stop446" /><stop
         style="stop-opacity:1;stop-color:#ff928e"
         offset="1"
         id="stop448" /></linearGradient><clipPath
       clipPathUnits="userSpaceOnUse"
       id="clipPath460"><path
         d="m 15010.2,18502.1 c -117.4,141.8 -266,74.7 -266,74.7 -175.8,-742.7 -1097.7,-1344.9 -2044.9,-1639.3 61.9,-263.3 204.3,-708.9 506.4,-1059.1 1571.9,883.8 1804.5,2623.7 1804.5,2623.7 z"
         id="path458" /></clipPath><linearGradient
       x1="0"
       y1="0"
       x2="1"
       y2="0"
       gradientUnits="userSpaceOnUse"
       gradientTransform="matrix(-798.056,-2280.17,2280.17,-798.056,14653.8,19927.9)"
       spreadMethod="pad"
       id="linearGradient468"><stop
         style="stop-opacity:1;stop-color:#febbba"
         offset="0"
         id="stop464" /><stop
         style="stop-opacity:1;stop-color:#ff928e"
         offset="1"
         id="stop466" /></linearGradient><clipPath
       clipPathUnits="userSpaceOnUse"
       id="clipPath478"><path
         d="m 14981.7,18466.1 c 12.3,-39.1 -130,-98.5 -213.7,61.1 -2.9,76.6 -49.5,404.4 -3.7,466.8 243.5,332 715.7,748.3 715.7,748.3 79.8,-78.8 14.1,-156.1 14.1,-156.1 l -229.1,-238.7 c 47.9,-86.5 106.4,-159.6 133.7,-264.4 20.8,-79.3 8.1,-164 -32,-236.2 -40.2,-72.4 -95,-166.6 -146.9,-240.3 -98.2,-139.5 -238.1,-140.5 -238.1,-140.5 z"
         id="path476" /></clipPath><linearGradient
       x1="0"
       y1="0"
       x2="1"
       y2="0"
       gradientUnits="userSpaceOnUse"
       gradientTransform="matrix(-798.053,-2280.16,2280.16,-798.053,15335.9,19689.2)"
       spreadMethod="pad"
       id="linearGradient486"><stop
         style="stop-opacity:1;stop-color:#febbba"
         offset="0"
         id="stop482" /><stop
         style="stop-opacity:1;stop-color:#ff928e"
         offset="1"
         id="stop484" /></linearGradient><clipPath
       clipPathUnits="userSpaceOnUse"
       id="clipPath496"><path
         d="m 15164.8,19192.7 -208.7,-177 -65.6,-176.1 186.1,-206.5 c 0,0 62.6,349.6 109.1,425.2 46.5,75.7 22.4,112.3 -20.9,134.4 z"
         id="path494" /></clipPath><linearGradient
       x1="0"
       y1="0"
       x2="1"
       y2="0"
       gradientUnits="userSpaceOnUse"
       gradientTransform="matrix(601.138,1212.64,-1212.64,601.138,14722.9,18232.4)"
       spreadMethod="pad"
       id="linearGradient504"><stop
         style="stop-opacity:1;stop-color:#febbba"
         offset="0"
         id="stop500" /><stop
         style="stop-opacity:1;stop-color:#ff928e"
         offset="1"
         id="stop502" /></linearGradient><clipPath
       clipPathUnits="userSpaceOnUse"
       id="clipPath514"><path
         d="m 9426.07,15271.6 -458.27,1156.9 c 0,0 -1116.02,-758.3 -1299.55,-1719.7 210.87,-15.5 594.58,-70.4 970.17,-260 82.54,454 787.65,822.8 787.65,822.8 z"
         id="path512" /></clipPath><linearGradient
       x1="0"
       y1="0"
       x2="1"
       y2="0"
       gradientUnits="userSpaceOnUse"
       gradientTransform="matrix(-6801.89,-6936.58,-6936.58,6801.89,10949,17673.6)"
       spreadMethod="pad"
       id="linearGradient522"><stop
         style="stop-opacity:1;stop-color:#fe7062"
         offset="0"
         id="stop518" /><stop
         style="stop-opacity:1;stop-color:#ff928e"
         offset="1"
         id="stop520" /></linearGradient><clipPath
       clipPathUnits="userSpaceOnUse"
       id="clipPath532"><path
         d="m 10401.3,14183 c 0,0 -1252.96,-708.2 -1675.74,-103.5 -87.78,125.6 -108.76,250.3 -87.14,369.3 -375.59,189.6 -759.3,244.5 -970.17,260 -55.34,-289.8 -26.08,-598.1 144.23,-909.6 740.57,-1354.7 2754.72,74.8 2754.72,74.8 z"
         id="path530" /></clipPath><linearGradient
       x1="0"
       y1="0"
       x2="1"
       y2="0"
       gradientUnits="userSpaceOnUse"
       gradientTransform="matrix(2924.36,0,0,-2924.36,7642.81,13962.4)"
       spreadMethod="pad"
       id="linearGradient538"><stop
         style="stop-opacity:1;stop-color:#febbba"
         offset="0"
         id="stop534" /><stop
         style="stop-opacity:1;stop-color:#ff928e"
         offset="1"
         id="stop536" /></linearGradient><clipPath
       clipPathUnits="userSpaceOnUse"
       id="clipPath548"><path
         d="m 10250.8,13287.1 683.8,2388.1 c 7.8,27.1 30.9,46.9 58.9,50.2 123.9,14.4 482.9,55 897.5,90.1 499.3,42.2 1079.1,76.4 1425.6,47.3 49.2,-4.1 79,-56.2 57.1,-100.5 -197,-398.7 -1007.5,-2020.2 -1413.4,-2551.4 -13.4,-17.6 -34.2,-27.9 -56.4,-27.7 l -1586.6,14.8 c -46.2,0.4 -79.2,44.7 -66.5,89.1 z"
         id="path546" /></clipPath><linearGradient
       x1="0"
       y1="0"
       x2="1"
       y2="0"
       gradientUnits="userSpaceOnUse"
       gradientTransform="matrix(1608,-6700.01,-6700.01,-1608,11526.8,15729.2)"
       spreadMethod="pad"
       id="linearGradient554"><stop
         style="stop-opacity:1;stop-color:#09005d"
         offset="0"
         id="stop550" /><stop
         style="stop-opacity:1;stop-color:#1a0f91"
         offset="1"
         id="stop552" /></linearGradient><clipPath
       clipPathUnits="userSpaceOnUse"
       id="clipPath568"><path
         d="m 10416,13864.1 c 0,0 -95.2,391.7 -56.8,530.6 38.4,139 112.9,317.7 361,278 248.2,-39.7 540.9,-144.3 540.9,-144.3 0,0 -14.8,-181 -203.4,-122.6 l 117,-90.5 c 0,0 -16.8,-144.9 -176.1,-67.5 l 108.8,-120 c 0,0 -68.4,-119 -185.6,-42.7 -117.2,76.4 -173.4,-268.2 -505.8,-221 z"
         id="path566" /></clipPath><linearGradient
       x1="0"
       y1="0"
       x2="1"
       y2="0"
       gradientUnits="userSpaceOnUse"
       gradientTransform="matrix(911.054,0,0,-911.054,10350,14269)"
       spreadMethod="pad"
       id="linearGradient574"><stop
         style="stop-opacity:1;stop-color:#febbba"
         offset="0"
         id="stop570" /><stop
         style="stop-opacity:1;stop-color:#ff928e"
         offset="1"
         id="stop572" /></linearGradient><clipPath
       clipPathUnits="userSpaceOnUse"
       id="clipPath584"><path
         d="m 10270.7,17712.2 -380.18,-1099.4 c -6.3,-18.2 1.19,-38.4 18.05,-47.7 103.63,-57.3 477.03,-222.9 926.93,62.4 46.9,29.7 78.8,78.1 85.9,133.2 l 123.1,951.5 z"
         id="path582" /></clipPath><linearGradient
       x1="0"
       y1="0"
       x2="1"
       y2="0"
       gradientUnits="userSpaceOnUse"
       gradientTransform="matrix(1156.19,0,0,-1156.19,9888.31,17088.7)"
       spreadMethod="pad"
       id="linearGradient592"><stop
         style="stop-opacity:1;stop-color:#febbba"
         offset="0"
         id="stop588" /><stop
         style="stop-opacity:1;stop-color:#ff928e"
         offset="1"
         id="stop590" /></linearGradient><clipPath
       clipPathUnits="userSpaceOnUse"
       id="clipPath602"><path
         d="m 11097.9,18730.3 c 0,0 417.4,-785.8 363.9,-1103.2 -53.5,-317.5 -570.9,-294.7 -1022.7,-36.9 l -315.7,848.5 z"
         id="path600" /></clipPath><linearGradient
       x1="0"
       y1="0"
       x2="1"
       y2="0"
       gradientUnits="userSpaceOnUse"
       gradientTransform="matrix(-1271.24,775.362,775.362,1271.24,11319.5,17824.2)"
       spreadMethod="pad"
       id="linearGradient610"><stop
         style="stop-opacity:1;stop-color:#febbba"
         offset="0"
         id="stop606" /><stop
         style="stop-opacity:1;stop-color:#ff928e"
         offset="1"
         id="stop608" /></linearGradient><clipPath
       clipPathUnits="userSpaceOnUse"
       id="clipPath620"><path
         d="m 10459.1,18006.9 c 18.4,8.2 25.1,30.6 14.2,47.4 -33.5,51.1 -96.2,155.4 -116.2,246.6 0,0 -75,48.1 191,111.8 266.1,63.7 662.8,162.5 746.2,389 81.3,220.8 -132.3,776 -473.1,333.6 -13,-16.8 -38.4,-17.2 -51.3,-0.4 -55.9,72.8 -202.8,223.7 -406.8,132.2 -190.8,-85.6 -212.3,-225.5 -209.7,-296 0.8,-20.7 -17.8,-36.8 -38.1,-32.9 -96.5,18.4 -328.09,34.2 -436.17,-203.4 -89.02,-195.6 -31.16,-306.4 21.53,-360.6 17.08,-17.5 9.6,-46.4 -13.82,-53.6 -63.41,-19.4 -145.3,-73.2 -137.11,-221.7 11.34,-205.4 240.98,-187.3 306.37,-178 10.72,1.6 21.51,-2.1 28.76,-10.1 56.07,-62.1 308.64,-325.5 582.04,-357.3 23.7,-2.7 42,20.7 34.3,43.2 l -118.3,343.9 c -5.5,16 2.1,33.5 17.5,40.3 z"
         id="path618" /></clipPath><linearGradient
       x1="0"
       y1="0"
       x2="1"
       y2="0"
       gradientUnits="userSpaceOnUse"
       gradientTransform="matrix(1642.3,-1297.13,-1297.13,-1642.3,9375.33,19416.9)"
       spreadMethod="pad"
       id="linearGradient628"><stop
         style="stop-opacity:1;stop-color:#09005d"
         offset="0"
         id="stop624" /><stop
         style="stop-opacity:1;stop-color:#1a0f91"
         offset="1"
         id="stop626" /></linearGradient><clipPath
       clipPathUnits="userSpaceOnUse"
       id="clipPath638"><path
         d="m 10506.7,17958.1 c 0,0 -297.3,204 -319,32.2 -21.7,-171.7 267.7,-248.7 411,-184.7 z"
         id="path636" /></clipPath><linearGradient
       x1="0"
       y1="0"
       x2="1"
       y2="0"
       gradientUnits="userSpaceOnUse"
       gradientTransform="matrix(-1143.75,697.605,697.605,1143.75,10985.6,17535.1)"
       spreadMethod="pad"
       id="linearGradient646"><stop
         style="stop-opacity:1;stop-color:#febbba"
         offset="0"
         id="stop642" /><stop
         style="stop-opacity:1;stop-color:#ff928e"
         offset="1"
         id="stop644" /></linearGradient><clipPath
       clipPathUnits="userSpaceOnUse"
       id="clipPath656"><path
         d="m 24652,18188.1 c 19.5,37.4 74.9,31.5 86.2,-9.2 41.8,-150.6 143.1,-413.4 355.6,-506.7 10.7,-4.7 20.8,-9.4 30.6,-14.2 9.7,28.9 9.8,62.4 -13.3,97.7 -66.1,101 53.2,238.9 53.2,238.9 0,0 7.9,-121.5 100.2,-197.9 79.5,-65.9 117.7,-212.5 63.3,-332.7 -115,-446.7 -287.2,-1037.5 383.6,-1469.1 670.8,-431.6 1615.5,814.6 1615.5,814.6 L 26858,15323.1 c 0,0 -723.7,-534 -1565.4,216.9 -841.8,751 -283.9,1843.7 -283.9,1843.7 0,0 -642,259 -356.7,804.4 z"
         id="path654" /></clipPath><linearGradient
       x1="0"
       y1="0"
       x2="1"
       y2="0"
       gradientUnits="userSpaceOnUse"
       gradientTransform="matrix(2521.82,-4041.61,4041.61,2521.82,24365.5,19234.5)"
       spreadMethod="pad"
       id="linearGradient664"><stop
         style="stop-opacity:1;stop-color:#febbba"
         offset="0"
         id="stop660" /><stop
         style="stop-opacity:1;stop-color:#ff928e"
         offset="1"
         id="stop662" /></linearGradient><clipPath
       clipPathUnits="userSpaceOnUse"
       id="clipPath674"><path
         d="m 27444.3,18993.3 c 0,0 -194.3,871.8 804.2,641 0,0 484.7,79.2 509.4,-378.3 0,0 312.4,-205.9 83.6,-601.8 0,0 928.6,358.7 1333.1,-455.2 404.6,-813.9 32.7,-1261.7 -357.1,-1378.3 0,0 315.8,-158.6 166.3,-516.7 -149.5,-358.1 -906.6,-610.5 -1353.8,-175 0,0 -1272.7,-168.2 -1247.2,730.7 0,0 -591.9,382.2 29.8,1125.1 621.7,742.9 31.7,1008.5 31.7,1008.5 z"
         id="path672" /></clipPath><linearGradient
       x1="0"
       y1="0"
       x2="1"
       y2="0"
       gradientUnits="userSpaceOnUse"
       gradientTransform="matrix(-2547.23,-1698.31,-1698.31,2547.23,31366.1,19606.5)"
       spreadMethod="pad"
       id="linearGradient682"><stop
         style="stop-opacity:1;stop-color:#09005d"
         offset="0"
         id="stop678" /><stop
         style="stop-opacity:1;stop-color:#1a0f91"
         offset="1"
         id="stop680" /></linearGradient><clipPath
       clipPathUnits="userSpaceOnUse"
       id="clipPath692"><path
         d="m 27389.5,16972.8 c 200.6,60.1 784.9,171.2 1340.6,-341.7 94.2,-86.9 132.8,-219.1 99.1,-342.9 -149.2,-549.5 -543,-2172.9 -197.7,-2875.4 0,0 -608.5,-670.8 -1272.4,-130.1 0,0 -297.8,1298.1 -688,1868 -269.3,393.4 429.5,1477.4 606.3,1739.3 26.8,39.7 66.3,69 112.1,82.8 z"
         id="path690" /></clipPath><linearGradient
       x1="0"
       y1="0"
       x2="1"
       y2="0"
       gradientUnits="userSpaceOnUse"
       gradientTransform="matrix(6195.78,3434.62,3434.62,-6195.78,28138.5,15236.6)"
       spreadMethod="pad"
       id="linearGradient700"><stop
         style="stop-opacity:1;stop-color:#fe7062"
         offset="0"
         id="stop696" /><stop
         style="stop-opacity:1;stop-color:#ff928e"
         offset="1"
         id="stop698" /></linearGradient><clipPath
       clipPathUnits="userSpaceOnUse"
       id="clipPath710"><path
         d="m 27943.5,18064.5 c 0,0 296.8,-839.4 319.1,-1209.7 0,0 -328,-149.1 -637,102.6 0,0 -32.5,838.4 -79.3,988.5 z"
         id="path708" /></clipPath><linearGradient
       x1="0"
       y1="0"
       x2="1"
       y2="0"
       gradientUnits="userSpaceOnUse"
       gradientTransform="matrix(472.802,1050.02,1050.02,-472.802,27471.4,16438.7)"
       spreadMethod="pad"
       id="linearGradient718"><stop
         style="stop-opacity:1;stop-color:#febbba"
         offset="0"
         id="stop714" /><stop
         style="stop-opacity:1;stop-color:#ff928e"
         offset="1"
         id="stop716" /></linearGradient><clipPath
       clipPathUnits="userSpaceOnUse"
       id="clipPath728"><path
         d="m 27531.3,19209 c 0,0 -776.2,-1086.3 -312.2,-1401.8 464,-315.5 1016.5,456.5 1016.5,456.5 0,0 180.1,594.5 -8.2,796.2 -188.3,201.6 -696.1,149.1 -696.1,149.1 z"
         id="path726" /></clipPath><linearGradient
       x1="0"
       y1="0"
       x2="1"
       y2="0"
       gradientUnits="userSpaceOnUse"
       gradientTransform="matrix(959.509,-2077.36,-2077.36,-959.509,27447.1,18990.5)"
       spreadMethod="pad"
       id="linearGradient736"><stop
         style="stop-opacity:1;stop-color:#febbba"
         offset="0"
         id="stop732" /><stop
         style="stop-opacity:1;stop-color:#ff928e"
         offset="1"
         id="stop734" /></linearGradient><clipPath
       clipPathUnits="userSpaceOnUse"
       id="clipPath746"><path
         d="m 27890.6,19468.5 c 0,0 -356.6,-84.5 -406.6,-245.8 -49.9,-161.3 505.7,-310.9 661.4,-318.3 l 125.4,-651 c 0,0 370.8,612.5 223.9,966.2 -146.8,353.7 -604.1,248.9 -604.1,248.9 z"
         id="path744" /></clipPath><linearGradient
       x1="0"
       y1="0"
       x2="1"
       y2="0"
       gradientUnits="userSpaceOnUse"
       gradientTransform="matrix(-2547.28,-1698.35,-1698.35,2547.28,30681.6,20633.2)"
       spreadMethod="pad"
       id="linearGradient754"><stop
         style="stop-opacity:1;stop-color:#09005d"
         offset="0"
         id="stop750" /><stop
         style="stop-opacity:1;stop-color:#1a0f91"
         offset="1"
         id="stop752" /></linearGradient><clipPath
       clipPathUnits="userSpaceOnUse"
       id="clipPath764"><path
         d="m 28085.1,18343.6 c 0,0 302.2,349.9 422.3,121.8 120.2,-228.1 -271.9,-399.4 -407.6,-287.4 z"
         id="path762" /></clipPath><linearGradient
       x1="0"
       y1="0"
       x2="1"
       y2="0"
       gradientUnits="userSpaceOnUse"
       gradientTransform="matrix(959.504,-2077.35,-2077.35,-959.504,27898.5,19199)"
       spreadMethod="pad"
       id="linearGradient772"><stop
         style="stop-opacity:1;stop-color:#febbba"
         offset="0"
         id="stop768" /><stop
         style="stop-opacity:1;stop-color:#ff928e"
         offset="1"
         id="stop770" /></linearGradient><clipPath
       clipPathUnits="userSpaceOnUse"
       id="clipPath782"><path
         d="m 26584.1,10557.1 c 2.3,-59 -101.2,-526.4 -157.5,-775.8 -22.6,-100.3 -6.8,-205.3 44.2,-294.5 L 28421,6204.5 c 23.6,-39.7 40.8,-82.7 51.2,-127.7 35.8,-154 109.9,-531.5 71.2,-874.9 l -100.9,-209.6 436.3,99.1 95,1171.7 -123.6,75.3 c -106.7,65.1 -189.8,162.4 -237.3,277.9 -176.4,428.4 -614.3,1518.8 -727.2,2050.1 -128.2,604 -798.9,1094.5 -798.9,1094.5 l 117.8,278.5 z"
         id="path780" /></clipPath><linearGradient
       x1="0"
       y1="0"
       x2="1"
       y2="0"
       gradientUnits="userSpaceOnUse"
       gradientTransform="matrix(-3522.55,6358.15,-6358.15,-3522.55,30124.5,3362.7)"
       spreadMethod="pad"
       id="linearGradient790"><stop
         style="stop-opacity:1;stop-color:#febbba"
         offset="0"
         id="stop786" /><stop
         style="stop-opacity:1;stop-color:#ff928e"
         offset="1"
         id="stop788" /></linearGradient><clipPath
       clipPathUnits="userSpaceOnUse"
       id="clipPath800"><path
         d="m 29363.7,5494.6 c 0,0 -235.6,373.6 -263.3,519 -27.7,145.4 -104.9,402.2 -250.2,324.8 0,0 -68.4,-706.3 -44.8,-982.3 23.6,-276 -312,-267.1 -312,-267.1 0,0 -92.5,-13 -160.3,-80.8 -46.7,-46.7 -13.3,-127.9 52.7,-132.1 109.8,-7.1 284.3,-8.9 467.5,26.5 64,12.3 111.4,66.8 115.3,131.9 l 48.4,812.9 297.2,-375.2 z"
         id="path798" /></clipPath><linearGradient
       x1="0"
       y1="0"
       x2="1"
       y2="0"
       gradientUnits="userSpaceOnUse"
       gradientTransform="matrix(-1047.21,9.94851,-9.94851,-1047.21,29364.8,5606)"
       spreadMethod="pad"
       id="linearGradient808"><stop
         style="stop-opacity:1;stop-color:#09005d"
         offset="0"
         id="stop804" /><stop
         style="stop-opacity:1;stop-color:#1a0f91"
         offset="1"
         id="stop806" /></linearGradient><clipPath
       clipPathUnits="userSpaceOnUse"
       id="clipPath818"><path
         d="m 27749.2,10034.2 c 0,0 68.7,-2935.9 78.1,-3352.9 9.3,-417 -65.9,-1341.1 -483.9,-1617.3 l 181.9,-134.6 c 0,0 227.3,193.2 449.4,565 249.5,417.7 324.9,494 324.9,494 l -82.8,169.5 c -36.2,74.3 -46.9,158.2 -30.2,239.1 90.2,437.2 391.6,1891.4 473.8,2204.6 97,369.7 103.9,863.3 -233.7,1276.5 -337.6,413.3 -677.5,156.1 -677.5,156.1 z"
         id="path816" /></clipPath><linearGradient
       x1="0"
       y1="0"
       x2="1"
       y2="0"
       gradientUnits="userSpaceOnUse"
       gradientTransform="matrix(3468.3,1750.98,1750.98,-3468.3,29406.9,8377.4)"
       spreadMethod="pad"
       id="linearGradient826"><stop
         style="stop-opacity:1;stop-color:#febbba"
         offset="0"
         id="stop822" /><stop
         style="stop-opacity:1;stop-color:#ff928e"
         offset="1"
         id="stop824" /></linearGradient><clipPath
       clipPathUnits="userSpaceOnUse"
       id="clipPath836"><path
         d="m 28135.2,4797 c 12.9,-0.1 24,9.2 25.8,22 13.9,97.9 71.8,490.3 119.2,591.9 54.3,116.4 231.6,606.2 -0.1,647.8 0,0 -576,-841.6 -686.6,-955 -110.6,-113.5 -250.1,-39.7 -250.1,-39.7 0,0 -107.7,-31.8 -189,-135.6 -38.6,-49.4 -2.6,-122 60.1,-122.6 l 388,-3.7 c 112.7,-1 214,67.4 255.9,172 68.3,170.6 185.6,420.8 322.3,531.8 l -71,-680.3 c -1.6,-15.2 10.2,-28.4 25.5,-28.6 z"
         id="path834" /></clipPath><linearGradient
       x1="0"
       y1="0"
       x2="1"
       y2="0"
       gradientUnits="userSpaceOnUse"
       gradientTransform="matrix(-1248.38,11.8596,-11.8596,-1248.38,28392.1,5426.1)"
       spreadMethod="pad"
       id="linearGradient844"><stop
         style="stop-opacity:1;stop-color:#09005d"
         offset="0"
         id="stop840" /><stop
         style="stop-opacity:1;stop-color:#1a0f91"
         offset="1"
         id="stop842" /></linearGradient><clipPath
       clipPathUnits="userSpaceOnUse"
       id="clipPath854"><path
         d="m 27267.3,13599.2 c 0,0 87.4,-278.7 -46.9,-737.6 l -833.2,-2909.7 c -13.1,-45.7 11.6,-93.5 56.3,-109.6 249.3,-89.4 1068.6,-342.3 2187,-265.2 56.3,3.9 103.5,43.8 115.7,98.9 73.7,331.7 325.2,1463.4 376.9,1696 197.3,886 417.6,1841.6 -551.4,2419.4 -446.6,-191.3 -863.1,-304 -1304.4,-192.2 z"
         id="path852" /></clipPath><linearGradient
       x1="0"
       y1="0"
       x2="1"
       y2="0"
       gradientUnits="userSpaceOnUse"
       gradientTransform="matrix(2927.39,-6695.24,6695.24,2927.39,26767.2,13838.1)"
       spreadMethod="pad"
       id="linearGradient862"><stop
         style="stop-opacity:1;stop-color:#09005d"
         offset="0"
         id="stop858" /><stop
         style="stop-opacity:1;stop-color:#1a0f91"
         offset="1"
         id="stop860" /></linearGradient><clipPath
       clipPathUnits="userSpaceOnUse"
       id="clipPath872"><path
         d="m 28809.6,16521.5 c 0,0 948,-787.8 1183.3,-1864.4 235.2,-1076.6 -1385.3,-1191 -1385.3,-1191 0,0 -220,245.7 -481.2,158.1 -261.2,-87.6 -20.2,428.7 285.4,427.4 305.6,-1.4 164,-243 596.3,-47.2 421.1,190.7 681.4,780.7 -393.1,1674.9 -62.2,51.9 -111.9,117.9 -141.9,193.3 -208.7,525.4 -43.1,869.8 336.5,648.9 z"
         id="path870" /></clipPath><linearGradient
       x1="0"
       y1="0"
       x2="1"
       y2="0"
       gradientUnits="userSpaceOnUse"
       gradientTransform="matrix(-5049.08,7486.18,-7486.18,-5049.08,29786.2,13172)"
       spreadMethod="pad"
       id="linearGradient880"><stop
         style="stop-opacity:1;stop-color:#febbba"
         offset="0"
         id="stop876" /><stop
         style="stop-opacity:1;stop-color:#ff928e"
         offset="1"
         id="stop878" /></linearGradient></defs><sodipodi:namedview
     id="namedview4"
     pagecolor="#ffffff"
     bordercolor="#666666"
     borderopacity="1.0"
     inkscape:pageshadow="2"
     inkscape:pageopacity="0.0"
     inkscape:pagecheckerboard="0" /><g
     id="g8"
     inkscape:groupmode="layer"
     inkscape:label="ink_ext_XXXXXX"
     transform="matrix(1.3333333,0,0,-1.3333333,0,4946.6667)"><g
       id="g10"
       transform="scale(0.1)"><g
         id="g12"
         transform="scale(2.27607)"><path
           d="M 16300,0 H 0 V 16300 H 16300 V 0"
           style="fill:#ffffff;fill-opacity:1;fill-rule:nonzero;stroke:none"
           id="path14" /></g><g
         id="g16"><g
           id="g18"
           clip-path="url(#clipPath22)"><g
             id="g24"
             transform="scale(1.99693)"><path
               d="m 9519.15,2597.18 c -827.07,0 -1458.94,115.68 -1710.92,166.86 -763.27,155.04 -2121.36,430.91 -3292.32,1392.54 h 9639.79 c -129.2,-104.87 -249.4,-191.1 -355.4,-267.11 C 12341.3,2842.61 10723.4,2597.18 9519.15,2597.18 M 3265.92,5651.22 c -1261.72,2246.84 -872.82,5286.18 451.94,7374.98 274.16,432.3 1722.38,2831.5 4665.85,3216.3 292.15,38.2 592.56,57.5 896.73,57.5 1550.66,0 3207.76,-500.9 4464.86,-1554.1 2558.7,-2143.7 2895.5,-6060.38 1800.9,-8657.06 l 73.3,5060.56 c 0,115.4 -131.2,337 -372.4,337 -9,0 -18.1,-0.3 -27.4,-1 l -1485.6,38.5 -135.4,2659.4 c -18,352 -308.5,628.1 -660.9,628.1 H 7163.04 c -247.43,29.3 -449.09,55.6 -592.81,75.1 -10.07,1.3 -19.98,2 -29.75,2 -76.97,0 -145.82,-40.7 -184.63,-102.6 -320.44,-85.7 -556.36,-378.1 -556.36,-725.6 v -2331.2 l -2101.56,54.4 c -4.75,0.2 -9.51,0.2 -14.25,0.2 -145.36,0 -285.02,-57.5 -388.2,-160.4 -106.53,-106.1 -164.83,-251.4 -161.28,-401.6 l 131.72,-5570.48"
               style="fill:url(#linearGradient30);fill-opacity:1;fill-rule:nonzero;stroke:none"
               id="path32" /></g></g></g><g
         id="g34"
         transform="scale(1.82005)"><path
           d="m 16290.3,16105.6 c -5.1,-4.4 -12.2,-6.3 -19.3,-4.4 -27,7.3 -54.2,14.1 -81,20.1 -11.4,2.6 -18.5,13.9 -15.9,25.2 2.6,11.4 13.9,18.6 25.2,16 27.3,-6.2 55.2,-13.1 82.8,-20.6 11.3,-3 17.9,-14.6 14.8,-25.8 -1.1,-4.3 -3.4,-7.9 -6.6,-10.5"
           style="fill:#91b3fa;fill-opacity:1;fill-rule:nonzero;stroke:none"
           id="path36" /></g><g
         id="g38"
         transform="scale(1.9865)"><path
           d="m 15310,14603.8 c -5.9,-5.1 -14.4,-6.3 -21.7,-2.4 -45.9,24.4 -93.3,47.1 -140.9,67.5 -9.8,4.1 -14.4,15.5 -10.2,25.3 4.2,9.9 15.6,14.4 25.4,10.2 48.6,-20.8 97,-43.9 143.8,-68.9 9.5,-5 13.1,-16.7 8,-26.2 -1.1,-2.1 -2.6,-4 -4.4,-5.5 z m 341.5,-233.7 c -7.2,-6.1 -17.9,-6.3 -25.2,0.1 -39.3,33.7 -80.5,66.3 -122.7,96.8 -8.6,6.3 -10.5,18.4 -4.3,27 6.3,8.6 18.3,10.6 27,4.3 43,-31.1 85.2,-64.3 125.2,-98.8 8.1,-7 9,-19.2 2,-27.3 -0.6,-0.7 -1.3,-1.4 -2,-2.1 z m 281.1,-303.4 -1.1,-0.9 c -8.6,-6.4 -20.7,-4.5 -27.1,4.1 -27.1,36.9 -56,73.2 -85.9,107.9 -3.9,4.6 -8,9.2 -12,13.8 -7,8 -6.2,20.2 1.8,27.3 l 0.2,0.1 c 8,6.9 20.1,6.1 27.1,-1.9 4.1,-4.7 8.2,-9.4 12.3,-14.1 30.5,-35.4 60,-72.5 87.7,-110.2 6,-8.2 4.6,-19.6 -3,-26.1 z m 206.3,-358.7 c -1.5,-1.2 -3.2,-2.3 -5,-3.1 -9.8,-4.2 -21.2,0.3 -25.4,10.1 -20.7,47.6 -43.6,94.8 -68.3,140.5 -5,9.4 -1.6,21.1 7.8,26.2 9.5,5.1 21.2,1.6 26.3,-7.8 25.1,-46.7 48.6,-94.9 69.6,-143.5 3.5,-8 1.2,-17 -5,-22.4 z m 121.4,-395.5 c -2.5,-2.1 -5.6,-3.6 -9,-4.3 -10.5,-2 -20.6,4.9 -22.6,15.4 -9.6,51 -21.6,102.2 -35.5,152.2 -2.8,10.3 3.2,20.9 13.5,23.8 10.2,2.9 20.9,-3.2 23.8,-13.4 14.2,-51 26.4,-103.3 36.2,-155.4 1.3,-7 -1.3,-13.9 -6.4,-18.3 z m 31,-412.4 c -3.5,-3.1 -8.2,-4.9 -13.3,-4.7 -10.7,0.4 -19,9.4 -18.6,20 1.9,51.8 1.6,104.4 -0.9,156.3 -0.5,10.6 7.7,19.6 18.3,20.2 10.7,0.5 19.8,-7.7 20.3,-18.4 2.5,-52.9 2.9,-106.6 0.9,-159.5 -0.2,-5.6 -2.7,-10.5 -6.7,-13.9 z m -61.4,-408.9 c -4.7,-4 -11.1,-5.8 -17.6,-4 -10.3,2.7 -16.4,13.3 -13.6,23.6 13.4,50.1 24.8,101.3 33.8,152.4 1.9,10.6 11.9,17.6 22.4,15.8 10.6,-2 17.6,-12 15.7,-22.5 -9.3,-52.2 -20.9,-104.6 -34.6,-155.7 -1,-3.9 -3.2,-7.2 -6.1,-9.6 z m -151.2,-385 c -5.8,-5 -14.4,-6.3 -21.6,-2.4 -9.5,5 -13.1,16.7 -8.1,26.1 24.3,46 46.9,93.4 67.1,141.1 4.1,9.8 15.5,14.4 25.3,10.2 9.8,-4.2 14.4,-15.5 10.3,-25.4 -20.6,-48.6 -43.7,-97 -68.5,-143.9 -1.2,-2.2 -2.7,-4.2 -4.5,-5.7 z m -232.7,-342.1 c -7.1,-6.1 -17.8,-6.3 -25.1,0 -8.1,6.9 -9.1,19.2 -2.2,27.3 33.8,39.3 66.2,80.7 96.6,122.8 6.1,8.8 18.3,10.7 26.9,4.5 8.7,-6.3 10.7,-18.4 4.5,-27 -31,-43.1 -64.2,-85.3 -98.6,-125.5 -0.6,-0.8 -1.3,-1.5 -2.1,-2.1 z m -197.7,-198.2 c -34.2,-29.4 -69.9,-57.9 -106.1,-84.6 -8.6,-6.4 -20.7,-4.6 -27,4 -6.3,8.6 -4.7,20.6 4,27 41.6,30.8 82.4,63.9 121.5,98.3 l 0.1,0.2 c 8.1,6.9 20.2,6 27.2,-1.9 7,-8 6.3,-20.3 -1.7,-27.3 -6,-5.2 -12,-10.5 -18,-15.7"
           style="fill:#91b3fa;fill-opacity:1;fill-rule:nonzero;stroke:none"
           id="path40" /></g><g
         id="g42"
         transform="scale(1.86889)"><path
           d="m 16290.7,12057.7 c -1.1,-0.9 -2.3,-1.8 -3.6,-2.5 -24.6,-13.3 -49.4,-26.1 -73.8,-38 -10.3,-5 -22.6,-0.8 -27.5,9.4 -5,10.2 -0.7,22.5 9.4,27.5 23.9,11.7 48.2,24.2 72.3,37.3 9.9,5.4 22.4,1.7 27.8,-8.3 4.7,-8.7 2.6,-19.2 -4.6,-25.4"
           style="fill:#91b3fa;fill-opacity:1;fill-rule:nonzero;stroke:none"
           id="path44" /></g><g
         id="g46"
         transform="scale(1.69304)"><path
           d="m 16289.4,13147.7 c -5.8,-4.9 -13.9,-6.9 -21.7,-4.4 -28.8,9.2 -58,19.1 -86.7,29.6 -11.8,4.3 -17.9,17.3 -13.6,29.1 4.3,11.8 17.3,17.9 29.1,13.5 28.1,-10.2 56.8,-20 85,-28.9 11.9,-3.8 18.5,-16.6 14.7,-28.5 -1.3,-4.2 -3.7,-7.7 -6.8,-10.4"
           style="fill:#91b3fa;fill-opacity:1;fill-rule:nonzero;stroke:none"
           id="path48" /></g><g
         id="g50"
         transform="scale(1.77266)"><path
           d="m 15032.8,16258.9 c -0.6,-0.5 -1.4,-1.1 -2.1,-1.6 -47.6,-31.8 -94.4,-65.9 -139.2,-101.5 -9.3,-7.5 -22.9,-5.9 -30.4,3.4 -7.5,9.4 -6.2,23 3.5,30.5 45.6,36.3 93.4,71.2 142.1,103.7 9.9,6.6 23.4,3.9 30,-6 6.1,-9.2 4.3,-21.4 -3.9,-28.5 m -463.7,-424.6 c -7.8,-6.7 -19.4,-7.1 -27.7,-0.5 -9.3,7.5 -10.9,21.1 -3.4,30.5 36.8,45.7 75.7,90.2 115.9,132.4 8.4,8.6 22,9 30.6,0.7 8.7,-8.2 9,-22 0.8,-30.6 -39.3,-41.3 -77.5,-84.9 -113.5,-129.7 -0.8,-1 -1.8,-2 -2.7,-2.8 m -245.3,-384.7 c -6.3,-5.5 -15.6,-6.9 -23.7,-3 -10.7,5.3 -15.1,18.3 -9.8,29 25.8,52.2 54.1,104.2 84.3,154.3 6.2,10.4 19.5,13.6 29.8,7.4 10.2,-6.1 13.5,-19.4 7.3,-29.7 -29.5,-49.2 -57.3,-100 -82.5,-151.1 -1.4,-2.7 -3.2,-5 -5.4,-6.9 m -155.4,-428.7 c -5.1,-4.4 -12.2,-6.3 -19.3,-4.6 -11.6,2.8 -18.7,14.5 -15.9,26.1 13.7,56.8 30,113.7 48.4,169.1 3.9,11.3 16.1,17.5 27.5,13.7 11.3,-3.8 17.4,-16.1 13.7,-27.4 -18.1,-54.2 -34.1,-110 -47.5,-165.6 -1.1,-4.5 -3.6,-8.4 -6.9,-11.3 m -57.4,-452.3 c -3.9,-3.4 -9,-5.3 -14.5,-5.3 -12,0.2 -21.5,10.1 -21.3,22.1 0.9,58.4 4.3,117.5 10.1,175.5 1.3,11.9 11.9,20.6 23.8,19.4 11.9,-1.2 20.6,-11.8 19.4,-23.7 -5.7,-56.8 -9.1,-114.7 -9.9,-171.9 -0.1,-6.5 -3.1,-12.2 -7.6,-16.1 m 42.9,-454.1 c -2.7,-2.3 -6,-4 -9.7,-4.8 -11.8,-2.4 -23.2,5.1 -25.6,16.9 -11.9,57.1 -21.4,115.5 -28.4,173.5 -1.5,11.9 7,22.7 18.9,24.1 11.9,1.5 22.7,-7 24.1,-18.9 6.9,-56.8 16.2,-114 27.8,-170 1.7,-7.9 -1.3,-15.8 -7.1,-20.8 m 140.7,-433.9 c -1.6,-1.3 -3.3,-2.4 -5.3,-3.3 -10.9,-5 -23.7,-0.1 -28.6,10.8 -24,53.2 -46,108.2 -65.5,163.3 -4,11.3 1.9,23.7 13.2,27.6 11.3,4 23.7,-1.9 27.7,-13.2 19,-54 40.6,-107.8 64.1,-159.9 4,-8.9 1.5,-19.2 -5.6,-25.3 m 232.1,-392.7 -1.1,-0.9 c -9.6,-7.2 -23.2,-5.3 -30.4,4.3 -35.1,46.6 -68.6,95.4 -99.6,144.9 -6.4,10.2 -3.3,23.5 6.8,29.9 10.2,6.3 23.6,3.3 29.9,-6.9 30.4,-48.4 63.2,-96.2 97.6,-141.9 6.9,-9.2 5.4,-22 -3.2,-29.4 m 312.8,-332.1 c -7.9,-6.9 -19.9,-7.1 -28.1,-0.1 -44.6,37.9 -88,78.1 -129.2,119.5 -8.4,8.4 -8.4,22.2 0.2,30.6 8.5,8.6 22.2,8.4 30.6,-0.1 40.3,-40.5 82.8,-79.8 126.5,-117 9,-7.7 10.2,-21.4 2.4,-30.5 -0.7,-0.9 -1.5,-1.7 -2.4,-2.4 m 377.8,-255.8 c -6.5,-5.7 -16.1,-7 -24.2,-2.7 -51.6,27.2 -102.7,57 -152,88.6 -10.1,6.4 -13,19.8 -6.6,29.9 6.5,10 19.9,13 30,6.6 48.3,-30.9 98.4,-60.2 148.8,-86.8 10.6,-5.6 14.6,-18.7 9,-29.3 -1.3,-2.5 -3,-4.6 -5,-6.3"
           style="fill:#91b3fa;fill-opacity:1;fill-rule:nonzero;stroke:none"
           id="path52" /></g><g
         id="g54"
         transform="scale(1.79191)"><path
           d="m 15193,16259.4 c -1.6,-1.4 -3.5,-2.5 -5.5,-3.4 -26,-11.3 -51.9,-23.2 -77,-35.4 -10.7,-5.2 -23.5,-0.7 -28.7,9.9 -5.2,10.7 -0.7,23.5 10,28.7 25.6,12.4 52.1,24.6 78.7,36.1 10.8,4.7 23.5,-0.3 28.1,-11.1 3.9,-8.9 1.3,-18.9 -5.6,-24.8"
           style="fill:#91b3fa;fill-opacity:1;fill-rule:nonzero;stroke:none"
           id="path56" /></g><g
         id="g58"
         transform="scale(1.93447)"><path
           d="m 14409.4,14734.8 c -9.6,-1.8 -17.1,-9.4 -18.5,-19 l -43,-274.2 c -119.1,-51.2 -230.8,-121.9 -330,-211 l -266.8,75.7 c -9.4,2.7 -19.4,-0.9 -24.9,-8.9 l -190.4,-273.1 c -5.6,-7.9 -5.4,-18.6 0.2,-26.4 l 163.5,-224.2 c -49.3,-123.9 -76.9,-253.1 -83.8,-382.6 l -242.4,-135.1 c -8.5,-4.8 -13.1,-14.4 -11.4,-24 l 58.5,-327.7 c 1.7,-9.6 9.3,-17 18.9,-18.5 l 274.2,-43 c 51.3,-119 122,-230.7 211.1,-329.9 l -75.8,-266.9 c -2.6,-9.3 0.9,-19.4 8.9,-24.9 l 273.1,-190.4 c 8,-5.5 18.6,-5.4 26.5,0.3 l 224.1,163.4 c 124,-49.3 253.2,-76.9 382.6,-83.8 l 135.2,-242.4 c 4.8,-8.5 14.4,-13 23.9,-11.3 l 327.8,58.5 c 9.5,1.7 17,9.3 18.5,18.9 l 42.9,274.2 c 119.1,51.3 230.8,121.9 330,211 l 266.8,-75.7 c 9.4,-2.7 19.4,0.9 25,8.9 l 190.3,273.1 c 5.6,8 5.5,18.6 -0.3,26.4 l -163.4,224.2 c 49.4,123.9 77,253.2 83.9,382.6 l 242.4,135.2 c 8.5,4.7 13,14.3 11.3,23.9 l -58.5,327.7 c -1.7,9.6 -9.3,17 -18.9,18.5 l -274.2,43 c -51.3,119 -121.9,230.8 -211.1,330 l 75.8,266.8 c 2.7,9.3 -0.9,19.4 -8.9,24.9 l -273.1,190.4 c -8,5.6 -18.6,5.4 -26.5,-0.3 l -224.1,-163.4 c -123.9,49.3 -253.2,76.9 -382.6,83.8 l -135.2,242.4 c -4.7,8.5 -14.3,13.1 -23.9,11.4 l -327.7,-58.5"
           style="fill:#91b3fa;fill-opacity:1;fill-rule:nonzero;stroke:none"
           id="path60" /></g><g
         id="g62"
         transform="scale(1.7998)"><path
           d="m 15642.6,14434.5 0.2,0.1 z m 110.6,104.1 c -35.8,-30.7 -63.5,-70.1 -80.6,-115.4 -27,-71.4 -24.6,-149 6.8,-218.6 31.4,-69.6 88,-122.7 159.4,-149.7 71.4,-27 149,-24.5 218.6,6.8 69.5,31.4 122.7,88 149.6,159.4 27,71.4 24.6,149 -6.8,218.6 -31.4,69.5 -87.9,122.7 -159.3,149.7 -71.4,27 -149.1,24.6 -218.6,-6.8 -25.4,-11.5 -48.6,-26.3 -69.1,-44 z m 415.1,-481.4 c -25.2,-21.7 -53.5,-39.8 -84.6,-53.8 -85.2,-38.4 -180.2,-41.4 -267.6,-8.4 -87.3,33 -156.6,98.1 -195.1,183.3 -38.4,85.1 -41.4,180.1 -8.3,267.5 33,87.4 98.1,156.7 183.2,195.1 85.2,38.5 180.2,41.4 267.6,8.4 87.4,-33 156.7,-98.1 195.1,-183.3 38.4,-85.2 41.4,-180.2 8.3,-267.5 -20.9,-55.5 -54.9,-103.7 -98.6,-141.3"
           style="fill:#bdd0fb;fill-opacity:1;fill-rule:nonzero;stroke:none"
           id="path64" /></g><g
         id="g66"
         transform="scale(1.86767)"><path
           d="m 15925.3,13140.4 c -291.4,-250.6 -726.8,-283.4 -1056.3,-53.7 -60.8,42.4 -114.4,91.2 -160.7,145 -250.6,291.4 -283.4,726.8 -53.8,1056.3 4.2,5.9 8.4,11.8 12.7,17.6 28.8,39.2 60.8,76 95.4,109.5 4.1,4 8.2,7.9 12.3,11.7 l 42.1,-45.2 c -41.5,-38.5 -79.1,-81.9 -111.8,-128.9 l -0.9,-1.3 c -251.5,-362.3 -161.9,-861.8 200,-1114.1 362.4,-252.6 862.7,-163.3 1115.4,199.2 213.3,305.9 182.8,710.2 -49.9,980.8 -42.9,49.9 -92.8,95.2 -149.2,134.6 -119.2,83 -258.3,132.2 -402.4,142.1 l 4.2,61.5 c 155.3,-10.7 305.1,-63.6 433.5,-153 60.7,-42.4 114.4,-91.2 160.6,-145 250.7,-291.4 283.5,-726.8 53.9,-1056.3 -42.4,-60.8 -91.3,-114.5 -145.1,-160.8"
           style="fill:#bdd0fb;fill-opacity:1;fill-rule:nonzero;stroke:none"
           id="path68" /></g><g
         id="g70"
         transform="scale(1.9744)"><path
           d="m 13480.5,16267 c -2.9,-2.4 -6.9,-3.4 -10.7,-2.4 -15,4.1 -30.1,7.8 -44.9,11.2 -6.3,1.4 -10.3,7.6 -8.8,13.9 1.4,6.3 7.7,10.3 13.9,8.9 15.2,-3.4 30.6,-7.3 45.9,-11.4 6.2,-1.7 9.9,-8.1 8.2,-14.3 -0.6,-2.4 -1.9,-4.4 -3.6,-5.9"
           style="fill:#91b3fa;fill-opacity:1;fill-rule:nonzero;stroke:none"
           id="path72" /></g><g
         id="g74"
         transform="scale(1.96693)"><path
           d="m 13765.1,16236.4 c -3.5,-3.1 -8.8,-3.9 -13.1,-1.5 -28,14.8 -56.7,28.6 -85.6,41 -6,2.5 -8.7,9.4 -6.2,15.4 2.6,5.9 9.4,8.7 15.4,6.1 29.5,-12.6 58.9,-26.6 87.3,-41.8 5.8,-3 8,-10.1 4.9,-15.9 -0.7,-1.3 -1.6,-2.4 -2.7,-3.3 z m 207.3,-141.9 c -4.3,-3.7 -10.8,-3.8 -15.3,0 -23.8,20.6 -48.9,40.3 -74.4,58.8 -5.3,3.8 -6.5,11.2 -2.7,16.4 3.9,5.3 11.2,6.5 16.4,2.7 26.1,-18.9 51.7,-39.1 76,-60.1 4.9,-4.2 5.5,-11.6 1.2,-16.5 z m 170.7,-184.2 -0.7,-0.5 c -5.3,-3.9 -12.6,-2.7 -16.5,2.5 -16.4,22.4 -34,44.4 -52.1,65.5 -2.4,2.8 -4.9,5.6 -7.3,8.4 -4.3,4.8 -3.8,12.3 1.1,16.5 l 0.1,0.1 c 4.9,4.2 12.2,3.7 16.5,-1.1 2.4,-2.9 4.9,-5.7 7.4,-8.6 18.5,-21.5 36.4,-44 53.3,-66.9 3.6,-5 2.7,-11.9 -1.8,-15.9 z m 125.1,-217.7 c -0.8,-0.7 -1.8,-1.4 -3,-1.9 -5.9,-2.5 -12.8,0.2 -15.4,6.1 -12.5,28.9 -26.5,57.6 -41.4,85.3 -3.1,5.7 -1,12.8 4.7,15.9 5.7,3.1 12.8,1 15.9,-4.7 15.3,-28.3 29.5,-57.6 42.3,-87.1 2.1,-4.8 0.7,-10.3 -3.1,-13.6 z m 73.8,-240 c -1.6,-1.3 -3.4,-2.3 -5.5,-2.7 -6.4,-1.2 -12.5,3 -13.8,9.4 -5.8,31 -13,62.1 -21.5,92.3 -1.7,6.3 2,12.8 8.2,14.5 6.2,1.7 12.7,-1.9 14.5,-8.2 8.6,-30.9 15.9,-62.6 21.9,-94.2 0.8,-4.3 -0.8,-8.5 -3.8,-11.1 z m 18.8,-250.4 c -2.2,-1.9 -5,-2.9 -8.1,-2.8 -6.5,0.2 -11.6,5.7 -11.3,12.1 1.2,31.5 1,63.4 -0.6,94.8 -0.3,6.5 4.7,12 11.2,12.3 6.5,0.3 12,-4.6 12.3,-11.1 1.6,-32.2 1.8,-64.7 0.6,-96.8 -0.2,-3.4 -1.7,-6.4 -4.1,-8.5 z m -37.3,-248.2 c -2.8,-2.5 -6.8,-3.5 -10.7,-2.5 -6.2,1.7 -9.9,8.2 -8.3,14.4 8.2,30.4 15.1,61.5 20.6,92.5 1.2,6.4 7.2,10.7 13.6,9.6 6.4,-1.2 10.6,-7.3 9.5,-13.7 -5.6,-31.7 -12.7,-63.5 -21,-94.5 -0.6,-2.3 -2,-4.3 -3.7,-5.8 z m -91.8,-233.7 c -3.5,-3 -8.8,-3.8 -13.1,-1.5 -5.8,3.1 -8,10.2 -4.9,15.9 14.7,27.9 28.5,56.7 40.7,85.6 2.5,6 9.4,8.8 15.4,6.2 6,-2.5 8.8,-9.4 6.2,-15.4 -12.5,-29.5 -26.5,-58.9 -41.6,-87.4 -0.7,-1.3 -1.6,-2.4 -2.7,-3.4 z m -141.2,-207.6 c -4.3,-3.8 -10.8,-3.9 -15.3,-0.1 -4.9,4.3 -5.5,11.7 -1.3,16.6 20.5,23.9 40.2,49 58.6,74.6 3.8,5.3 11.1,6.4 16.4,2.7 5.3,-3.8 6.5,-11.2 2.7,-16.4 -18.8,-26.1 -38.9,-51.8 -59.8,-76.2 -0.4,-0.4 -0.8,-0.9 -1.3,-1.2 z m -120,-120.3 c -20.8,-17.9 -42.5,-35.2 -64.4,-51.4 -5.2,-3.9 -12.6,-2.8 -16.5,2.4 -3.8,5.2 -2.8,12.5 2.5,16.4 25.3,18.7 50.1,38.8 73.7,59.7 l 0.1,0.1 c 4.9,4.2 12.2,3.7 16.5,-1.2 4.3,-4.8 3.8,-12.2 -1,-16.5 -3.7,-3.2 -7.3,-6.4 -10.9,-9.5"
           style="fill:#91b3fa;fill-opacity:1;fill-rule:nonzero;stroke:none"
           id="path76" /></g><g
         id="g78"
         transform="scale(1.72316)"><path
           d="m 15723.6,16274.5 c -0.7,-0.6 -1.5,-1.1 -2.3,-1.6 -16,-8.7 -32.2,-17 -48.1,-24.8 -6.7,-3.2 -14.7,-0.5 -17.9,6.2 -3.3,6.6 -0.5,14.6 6.1,17.9 15.6,7.6 31.4,15.8 47.1,24.3 6.5,3.5 14.7,1.1 18.2,-5.4 3,-5.7 1.6,-12.5 -3.1,-16.6"
           style="fill:#91b3fa;fill-opacity:1;fill-rule:nonzero;stroke:none"
           id="path80" /></g><g
         id="g82"
         transform="scale(1.71483)"><path
           d="m 14795.2,16257.2 c -3.4,-2.9 -8.2,-4.1 -12.8,-2.6 -17.1,5.4 -34.4,11.3 -51.5,17.6 -7,2.5 -10.6,10.2 -8.1,17.2 2.6,7 10.3,10.6 17.3,8.1 16.7,-6.1 33.6,-11.9 50.4,-17.2 7.1,-2.3 11,-9.8 8.8,-16.9 -0.8,-2.5 -2.2,-4.6 -4.1,-6.2"
           style="fill:#91b3fa;fill-opacity:1;fill-rule:nonzero;stroke:none"
           id="path84" /></g><g
         id="g86"
         transform="scale(1.95498)"><path
           d="m 12691.8,16277.6 -1.2,-0.9 c -25.9,-17.3 -51.5,-35.9 -75.8,-55.3 -5.1,-4.1 -12.6,-3.2 -16.6,1.9 -4.1,5.1 -3.4,12.5 1.8,16.6 24.9,19.8 51,38.8 77.5,56.5 5.4,3.6 12.7,2.1 16.4,-3.3 3.3,-5 2.3,-11.7 -2.1,-15.5 z m -252.8,-231.4 c -4.2,-3.7 -10.6,-3.9 -15.1,-0.3 -5.1,4.1 -5.8,11.5 -1.8,16.6 20,24.9 41.2,49.2 63.1,72.2 4.6,4.7 12,4.9 16.7,0.4 4.7,-4.5 5,-12 0.4,-16.7 -21.4,-22.5 -42.2,-46.3 -61.8,-70.7 -0.5,-0.5 -1,-1.1 -1.5,-1.5 z m -133.6,-209.6 c -3.5,-3 -8.6,-3.8 -13,-1.7 -5.8,2.9 -8.2,10 -5.3,15.8 14,28.5 29.5,56.8 45.9,84.1 3.4,5.7 10.7,7.4 16.3,4.1 5.5,-3.4 7.3,-10.7 4,-16.2 -16.1,-26.8 -31.3,-54.5 -45.1,-82.4 -0.7,-1.5 -1.7,-2.7 -2.8,-3.7 z m -84.7,-233.7 c -2.9,-2.4 -6.7,-3.4 -10.5,-2.5 -6.4,1.5 -10.3,7.9 -8.7,14.2 7.4,31 16.3,62 26.4,92.2 2.1,6.1 8.7,9.5 14.9,7.5 6.2,-2.1 9.5,-8.8 7.5,-15 -9.8,-29.5 -18.5,-59.9 -25.9,-90.2 -0.6,-2.5 -2,-4.6 -3.7,-6.2 z m -31.3,-246.5 c -2.1,-1.8 -4.9,-2.9 -7.9,-2.8 -6.5,0.1 -11.7,5.4 -11.6,12 0.5,31.8 2.3,64 5.5,95.6 0.7,6.5 6.4,11.2 12.9,10.6 6.5,-0.7 11.2,-6.4 10.6,-12.9 -3.1,-31 -4.9,-62.5 -5.4,-93.7 -0.1,-3.5 -1.6,-6.7 -4.1,-8.8 z m 23.4,-247.5 c -1.5,-1.2 -3.3,-2.1 -5.3,-2.6 -6.4,-1.3 -12.7,2.8 -14,9.2 -6.4,31.2 -11.7,63 -15.5,94.6 -0.8,6.5 3.8,12.4 10.3,13.1 6.5,0.8 12.4,-3.8 13.2,-10.3 3.7,-30.9 8.8,-62.1 15.1,-92.6 0.9,-4.4 -0.7,-8.7 -3.8,-11.4 z m 76.6,-236.4 c -0.8,-0.7 -1.8,-1.4 -2.9,-1.8 -5.9,-2.7 -12.9,-0.1 -15.6,5.9 -13.1,29 -25,58.9 -35.6,88.9 -2.2,6.2 1,13 7.2,15.1 6.1,2.2 12.9,-1 15,-7.2 10.4,-29.4 22.2,-58.7 35,-87.1 2.2,-4.9 0.8,-10.5 -3.1,-13.8 z m 126.5,-214 -0.6,-0.5 c -5.2,-4 -12.6,-2.9 -16.5,2.3 -19.2,25.4 -37.4,52 -54.3,79 -3.5,5.5 -1.8,12.8 3.7,16.3 5.5,3.4 12.8,1.8 16.3,-3.8 16.6,-26.4 34.4,-52.4 53.1,-77.3 3.8,-5 3,-12 -1.7,-16 z m 170.5,-181 c -4.3,-3.8 -10.9,-3.9 -15.4,-0.1 -24.3,20.7 -47.9,42.6 -70.3,65.1 -4.6,4.6 -4.6,12.1 0.1,16.7 4.6,4.7 12,4.6 16.6,0 22,-22.1 45.2,-43.6 68.9,-63.8 5.1,-4.2 5.6,-11.7 1.4,-16.6 -0.4,-0.5 -0.8,-0.9 -1.3,-1.3 z m 205.9,-139.4 c -3.6,-3.1 -8.8,-3.9 -13.2,-1.5 -28.1,14.8 -56,31.1 -82.8,48.3 -5.5,3.5 -7.1,10.8 -3.6,16.3 3.5,5.4 10.8,7.1 16.3,3.6 26.3,-16.9 53.6,-32.8 81.1,-47.4 5.8,-3 8,-10.1 4.9,-15.9 -0.7,-1.4 -1.6,-2.5 -2.7,-3.4"
           style="fill:#91b3fa;fill-opacity:1;fill-rule:nonzero;stroke:none"
           id="path88" /></g><g
         id="g90"
         transform="scale(1.96655)"><path
           d="m 12793.2,16277.8 c -0.8,-0.8 -1.8,-1.4 -3,-1.9 -14.2,-6.2 -28.4,-12.7 -42.2,-19.4 -5.8,-2.8 -12.8,-0.4 -15.6,5.5 -2.9,5.8 -0.4,12.8 5.4,15.7 14,6.8 28.5,13.4 43.1,19.7 6,2.6 12.8,-0.1 15.4,-6.1 2.2,-4.8 0.7,-10.3 -3.1,-13.5"
           style="fill:#91b3fa;fill-opacity:1;fill-rule:nonzero;stroke:none"
           id="path92" /></g><g
         id="g94"
         transform="scale(1.94488)"><path
           d="m 13136.7,16264 c -5.7,-1 -10.2,-5.6 -11.1,-11.3 l -25.7,-163.9 c -71.2,-30.7 -138,-72.9 -197.2,-126.2 l -159.6,45.3 c -5.5,1.6 -11.6,-0.6 -14.8,-5.3 l -113.9,-163.3 c -3.3,-4.8 -3.2,-11.1 0.2,-15.8 l 97.7,-134 c -29.5,-74.1 -46,-151.4 -50.1,-228.7 l -145,-80.9 c -5,-2.8 -7.7,-8.5 -6.7,-14.3 l 35,-195.9 c 1,-5.7 5.5,-10.1 11.3,-11 l 163.9,-25.7 c 30.6,-71.2 72.9,-138 126.2,-197.3 l -45.3,-159.5 c -1.6,-5.6 0.5,-11.6 5.3,-14.9 l 163.3,-113.8 c 4.7,-3.3 11.1,-3.3 15.8,0.2 l 133.9,97.7 c 74.1,-29.5 151.4,-46 228.8,-50.2 l 80.8,-144.9 c 2.9,-5 8.6,-7.8 14.3,-6.8 l 195.9,35 c 5.8,1 10.2,5.6 11.1,11.3 l 25.7,164 c 71.1,30.6 137.9,72.8 197.2,126.1 l 159.6,-45.3 c 5.5,-1.6 11.5,0.6 14.9,5.3 l 113.8,163.3 c 3.3,4.8 3.2,11.2 -0.2,15.8 l -97.7,134 c 29.5,74.1 46,151.4 50.1,228.8 l 144.9,80.8 c 5.1,2.8 7.8,8.6 6.8,14.3 l -35,195.9 c -1,5.7 -5.5,10.2 -11.3,11.1 l -163.9,25.7 c -30.7,71.1 -72.9,137.9 -126.2,197.2 l 45.3,159.5 c 1.6,5.6 -0.5,11.6 -5.3,14.9 l -163.3,113.8 c -4.7,3.4 -11.1,3.3 -15.8,-0.1 l -134,-97.7 c -74.1,29.5 -151.3,46 -228.7,50.1 l -80.8,144.9 c -2.9,5.1 -8.6,7.8 -14.3,6.8 l -195.9,-35"
           style="fill:#91b3fa;fill-opacity:1;fill-rule:nonzero;stroke:none"
           id="path96" /></g><g
         id="g98"
         transform="scale(1.86393)"><path
           d="m 13797.1,16156.2 0.1,0.1 z m 64.2,60.4 c -20.8,-17.8 -36.8,-40.7 -46.8,-67 -15.7,-41.4 -14.3,-86.5 4,-126.8 18.2,-40.4 51.1,-71.3 92.5,-86.9 41.4,-15.7 86.5,-14.3 126.8,3.9 40.4,18.2 71.2,51.1 86.9,92.5 15.7,41.5 14.3,86.5 -4,126.9 -18.2,40.4 -51,71.2 -92.5,86.9 -41.4,15.6 -86.4,14.2 -126.8,-4 -14.7,-6.6 -28.2,-15.2 -40.1,-25.5 z m 240.9,-279.4 c -14.6,-12.6 -31,-23.1 -49.1,-31.2 -49.4,-22.3 -104.5,-24.1 -155.3,-4.9 -50.7,19.2 -90.9,57 -113.2,106.4 -22.3,49.4 -24,104.5 -4.9,155.2 19.2,50.8 57,91 106.4,113.3 49.4,22.3 104.6,24 155.3,4.8 50.7,-19.1 90.9,-56.9 113.2,-106.3 22.3,-49.5 24,-104.6 4.9,-155.3 -12.2,-32.2 -31.9,-60.2 -57.3,-82"
           style="fill:#bdd0fb;fill-opacity:1;fill-rule:nonzero;stroke:none"
           id="path100" /></g><g
         id="g102"
         transform="scale(1.89883)"><path
           d="m 14046.7,15404.3 c -172.3,-148.1 -429.6,-167.5 -624.4,-31.7 -35.9,25 -67.7,53.9 -95,85.7 -148.2,172.2 -167.6,429.6 -31.8,624.5 2.4,3.4 4.9,6.9 7.4,10.4 17.1,23.1 36,44.9 56.5,64.7 2.4,2.3 4.8,4.6 7.3,6.9 l 24.8,-26.7 c -24.5,-22.8 -46.7,-48.4 -66.1,-76.2 l -0.5,-0.8 c -148.7,-214.2 -95.7,-509.5 118.3,-658.6 214.2,-149.3 510,-96.5 659.3,117.7 126.1,180.9 108.1,419.9 -29.5,579.8 -25.3,29.5 -54.8,56.4 -88.2,79.6 -70.4,49.1 -152.7,78.2 -237.9,84 l 2.5,36.4 c 91.8,-6.3 180.4,-37.6 256.3,-90.5 35.9,-25 67.7,-53.9 95,-85.7 148.2,-172.2 167.6,-429.6 31.7,-624.4 -25,-36 -53.9,-67.7 -85.7,-95.1"
           style="fill:#bdd0fb;fill-opacity:1;fill-rule:nonzero;stroke:none"
           id="path104" /></g><g
         id="g106"><g
           id="g108"
           clip-path="url(#clipPath112)"><g
             id="g114"
             transform="scale(1.91356)"><path
               d="M 15970.1,4337.67 H 14772.4 4712.65 3667.22 c -125.13,0 -227.51,102.26 -227.51,227.27 l -31.51,1332.48 -137.45,5813.18 c -3.71,156.8 57.13,308.3 168.31,419.1 107.67,107.4 253.41,167.4 405.11,167.4 4.95,0 9.91,0 14.87,-0.2 l 2193.12,-56.8 v -270.3 l -2145.83,57.5 c -3.6,0.1 -7.2,0.2 -10.79,0.2 -106.45,0 -208.7,-42.2 -284.28,-117.6 -78.12,-78 -121.09,-184.6 -118.32,-294.9 l 171.38,-6831.99 c 0,-118.36 96.86,-215.25 215.24,-215.25 h 2356.13 c 82.41,-65.27 186.56,-104.2 299.65,-104.2 2.98,0 5.96,0.05 8.94,0.1 l 5729.02,104.1 h 3400.1 c 118.4,0 215.3,96.89 215.3,215.25 l 96.5,6418.29 c -11,375.6 -331.5,517.2 -537.9,517.2 -5.9,0 -11.7,-0.1 -17.3,-0.3 l -1083.4,29 -14.2,278.7 1550.4,-40.1 c 9.7,0.7 19.2,1 28.6,1 251.7,0 388.6,-231.2 388.6,-351.7 l -76.5,-5280.99 -25.9,-1789.17 c 0,-125.01 -102.3,-227.27 -227.5,-227.27"
               style="fill:url(#linearGradient120);fill-opacity:1;fill-rule:nonzero;stroke:none"
               id="path122" /></g></g></g><g
         id="g124"
         transform="scale(1.87661)"><path
           d="m 3736.47,4877.19 c 0,-120.7 98.77,-219.49 219.48,-219.49 H 15982 c 120.7,0 219.5,98.79 219.5,219.49 l 98.5,6544.71 c -11.6,393.9 -356.9,535.4 -566.2,527 l -11750.55,315.3 c -112.48,3 -221.22,-40.3 -300.88,-119.8 -79.66,-79.5 -123.48,-188.2 -120.65,-300.7 l 174.75,-6966.51"
           style="fill:#91b3fa;fill-opacity:1;fill-rule:nonzero;stroke:none"
           id="path126" /></g><g
         id="g128"
         transform="scale(1.85494)"><path
           d="m 16259.4,8079.67 h -0.4 c -18.1,0.27 -32.5,15.04 -32.2,33.05 l 7.9,536.95 c 0.2,17.84 14.8,32.07 32.5,32.07 h 0.5 c 18,-0.27 32.3,-15.04 32,-33.04 l -7.8,-536.95 c -0.3,-17.79 -14.8,-32.08 -32.5,-32.08"
           style="fill:#bdd0fb;fill-opacity:1;fill-rule:nonzero;stroke:none"
           id="path130" /></g><g
         id="g132"
         transform="scale(1.85965)"><path
           d="m 16237.4,9371.76 h -0.5 c -17.9,0.22 -32.2,15.01 -31.9,32.91 l 30.1,2051.43 c -0.6,121.8 -37.6,219.1 -110,288.5 -135.1,129.5 -349.6,122.8 -358.7,122.4 l -3790,101.6 c -17.9,0.5 -32,15.4 -31.5,33.3 0.4,17.9 14.2,33.2 33.3,31.6 l 3787.7,-101.6 c 23.6,1.4 252,5.3 404.1,-140.4 85.6,-82 129.4,-195 130,-335.7 l -30.1,-2052.1 c -0.3,-17.74 -14.8,-31.94 -32.5,-31.94"
           style="fill:#bdd0fb;fill-opacity:1;fill-rule:nonzero;stroke:none"
           id="path134" /></g><g
         id="g136"><g
           id="g138"
           clip-path="url(#clipPath142)"><g
             id="g144"
             transform="scale(1.98944)"><path
               d="M 2376.95,3607.71 H 16271.6 c 15.6,0 28.4,12.76 28.4,28.4 v 540.7 c 0,15.64 -12.8,28.4 -28.4,28.4 H 2376.94 c -15.63,0 -28.41,-12.76 -28.41,-28.4 v -540.7 c 0,-15.64 12.78,-28.4 28.42,-28.4"
               style="fill:url(#linearGradient150);fill-opacity:1;fill-rule:nonzero;stroke:none"
               id="path152" /></g></g></g><g
         id="g154"><g
           id="g156"
           clip-path="url(#clipPath160)"><g
             id="g162"
             transform="scale(1.81456)"><path
               d="m 6891.91,4707.09 c -119.26,0 -229.09,41.05 -316,109.89 -117.82,93.29 -193.55,237.57 -193.55,399.82 v 7406.1 285.1 2565.4 c 0,382.4 259.63,704.2 612.27,798.6 -23.25,-37.2 -36.7,-81.3 -36.42,-128.9 l 63.26,-10751.83 c 0.61,-103.16 78.48,-189.58 181.09,-200.32 411.56,-43.1 1003.77,-60.07 1681.4,-60.07 2098.54,0 5011.84,162.63 5879.44,213.99 140.4,8.27 247.5,128.29 240.1,268.66 l -544,10236.37 c -6.4,118.9 -104.8,210.1 -221.8,210.1 -5.7,0 -11.5,-0.2 -17.4,-0.7 -546,-41.9 -1114.7,-59.3 -1683.1,-59.3 -1804.6,0 -3604.8,175.6 -4654.25,300 h 6355.15 c 387.8,0 707.5,-303.9 727.3,-691.2 l 149,-2926.7 14.9,-293.9 6.8,-132.5 3.4,-66.5 344.7,-6771.37 c 15.5,-303.1 -223.1,-558.7 -526.5,-564.26 L 12943,4816.98 6901.33,4707.19 c -3.14,-0.05 -6.28,-0.1 -9.42,-0.1"
               style="fill:url(#linearGradient168);fill-opacity:1;fill-rule:nonzero;stroke:none"
               id="path170" /></g></g></g><path
         d="m 14659.5,8855.8 h -0.5 l -1635.7,21.2 c -547,7.1 -992,457.8 -992,1004.8 v 2469.7 c 0,19.3 15.7,34.9 35,34.9 19.2,0 34.9,-15.6 34.9,-34.9 V 9881.8 c 0,-508.9 414,-928.4 923,-935 l 1635.7,-21.1 c 19.3,-0.3 34.7,-16.1 34.5,-35.4 -0.3,-19.1 -15.9,-34.5 -34.9,-34.5"
         style="fill:#91b3fa;fill-opacity:1;fill-rule:nonzero;stroke:none"
         id="path172" /><path
         d="m 12066.3,13081.6 c -19.3,0 -35,15.6 -35,34.9 v 399.9 c 0,19.4 15.7,35 35,35 19.2,0 34.9,-15.6 34.9,-35 v -399.9 c 0,-19.3 -15.7,-34.9 -34.9,-34.9"
         style="fill:#91b3fa;fill-opacity:1;fill-rule:nonzero;stroke:none"
         id="path174" /><g
         id="g176"
         transform="scale(1.82594)"><path
           d="m 6914.84,16042.5 c -0.83,145.2 126.78,257.5 270.65,238 953.86,-129.4 4234.11,-529.4 6946.21,-321.3 123.7,9.5 231.1,-84.2 237.6,-208 L 14910,5578.54 c 7.4,-139.49 -99.1,-258.77 -238.6,-266.98 -1140.6,-67.53 -5838.16,-328.49 -7513.73,-152.97 -101.98,10.68 -179.36,96.56 -179.96,199.08 l -62.87,10684.83"
           style="fill:#7d97f4;fill-opacity:1;fill-rule:nonzero;stroke:none"
           id="path178" /></g><g
         id="g180"
         transform="scale(1.7963)"><path
           d="m 7143.18,16048.1 c -0.84,142 124.03,251.9 264.71,232.8 933.14,-126.5 4142.01,-517.9 6795.01,-314.2 121,9.2 226,-82.4 232.4,-203.6 L 14964.2,5812 c 7.2,-136.45 -96.9,-253.13 -233.3,-261.2 -1115.9,-66.03 -5711.09,-321.28 -7350.18,-149.59 -99.76,10.41 -175.47,94.42 -176.08,194.73 l -61.46,10452.16"
           style="fill:#bdd0fb;fill-opacity:1;fill-rule:nonzero;stroke:none"
           id="path182" /></g><g
         id="g184"
         transform="scale(1.70063)"><path
           d="m 10225.2,13727 c -616.03,0 -1254.38,15.9 -1524.05,23.5 -74.97,2.1 -135.54,61.7 -139,136.7 l -104.67,2253.4 c -4.06,87.1 65.56,159.4 152,159.4 1.82,0 3.65,0 5.47,-0.1 l 2466.75,-86.3 c 84.4,-2.9 155.9,-63.8 171.4,-146.8 96.3,-514.2 65.7,-1744.2 51.7,-2166.9 -2.8,-83.1 -68.5,-150.3 -151.5,-154.6 -260,-13.5 -590.7,-18.3 -928.1,-18.3"
           style="fill:#f1f5fe;fill-opacity:1;fill-rule:nonzero;stroke:none"
           id="path186" /></g><g
         id="g188"
         transform="scale(1.6845)"><path
           d="m 14769,16097.1 h -2663.3 c -48.8,0 -102,37.7 -118.2,83.7 l -13.1,37.1 c -16,45.5 9.9,82.1 57.6,82.1 0.5,0 1.1,0 1.7,0 l 2730.9,-48.7 c 48.7,-0.9 89.7,-35.9 90.9,-77.9 1.2,-42 -37.7,-76.3 -86.5,-76.3"
           style="fill:#e5ecfd;fill-opacity:1;fill-rule:nonzero;stroke:none"
           id="path190" /></g><g
         id="g192"
         transform="scale(1.64067)"><path
           d="m 15163.6,16091.7 h -2734.5 c -50.1,0 -104.7,38.6 -121.4,85.9 l -13.4,38.1 c -16.4,46.7 10.1,84.3 59.1,84.3 0.6,0 1.1,0 1.7,0 l 2803.9,-50 c 50,-0.9 92.1,-36.9 93.3,-79.9 1.3,-43.1 -38.7,-78.4 -88.7,-78.4"
           style="fill:#e5ecfd;fill-opacity:1;fill-rule:nonzero;stroke:none"
           id="path194" /></g><g
         id="g196"
         transform="scale(1.5962)"><path
           d="m 15586,16085.9 h -2810.7 c -51.5,0 -107.6,39.7 -124.7,88.3 l -13.8,39.2 c -16.9,47.9 10.4,86.6 60.7,86.6 0.6,0 1.2,0 1.8,0 l 2882,-51.4 c 51.4,-0.9 94.7,-37.9 95.9,-82.2 1.3,-44.3 -39.8,-80.5 -91.2,-80.5"
           style="fill:#e5ecfd;fill-opacity:1;fill-rule:nonzero;stroke:none"
           id="path198" /></g><g
         id="g200"
         transform="scale(1.56263)"><path
           d="M 16206.8,14194.6 H 9474.69 c -52.6,0 -122.42,33.7 -155.18,74.8 l -56.38,70.8 c -32.58,40.9 -16.71,74.1 35.13,74.1 0.32,0 0.64,0 0.96,0 l 6896.68,-54.4 c 52.6,-0.4 98.1,-37.7 101.1,-83 3,-45.3 -37.6,-82.3 -90.2,-82.3"
           style="fill:#e5ecfd;fill-opacity:1;fill-rule:nonzero;stroke:none"
           id="path202" /></g><g
         id="g204"
         transform="scale(1.56263)"><path
           d="M 16206.8,13608.1 H 9474.69 c -52.6,0 -122.42,33.7 -155.18,74.9 l -56.38,70.8 c -32.58,40.9 -16.71,74 35.13,74 0.32,0 0.64,0 0.96,0 l 6896.68,-54.4 c 52.6,-0.4 98.1,-37.7 101.1,-83 3,-45.2 -37.6,-82.3 -90.2,-82.3"
           style="fill:#e5ecfd;fill-opacity:1;fill-rule:nonzero;stroke:none"
           id="path206" /></g><g
         id="g208"
         transform="scale(1.11558)"><path
           d="m 13280,16172.2 c -32.3,-2.2 -61.9,-16.6 -81.1,-39.4 -15.8,-18.8 -23.1,-41.8 -20.7,-65 l 71.6,-684 c 7.7,-73.5 77.4,-129.5 162.1,-130.3 l 815.3,-7.9 h 1.6 c 79,0 144.5,55.6 146.2,124.7 8,311.9 11.7,604.1 -28.5,753.1 -18,66.8 -87.5,113.2 -167.1,113.4 -148.7,-1.8 -415.8,-24.6 -630.5,-42.8 -102.7,-8.8 -199.7,-17.1 -268.9,-21.8 m 948.8,-989.2 h -2.3 l -815.2,7.8 c -116.6,1.2 -212.7,81.3 -223.8,186.4 l -71.6,684.1 c -4.2,40.2 8.3,79.9 35.1,111.9 30.1,35.6 75.5,58.1 124.7,61.5 68.8,4.7 165.5,12.9 267.9,21.6 215.6,18.4 484,41.3 635,43.2 109.6,0.5 202.5,-64.3 228.3,-159.8 42.5,-157 38.8,-454.3 30.7,-771 -2.6,-102.8 -96,-185.7 -208.8,-185.7"
           style="fill:#ffffff;fill-opacity:1;fill-rule:nonzero;stroke:none"
           id="path210" /></g><g
         id="g212"
         transform="scale(1.10554)"><path
           d="m 14255.9,15450.2 c -0.5,0 -1.1,0 -1.6,0 l -657.4,6.2 c -80.9,0.8 -148,56 -155.5,127.8 l -57.8,551.6 c -6,57.1 41.4,107.6 105.5,112 172.8,11.8 548.5,49.9 726.7,52.2 0.7,0 1.5,0 2.2,0 74.6,0 139.6,-45.4 157.1,-110.2 34.4,-127.1 29.9,-380.5 23.9,-614.4 -1.8,-69.6 -65.3,-125.2 -143.1,-125.2"
           style="fill:#e5ecfd;fill-opacity:1;fill-rule:nonzero;stroke:none"
           id="path214" /></g><g
         id="g216"
         transform="scale(1.56317)"><path
           d="m 10805.4,11052.1 c -65.6,0 -123,44.2 -139.7,107.6 -24.2,91.7 44.9,181.4 139.6,181.4 0.3,0 0.5,0 0.7,0 l 5383.9,-24.6 c 59.2,-0.2 107.5,-47.6 108.8,-106.8 1.3,-60.9 -47.4,-111.1 -108.3,-111.7 l -5383.8,-45.9 c -0.4,0 -0.8,0 -1.2,0"
           style="fill:#e5ecfd;fill-opacity:1;fill-rule:nonzero;stroke:none"
           id="path218" /></g><path
         d="m 14814.9,16091.9 c -36.1,-2.4 -69.1,-18.5 -90.5,-43.9 -17.6,-21 -25.8,-46.7 -23.1,-72.5 l 79.9,-763.1 c 8.6,-82 86.3,-144.5 180.8,-145.5 l 909.5,-8.7 h 1.8 c 88.2,0 161.2,62.1 163.1,139.2 8.9,347.9 13.1,673.9 -31.8,840.1 -20.1,74.4 -98.7,127.9 -186.4,126.5 -165.9,-2.1 -463.9,-27.4 -703.4,-47.8 -114.5,-9.8 -222.7,-19 -299.9,-24.3 m 1058.4,-1103.5 h -2.5 l -909.5,8.7 c -130,1.3 -237.3,90.7 -249.6,208 l -79.9,763.1 c -4.7,44.8 9.2,89.1 39.1,124.7 33.6,39.9 84.3,64.9 139.2,68.7 76.7,5.2 184.6,14.4 298.8,24.2 240.6,20.4 540,45.9 708.4,48.1 1.3,0 2.5,0 3.7,0 119.6,0 222.5,-72.9 251,-178.2 47.4,-175.2 43.3,-506.8 34.2,-860.1 -2.9,-114.7 -107.1,-207.2 -232.9,-207.2"
         style="fill:#ffffff;fill-opacity:1;fill-rule:nonzero;stroke:none"
         id="path220" /><path
         d="m 15760.5,15131.3 c -0.6,0 -1.2,0 -1.8,0 l -726.8,7 c -89.4,0.9 -163.6,61.8 -171.9,141.2 l -63.9,609.9 c -6.6,63 45.8,118.9 116.6,123.7 191.1,13.1 606.4,55.3 803.4,57.7 0.8,0 1.7,0 2.5,0 82.4,0 154.3,-50.1 173.7,-121.7 38,-140.6 33,-420.8 26.4,-679.3 -2,-77 -72.2,-138.5 -158.2,-138.5"
         style="fill:#e5ecfd;fill-opacity:1;fill-rule:nonzero;stroke:none"
         id="path222" /><g
         id="g224"
         transform="scale(1.56317)"><path
           d="m 10805.4,9805.04 c -65.6,0 -123,44.14 -139.7,107.6 -24.2,91.66 44.9,181.26 139.7,181.26 0.2,0 0.4,0 0.6,0 l 5383.9,-24.5 c 59.2,-0.3 107.5,-47.6 108.8,-106.86 1.3,-60.9 -47.4,-111.12 -108.3,-111.63 l -5383.8,-45.87 c -0.4,0 -0.8,0 -1.2,0"
           style="fill:#e5ecfd;fill-opacity:1;fill-rule:nonzero;stroke:none"
           id="path226" /></g><path
         d="m 14814.9,14142.5 c -36.1,-2.5 -69.1,-18.5 -90.5,-43.9 -17.6,-21 -25.8,-46.8 -23.1,-72.5 l 79.9,-763.2 c 8.6,-82 86.3,-144.5 180.7,-145.4 l 909.6,-8.7 h 1.8 c 88.2,0 161.2,62.1 163.1,139.2 8.9,347.9 13.1,673.9 -31.8,840 -20.1,74.5 -98.7,128.2 -186.4,126.6 -165.9,-2.1 -463.9,-27.5 -703.4,-47.9 -114.5,-9.7 -222.7,-18.9 -299.9,-24.2 m 1058.4,-1103.6 h -2.5 l -909.5,8.8 c -130,1.2 -237.3,90.6 -249.6,207.9 l -79.9,763.2 c -4.7,44.8 9.2,89.1 39.2,124.7 33.5,39.9 84.2,64.9 139.1,68.7 76.7,5.2 184.6,14.4 298.8,24.1 240.6,20.5 540,46 708.4,48.1 1.3,0 2.5,0.1 3.7,0.1 119.6,0 222.5,-72.9 251,-178.2 47.4,-175.2 43.3,-506.8 34.2,-860.1 -2.9,-114.8 -107.1,-207.3 -232.9,-207.3"
         style="fill:#ffffff;fill-opacity:1;fill-rule:nonzero;stroke:none"
         id="path228" /><path
         d="m 15760.5,13181.9 c -0.6,0 -1.2,0 -1.8,0 l -726.8,7 c -89.4,0.8 -163.6,61.8 -171.9,141.2 l -63.9,609.8 c -6.6,63.1 45.8,119 116.6,123.8 191.1,13.1 606.4,55.2 803.4,57.7 0.8,0 1.7,0 2.5,0 82.4,0 154.3,-50.1 173.7,-121.8 38,-140.5 33,-420.7 26.4,-679.3 -2,-76.9 -72.2,-138.4 -158.2,-138.4"
         style="fill:#e5ecfd;fill-opacity:1;fill-rule:nonzero;stroke:none"
         id="path230" /><g
         id="g232"
         transform="scale(1.56317)"><path
           d="m 10805.4,8557.89 c -65.6,0 -123,44.2 -139.7,107.67 -24.2,91.67 44.9,181.3 139.7,181.3 0.2,0 0.4,0 0.6,0 l 5383.9,-24.57 c 59.2,-0.26 107.5,-47.66 108.8,-106.83 1.3,-60.91 -47.4,-111.13 -108.3,-111.64 l -5383.8,-45.93 c -0.4,0 -0.8,0 -1.2,0"
           style="fill:#e5ecfd;fill-opacity:1;fill-rule:nonzero;stroke:none"
           id="path234" /></g><path
         d="m 14814.9,12193.1 c -36.1,-2.5 -69.1,-18.5 -90.5,-44 -17.6,-20.9 -25.8,-46.7 -23.1,-72.5 l 79.9,-763.1 c 8.6,-82 86.3,-144.5 180.7,-145.4 l 909.6,-8.7 h 1.8 c 88.2,0 161.2,62.1 163.1,139.1 8.9,347.9 13.1,674 -31.8,840.1 -20.1,74.4 -98.7,128.5 -186.4,126.6 -165.9,-2.1 -463.9,-27.5 -703.4,-47.9 -114.5,-9.8 -222.7,-19 -299.9,-24.2 m 1058.4,-1103.6 h -2.5 l -909.5,8.7 c -130,1.3 -237.3,90.7 -249.6,208 l -79.9,763.1 c -4.7,44.8 9.2,89.1 39.2,124.8 33.5,39.8 84.2,64.9 139.1,68.7 76.7,5.2 184.6,14.4 298.8,24.1 240.6,20.5 540,46 708.4,48.1 1.3,0 2.5,0 3.7,0 119.6,0 222.5,-72.8 251,-178.2 47.4,-175.2 43.3,-506.8 34.2,-860 -2.9,-114.8 -107.1,-207.3 -232.9,-207.3"
         style="fill:#ffffff;fill-opacity:1;fill-rule:nonzero;stroke:none"
         id="path236" /><path
         d="m 15760.5,11232.5 c -0.6,0 -1.2,0 -1.8,0 l -726.8,7 c -89.4,0.8 -163.6,61.7 -171.9,141.1 l -63.9,609.9 c -6.6,63.1 45.8,118.9 116.6,123.8 191.1,13 606.4,55.2 803.4,57.7 0.8,0 1.7,0 2.5,0 82.4,0 154.3,-50.2 173.7,-121.8 38,-140.5 33,-420.7 26.4,-679.3 -2,-76.9 -72.2,-138.4 -158.2,-138.4"
         style="fill:#e5ecfd;fill-opacity:1;fill-rule:nonzero;stroke:none"
         id="path238" /><g
         id="g240"
         transform="scale(1.56317)"><path
           d="m 10805.4,7310.8 c -65.6,0 -123,44.15 -139.7,107.61 -24.2,91.67 44.9,181.36 139.7,181.36 0.2,0 0.4,0 0.6,0 l 5383.9,-24.57 c 59.2,-0.25 107.5,-47.65 108.8,-106.83 1.3,-60.9 -47.4,-111.12 -108.3,-111.63 l -5383.8,-45.94 c -0.4,0 -0.8,0 -1.2,0"
           style="fill:#e5ecfd;fill-opacity:1;fill-rule:nonzero;stroke:none"
           id="path242" /></g><g
         id="g244"
         transform="scale(1.2196)"><path
           d="m 12081.6,16183.7 c -29.7,-2.1 -56.7,-15.2 -74.2,-36.1 -14.5,-17.2 -21.3,-38.3 -19.1,-59.5 l 65.6,-625.7 c 7,-67.2 70.8,-118.5 148.2,-119.2 l 745.8,-7.1 h 1.5 c 72.2,0 132.1,50.9 133.7,114 7.3,285.4 10.8,552.7 -26,688.9 -16.6,61 -81,105.3 -152.9,103.8 -136.1,-1.8 -380.4,-22.6 -576.7,-39.3 -93.9,-8 -182.7,-15.6 -245.9,-19.8 m 867.8,-904.9 h -2.1 l -745.8,7.1 c -106.5,1.1 -194.5,74.4 -204.5,170.5 l -65.6,625.7 c -3.9,36.8 7.6,73.1 32.1,102.4 27.5,32.6 69.1,53.2 114.1,56.3 62.8,4.3 151.3,11.8 245,19.8 197.2,16.8 442.7,37.7 580.9,39.4 1,0 1.9,0 3,0 98.1,0 182.5,-59.7 205.8,-146.1 38.9,-143.6 35.4,-415.6 28.1,-705.2 -2.4,-94.1 -87.9,-169.9 -191,-169.9"
           style="fill:#ffffff;fill-opacity:1;fill-rule:nonzero;stroke:none"
           id="path246" /></g><g
         id="g248"
         transform="scale(1.2096)"><path
           d="m 12963.2,15523.3 c -0.5,0 -1,0 -1.5,0 l -600.9,5.8 c -73.9,0.6 -135.3,51.1 -142.1,116.6 l -52.9,504.2 c -5.4,52.2 38,98.3 96.5,102.4 158,10.8 501.3,45.6 664.1,47.7 0.8,0 1.4,0 2.2,0 68.1,0 127.5,-41.4 143.6,-100.7 31.4,-116.1 27.2,-347.8 21.8,-561.6 -1.7,-63.6 -59.7,-114.4 -130.8,-114.4"
           style="fill:#e5ecfd;fill-opacity:1;fill-rule:nonzero;stroke:none"
           id="path250" /></g><g
         id="g252"
         transform="scale(1.55824)"><path
           d="m 10788,12175.6 c -65.7,0 -123.3,44.3 -140.1,107.9 -24.2,92.1 45.1,182 140.1,182 0.3,0 0.5,0 0.7,0 l 5400.9,-24.7 c 59.4,-0.2 107.8,-47.8 109.1,-107.1 1.3,-61.1 -47.5,-111.5 -108.6,-112 l -5400.8,-46.1 c -0.5,0 -0.8,0 -1.3,0"
           style="fill:#e5ecfd;fill-opacity:1;fill-rule:nonzero;stroke:none"
           id="path254" /></g><g
         id="g256"><g
           id="g258"
           clip-path="url(#clipPath262)"><g
             id="g264"
             transform="scale(1.98644)"><path
               d="m 9873.48,15619.8 c -100.33,0 -181.63,81.3 -181.63,181.6 0,100.4 81.3,181.7 181.63,181.7 100.34,0 181.72,-81.3 181.72,-181.7 0,-100.3 -81.38,-181.6 -181.72,-181.6 z m 320.42,539.1 c -231.97,161.3 -433.63,158.1 -575.6,116.3 -129.52,-38.3 -213.44,-163.3 -201.11,-297.8 l 61.22,-668.2 728.49,-64.7 c 0,0 441.8,598 -13,914.4"
               style="fill:url(#linearGradient270);fill-opacity:1;fill-rule:nonzero;stroke:none"
               id="path272" /></g></g></g><g
         id="g274"
         transform="scale(1.9753)"><path
           d="m 9585.84,15888 c -9.01,0 -16.76,6.9 -17.57,16 l -7.49,81.3 c -11.79,128.8 69.26,248.8 192.73,285.2 87.48,25.8 177.54,29.5 267.79,11 9.5,-2 15.7,-11.3 13.7,-20.9 -1.9,-9.5 -11.1,-15.6 -20.8,-13.7 -84.51,17.3 -168.85,13.8 -250.66,-10.3 -107.33,-31.7 -177.8,-136 -167.52,-248.1 l 7.44,-81.2 c 0.91,-9.8 -6.28,-18.4 -16,-19.3 -0.56,0 -1.06,0 -1.62,0 z m 19.24,-209.8 c -9.06,0 -16.76,6.9 -17.62,16.1 l -9.77,107 c -0.91,9.8 6.23,18.4 15.95,19.3 9.92,0.9 18.37,-6.3 19.23,-16 l 9.83,-107.1 c 0.86,-9.7 -6.28,-18.3 -16,-19.2 -0.56,0 -1.11,-0.1 -1.62,-0.1"
           style="fill:#91b3fa;fill-opacity:1;fill-rule:nonzero;stroke:none"
           id="path276" /></g><g
         id="g278"><g
           id="g280"
           clip-path="url(#clipPath284)"><g
             id="g286"
             transform="scale(1.87902)"><path
               d="m 8969.1,15727.9 v 355.2 c 0,122.6 101.65,220.8 224.16,216.6 l 2448.84,-83.9 c 108.7,-3.8 196.7,-89.5 203.2,-198.1 l 20.5,-341.3 -2896.7,51.5"
               style="fill:url(#linearGradient292);fill-opacity:1;fill-rule:nonzero;stroke:none"
               id="path294" /></g></g></g><g
         id="g296"
         transform="scale(1.86784)"><path
           d="m 9941.39,16262.6 h -105.95 c -10.33,0 -18.68,8.4 -18.68,18.7 0,10.3 8.35,18.7 18.68,18.7 h 105.95 c 10.33,0 18.69,-8.4 18.69,-18.7 0,-10.3 -8.36,-18.7 -18.69,-18.7"
           style="fill:#91b3fa;fill-opacity:1;fill-rule:nonzero;stroke:none"
           id="path298" /></g><g
         id="g300"
         transform="scale(1.86784)"><path
           d="m 9156.15,15934.2 c -10.33,0 -18.68,8.4 -18.68,18.7 v 144.6 c 0,111.6 90.85,202.5 202.53,202.5 h 389.49 c 10.33,0 18.68,-8.4 18.68,-18.7 0,-10.3 -8.35,-18.7 -18.68,-18.7 H 9340 c -91.07,0 -165.16,-74.1 -165.16,-165.1 v -144.6 c 0,-10.3 -8.35,-18.7 -18.69,-18.7"
           style="fill:#91b3fa;fill-opacity:1;fill-rule:nonzero;stroke:none"
           id="path302" /></g><g
         id="g304"><g
           id="g306"
           clip-path="url(#clipPath310)"><g
             id="g312"
             transform="scale(1.82806)"><path
               d="m 8193.48,16074.1 c 6.07,126.4 110.39,225.8 236.92,225.8 l 4401.6,0.1 c 158.3,0 293.6,-113.9 320.6,-269.8 l 3.8,-21.6 c 29.5,-170.8 -102,-327 -275.3,-327 H 8365.24 c -103.77,0 -186.42,86.7 -181.44,190.4 l 9.68,202.1"
               style="fill:url(#linearGradient318);fill-opacity:1;fill-rule:nonzero;stroke:none"
               id="path320" /></g></g></g><g
         id="g322"><g
           id="g324"
           clip-path="url(#clipPath328)"><g
             id="g330"
             transform="scale(1.66966)"><path
               d="m 9488.53,14417.8 c 0,73.6 19.77,130.3 59.41,169.9 39.59,39.6 97.21,59.4 172.73,59.4 76.43,0 134.22,-20.3 173.39,-60.8 39.11,-40.6 58.7,-96.7 58.7,-168.5 0,-70.8 -20.06,-126.8 -60.13,-167.8 -40.07,-41 -97.39,-61.5 -171.96,-61.5 -74.62,0 -131.94,20 -172.01,60.1 -40.12,40.1 -60.13,96.5 -60.13,169.2 z m 65.7,467 v 97.9 c 0,89.5 13.78,167.6 41.27,234.3 27.49,66.6 77.62,138.2 150.33,214.6 68.94,75.5 113.02,134.7 132.12,177.6 19.11,42.9 28.69,97.4 28.69,163.6 0,60.6 -14.01,110 -41.98,148.2 -27.91,38.3 -72.23,57.4 -132.85,57.4 -100.68,0 -206.51,-35.9 -317.43,-107.7 l -131.4,279.7 c 146.32,99.7 308.51,149.6 486.63,149.6 153.8,0 275.19,-42.7 364.29,-127.9 89,-85.3 133.5,-204 133.5,-355.9 0,-106.3 -15.4,-196.5 -46.1,-270.6 -30.8,-74.1 -94.7,-163.4 -191.6,-267.8 -62.51,-68.1 -102.34,-120.5 -119.59,-157.3 -17.25,-36.9 -25.87,-86.9 -25.87,-150.4 v -85.3 h -330.01"
               style="fill:url(#linearGradient336);fill-opacity:1;fill-rule:nonzero;stroke:none"
               id="path338" /></g></g></g><g
         id="g340"><g
           id="g342"
           clip-path="url(#clipPath346)"><path
             d="m 10881.3,5433.9 c 0,0 -52.8,-298.5 -78.6,-594.1 -10.1,-115.5 78.9,-215.8 194.8,-220.6 393.5,-16.4 1235.4,-48.3 1537.4,-34.8 45.5,2 75.2,48.5 58.3,90.8 -14,35.4 -41.2,64 -75.8,79.9 l -1390.6,639.1 -245.5,39.7"
             style="fill:url(#linearGradient352);fill-opacity:1;fill-rule:nonzero;stroke:none"
             id="path354" /></g></g><g
         id="g356"><g
           id="g358"
           clip-path="url(#clipPath362)"><path
             d="m 10838.1,5609.3 42.3,-357.1 c 0,0 243.6,-113.4 410,14.3 l -100.9,398 -351.4,-55.2"
             style="fill:url(#linearGradient368);fill-opacity:1;fill-rule:nonzero;stroke:none"
             id="path370" /></g></g><g
         id="g372"><g
           id="g374"
           clip-path="url(#clipPath378)"><path
             d="m 10869.9,12323 c -18.3,-93.2 -98.2,-4653.7 389.2,-6697.4 8,-33.3 -8.9,-67.7 -40.6,-80.7 -74.8,-30.5 -221.4,-74.7 -397.1,-80.6 -54.4,-1.9 -103.1,33.5 -118.5,85.7 -139.3,474.2 -807.03,2849.9 -894.14,5119.3 -97.32,2535.9 0,86.4 0,86.4 l 57.09,1567.5 1004.05,-0.2"
             style="fill:url(#linearGradient384);fill-opacity:1;fill-rule:nonzero;stroke:none"
             id="path386" /></g></g><g
         id="g388"><g
           id="g390"
           clip-path="url(#clipPath394)"><path
             d="m 9281.64,5278.2 c 0,0 -83.94,-150.8 -165.22,-551.3 -14.68,-72.3 35.86,-141.5 109.31,-148.7 129.96,-12.8 330.02,-29.3 490.27,-28.2 73.87,0.6 131.53,64.9 122.62,138.2 -17.75,146.2 -73.05,386 -243.88,573 l -313.1,17"
             style="fill:url(#linearGradient400);fill-opacity:1;fill-rule:nonzero;stroke:none"
             id="path402" /></g></g><g
         id="g404"><g
           id="g406"
           clip-path="url(#clipPath410)"><path
             d="m 9207.91,5737.5 99,-540.1 c 0,0 97.89,-72.8 291.53,-20 l -47.25,581 -343.28,-20.9"
             style="fill:url(#linearGradient416);fill-opacity:1;fill-rule:nonzero;stroke:none"
             id="path418" /></g></g><g
         id="g420"><g
           id="g422"
           clip-path="url(#clipPath426)"><path
             d="m 8940.45,12183.1 c -398.69,-2406.1 86.49,-5947 250.12,-6640 10.02,-42.4 44.26,-74.9 87.26,-82.1 73.04,-12.1 193.29,-21.9 311.84,12.5 40.85,11.9 69.54,48.7 71.21,91.2 21.95,560.3 -17.56,3999.9 353.92,5359.3 18.8,68.9 60.9,128.9 119.1,170.3 l 721.1,512.6 55.2,828.6 -1969.75,-252.4"
             style="fill:url(#linearGradient432);fill-opacity:1;fill-rule:nonzero;stroke:none"
             id="path434" /></g></g><g
         id="g436"><g
           id="g438"
           clip-path="url(#clipPath442)"><g
             id="g444"
             transform="scale(1.03911)"><path
               d="m 11048.8,16112.1 c -1149.85,19 -2418.53,-301.9 -2418.53,-301.9 -342.75,-1999.9 -59.94,-4306.6 -59.94,-4306.6 890.17,-233.5 1894.27,142.7 1894.27,142.7 148,835.9 838.3,3188.4 838.3,3188.4 561.9,69.7 1024.7,231.8 1405.8,446.1 -290.8,337 -427.8,765.8 -487.4,1019.2 -406.5,-126.3 -817.9,-193.8 -1172.5,-187.9"
               style="fill:url(#linearGradient450);fill-opacity:1;fill-rule:nonzero;stroke:none"
               id="path452" /></g></g></g><g
         id="g454"><g
           id="g456"
           clip-path="url(#clipPath460)"><g
             id="g462"
             transform="scale(1.14067)"><path
               d="m 13159.1,16220.3 c -103,124.3 -233.2,65.5 -233.2,65.5 -154.2,-651.1 -962.4,-1179 -1792.8,-1437.1 54.3,-230.9 179.2,-621.5 444,-928.5 1378,774.8 1582,2300.1 1582,2300.1"
               style="fill:url(#linearGradient468);fill-opacity:1;fill-rule:nonzero;stroke:none"
               id="path470" /></g></g></g><g
         id="g472"><g
           id="g474"
           clip-path="url(#clipPath478)"><g
             id="g480"
             transform="scale(1.21118)"><path
               d="m 12369.5,15246.3 c 10.1,-32.3 -107.4,-81.3 -176.5,50.5 -2.4,63.2 -40.8,333.9 -3,385.4 201,274.1 590.9,617.8 590.9,617.8 65.9,-65.1 11.6,-128.9 11.6,-128.9 l -189.1,-197.1 c 39.5,-71.4 87.8,-131.7 110.4,-218.3 17.1,-65.4 6.6,-135.4 -26.5,-195 -33.2,-59.8 -78.4,-137.5 -121.2,-198.4 -81.1,-115.2 -196.6,-116 -196.6,-116"
               style="fill:url(#linearGradient486);fill-opacity:1;fill-rule:nonzero;stroke:none"
               id="path488" /></g></g></g><g
         id="g490"><g
           id="g492"
           clip-path="url(#clipPath496)"><g
             id="g498"
             transform="scale(1.17747)"><path
               d="m 12879.2,16300 -177.3,-150.3 -55.7,-149.6 158.1,-175.4 c 0,0 53.1,297 92.6,361.2 39.5,64.2 19.1,95.3 -17.7,114.1"
               style="fill:url(#linearGradient504);fill-opacity:1;fill-rule:nonzero;stroke:none"
               id="path506" /></g></g></g><g
         id="g508"><g
           id="g510"
           clip-path="url(#clipPath514)"><g
             id="g516"
             transform="scale(1.00788)"><path
               d="M 9352.34,15152.2 8897.66,16300 c 0,0 -1107.29,-752.4 -1289.39,-1706.2 209.22,-15.4 589.93,-69.9 962.58,-258 81.9,450.4 781.49,816.4 781.49,816.4"
               style="fill:url(#linearGradient522);fill-opacity:1;fill-rule:nonzero;stroke:none"
               id="path524" /></g></g></g><g
         id="g526"><g
           id="g528"
           clip-path="url(#clipPath532)"><path
             d="m 10401.3,14183 c 0,0 -1252.96,-708.2 -1675.74,-103.5 -87.78,125.6 -108.76,250.3 -87.14,369.3 -375.59,189.6 -759.3,244.5 -970.17,260 -55.34,-289.8 -26.08,-598.1 144.23,-909.6 740.57,-1354.7 2754.72,74.8 2754.72,74.8 l -165.9,309"
             style="fill:url(#linearGradient538);fill-opacity:1;fill-rule:nonzero;stroke:none"
             id="path540" /></g></g><g
         id="g542"><g
           id="g544"
           clip-path="url(#clipPath548)"><path
             d="m 10250.8,13287.1 683.8,2388.1 c 7.8,27.1 30.9,46.9 58.9,50.2 123.9,14.4 482.9,55 897.5,90.1 499.3,42.2 1079.1,76.4 1425.6,47.3 49.2,-4.1 79,-56.2 57.1,-100.5 -197,-398.7 -1007.5,-2020.2 -1413.4,-2551.4 -13.4,-17.6 -34.2,-27.9 -56.4,-27.7 l -1586.6,14.8 c -46.2,0.4 -79.2,44.7 -66.5,89.1"
             style="fill:url(#linearGradient554);fill-opacity:1;fill-rule:nonzero;stroke:none"
             id="path556" /></g></g><path
         d="m 11961.9,16022.5 495.8,82.6 c 26.4,4.4 48,-20.8 39.6,-46.2 l -49,-148.7 c -4.3,-13 -15.6,-22.4 -29.1,-24.2 l -477.1,-63.7 c -24.7,-3.3 -45.1,19.1 -39.4,43.4 l 30.4,129.8 c 3.3,14 14.6,24.7 28.8,27"
         style="fill:#91b3fa;fill-opacity:1;fill-rule:nonzero;stroke:none"
         id="path558" /><path
         d="m 11590.7,15602.8 40.8,212.7 c 4.1,21.4 21.7,37.5 43.3,39.7 l 1001.4,101.6 c 33.7,3.4 60.7,-27.5 52.8,-60.4 l -63.7,-265.1 c -5.1,-21.2 -23.5,-36.5 -45.3,-37.6 l -978.6,-49.3 c -31.8,-1.6 -56.8,27.1 -50.7,58.4"
         style="fill:#91b3fa;fill-opacity:1;fill-rule:nonzero;stroke:none"
         id="path560" /><g
         id="g562"><g
           id="g564"
           clip-path="url(#clipPath568)"><path
             d="m 10416,13864.1 c 0,0 -95.2,391.7 -56.8,530.6 38.4,139 112.9,317.7 361,278 248.2,-39.7 540.9,-144.3 540.9,-144.3 0,0 -14.8,-181 -203.4,-122.6 l 117,-90.5 c 0,0 -16.8,-144.9 -176.1,-67.5 l 108.8,-120 c 0,0 -68.4,-119 -185.6,-42.7 -117.2,76.4 -173.4,-268.2 -505.8,-221"
             style="fill:url(#linearGradient574);fill-opacity:1;fill-rule:nonzero;stroke:none"
             id="path576" /></g></g><g
         id="g578"><g
           id="g580"
           clip-path="url(#clipPath584)"><g
             id="g586"
             transform="scale(1.08664)"><path
               d="m 9451.81,16300 -349.86,-1011.7 c -5.8,-16.8 1.09,-35.4 16.61,-43.9 95.36,-52.8 438.99,-205.2 853.02,57.4 43.12,27.3 72.52,71.9 79.02,122.6 l 113.3,875.6 h -712.09"
               style="fill:url(#linearGradient592);fill-opacity:1;fill-rule:nonzero;stroke:none"
               id="path594" /></g></g></g><g
         id="g596"><g
           id="g598"
           clip-path="url(#clipPath602)"><g
             id="g604"
             transform="scale(1.1491)"><path
               d="m 9657.92,16300 c 0,0 363.28,-683.8 316.69,-960.1 -46.56,-276.3 -496.83,-256.4 -890.01,-32.1 l -274.73,738.4 848.05,253.8"
               style="fill:url(#linearGradient610);fill-opacity:1;fill-rule:nonzero;stroke:none"
               id="path612" /></g></g></g><g
         id="g614"><g
           id="g616"
           clip-path="url(#clipPath620)"><g
             id="g622"
             transform="scale(1.18417)"><path
               d="m 8832.42,15206.3 c 15.54,6.9 21.19,25.9 11.99,40.1 -28.29,43.1 -81.24,131.2 -98.13,208.2 0,0 -63.33,40.6 161.3,94.4 224.71,53.8 559.71,137.2 630.14,328.5 68.66,186.5 -111.72,655.3 -399.52,281.7 -10.98,-14.2 -32.43,-14.5 -43.32,-0.3 -47.21,61.5 -171.26,188.9 -343.53,111.6 -161.13,-72.3 -179.28,-190.4 -177.09,-249.9 0.68,-17.5 -15.03,-31.1 -32.17,-27.8 -81.49,15.5 -277.06,28.9 -368.34,-171.8 -75.17,-165.2 -26.31,-258.7 18.19,-304.5 14.42,-14.8 8.1,-39.2 -11.67,-45.3 -53.55,-16.3 -122.71,-61.8 -115.79,-187.2 9.58,-173.4 203.5,-158.2 258.72,-150.3 9.05,1.4 18.17,-1.8 24.29,-8.5 47.35,-52.5 260.64,-274.9 491.51,-301.8 20.02,-2.2 35.47,17.5 28.97,36.5 l -99.9,290.4 c -4.64,13.5 1.77,28.3 14.78,34.1 l 49.57,21.9"
               style="fill:url(#linearGradient628);fill-opacity:1;fill-rule:nonzero;stroke:none"
               id="path630" /></g></g></g><g
         id="g632"><g
           id="g634"
           clip-path="url(#clipPath638)"><g
             id="g640"
             transform="scale(1.10791)"><path
               d="m 9483.32,16208.9 c 0,0 -268.34,184.2 -287.93,29.1 -19.59,-155 241.63,-224.5 370.96,-166.7 l -83.03,137.6"
               style="fill:url(#linearGradient646);fill-opacity:1;fill-rule:nonzero;stroke:none"
               id="path648" /></g></g></g><g
         id="g650"><g
           id="g652"
           clip-path="url(#clipPath656)"><g
             id="g658"
             transform="scale(1.6765)"><path
               d="m 14704.5,10848.9 c 11.6,22.3 44.6,18.8 51.4,-5.5 24.9,-89.8 85.3,-246.6 212.1,-302.3 6.4,-2.8 12.4,-5.6 18.2,-8.4 5.8,17.2 5.9,37.2 -7.9,58.3 -39.4,60.2 31.7,142.5 31.7,142.5 0,0 4.8,-72.5 59.8,-118.1 47.4,-39.3 70.2,-126.7 37.8,-198.4 -68.6,-266.5 -171.3,-618.89 228.8,-876.33 400.1,-257.44 963.6,485.93 963.6,485.93 l -279.7,-886.65 c 0,0 -431.7,-318.52 -933.7,129.38 -502.1,447.96 -169.4,1099.77 -169.4,1099.77 0,0 -382.9,154.5 -212.7,479.8"
               style="fill:url(#linearGradient664);fill-opacity:1;fill-rule:nonzero;stroke:none"
               id="path666" /></g></g></g><g
         id="g668"><g
           id="g670"
           clip-path="url(#clipPath674)"><g
             id="g676"
             transform="scale(1.86196)"><path
               d="m 14739.4,10200.7 c 0,0 -104.3,468.2 432,344.2 0,0 260.3,42.6 273.5,-203.1 0,0 167.8,-110.6 44.9,-323.2 0,0 498.8,192.6 716,-244.51 217.3,-437.12 17.6,-677.62 -191.8,-740.24 0,0 169.6,-85.18 89.3,-277.5 -80.3,-192.32 -486.9,-327.88 -727.1,-93.99 0,0 -683.5,-90.33 -669.8,392.44 0,0 -317.9,205.26 16,604.25 333.9,398.95 17,541.65 17,541.65"
               style="fill:url(#linearGradient682);fill-opacity:1;fill-rule:nonzero;stroke:none"
               id="path684" /></g></g></g><g
         id="g686"><g
           id="g688"
           clip-path="url(#clipPath692)"><g
             id="g694"
             transform="scale(1.76945)"><path
               d="m 15479.1,9592.15 c 113.4,33.96 443.6,96.75 757.7,-193.12 53.2,-49.11 75,-123.82 56,-193.78 -84.4,-310.55 -306.9,-1228.02 -111.8,-1625.03 0,0 -343.9,-379.1 -719.1,-73.53 0,0 -168.3,733.62 -388.8,1055.7 -152.2,222.33 242.8,834.95 342.7,982.96 15.1,22.44 37.4,39 63.3,46.8"
               style="fill:url(#linearGradient700);fill-opacity:1;fill-rule:nonzero;stroke:none"
               id="path702" /></g></g></g><g
         id="g704"><g
           id="g706"
           clip-path="url(#clipPath710)"><g
             id="g712"
             transform="scale(1.7339)"><path
               d="m 16116,10418.4 c 0,0 171.1,-484.1 184,-697.67 0,0 -189.2,-85.99 -367.4,59.18 0,0 -18.7,483.49 -45.7,570.09 l 229.1,68.4"
               style="fill:url(#linearGradient718);fill-opacity:1;fill-rule:nonzero;stroke:none"
               id="path720" /></g></g></g><g
         id="g722"><g
           id="g724"
           clip-path="url(#clipPath728)"><g
             id="g730"
             transform="scale(1.73706)"><path
               d="m 15849.4,11058.4 c 0,0 -446.8,-625.4 -179.7,-807 267.1,-181.7 585.2,262.8 585.2,262.8 0,0 103.6,342.2 -4.8,458.3 -108.4,116.1 -400.7,85.9 -400.7,85.9"
               style="fill:url(#linearGradient736);fill-opacity:1;fill-rule:nonzero;stroke:none"
               id="path738" /></g></g></g><g
         id="g740"><g
           id="g742"
           clip-path="url(#clipPath746)"><g
             id="g748"
             transform="scale(1.75031)"><path
               d="m 15934.7,11122.9 c 0,0 -203.7,-48.3 -232.3,-140.4 -28.5,-92.2 288.9,-177.7 377.9,-181.9 l 71.6,-371.9 c 0,0 211.9,349.9 127.9,552 -83.8,202.1 -345.1,142.2 -345.1,142.2"
               style="fill:url(#linearGradient754);fill-opacity:1;fill-rule:nonzero;stroke:none"
               id="path756" /></g></g></g><g
         id="g758"><g
           id="g760"
           clip-path="url(#clipPath764)"><g
             id="g766"
             transform="scale(1.75031)"><path
               d="m 16045.8,10480.2 c 0,0 172.7,199.9 241.3,69.6 68.7,-130.3 -155.4,-228.2 -232.9,-164.2 l -8.4,94.6"
               style="fill:url(#linearGradient772);fill-opacity:1;fill-rule:nonzero;stroke:none"
               id="path774" /></g></g></g><g
         id="g776"><g
           id="g778"
           clip-path="url(#clipPath782)"><g
             id="g784"
             transform="scale(1.77753)"><path
               d="m 14955.6,5939.18 c 1.3,-33.19 -56.9,-296.13 -88.6,-436.44 -12.7,-56.43 -3.8,-115.5 24.9,-165.68 L 15989,3490.51 c 13.3,-22.33 23,-46.52 28.8,-71.84 20.2,-86.64 61.8,-299.01 40.1,-492.2 l -56.8,-117.92 245.5,55.75 53.4,659.18 -69.5,42.36 c -60.1,36.62 -106.8,91.36 -133.5,156.34 -99.3,241.01 -345.6,854.44 -409.1,1153.34 -72.2,339.8 -449.5,615.74 -449.5,615.74 l 66.3,156.68 -349.1,291.24"
               style="fill:url(#linearGradient790);fill-opacity:1;fill-rule:nonzero;stroke:none"
               id="path792" /></g></g></g><g
         id="g794"><g
           id="g796"
           clip-path="url(#clipPath800)"><g
             id="g802"
             transform="scale(1.80145)"><path
               d="m 16300,3050.09 c 0,0 -130.8,207.39 -146.2,288.1 -15.3,80.71 -58.2,223.27 -138.8,180.3 0,0 -38,-392.07 -24.9,-545.28 13.1,-153.21 -173.2,-148.27 -173.2,-148.27 0,0 -51.4,-7.22 -89,-44.85 -25.9,-25.93 -7.4,-71 29.3,-73.33 60.9,-3.94 157.8,-4.94 259.5,14.71 35.5,6.83 61.8,37.08 64,73.22 l 26.8,451.24 165,-208.27 27.5,12.43"
               style="fill:url(#linearGradient808);fill-opacity:1;fill-rule:nonzero;stroke:none"
               id="path810" /></g></g></g><g
         id="g812"><g
           id="g814"
           clip-path="url(#clipPath818)"><g
             id="g820"
             transform="scale(1.7619)"><path
               d="m 15749.6,5695.1 c 0,0 39,-1666.33 44.3,-1903 5.3,-236.68 -37.4,-761.17 -274.6,-917.93 l 103.2,-76.4 c 0,0 129,109.66 255.1,320.68 141.6,237.07 184.4,280.38 184.4,280.38 l -47,96.2 c -20.6,42.17 -26.7,89.79 -17.2,135.71 51.2,248.14 222.3,1073.5 268.9,1251.26 55.1,209.83 59,489.98 -132.6,724.5 -191.6,234.57 -384.5,88.6 -384.5,88.6"
               style="fill:url(#linearGradient826);fill-opacity:1;fill-rule:nonzero;stroke:none"
               id="path828" /></g></g></g><g
         id="g830"><g
           id="g832"
           clip-path="url(#clipPath836)"><g
             id="g838"
             transform="scale(1.74215)"><path
               d="m 16149.7,2753.5 c 7.4,-0.06 13.8,5.28 14.8,12.63 8,56.19 41.2,281.43 68.5,339.75 31.1,66.81 132.9,347.96 -0.1,371.84 0,0 -330.6,-483.08 -394.1,-548.17 -63.5,-65.15 -143.6,-22.79 -143.6,-22.79 0,0 -61.8,-18.26 -108.5,-77.84 -22.1,-28.35 -1.4,-70.03 34.5,-70.37 l 222.8,-2.12 c 64.6,-0.58 122.8,38.68 146.8,98.73 39.2,97.92 106.6,241.54 185,305.25 l -40.7,-390.49 c -0.9,-8.73 5.8,-16.31 14.6,-16.42"
               style="fill:url(#linearGradient844);fill-opacity:1;fill-rule:nonzero;stroke:none"
               id="path846" /></g></g></g><g
         id="g848"><g
           id="g850"
           clip-path="url(#clipPath854)"><g
             id="g856"
             transform="scale(1.79724)"><path
               d="m 15171.8,7566.72 c 0,0 48.6,-155.07 -26.1,-410.41 l -463.6,-1618.98 c -7.3,-25.43 6.4,-52.03 31.3,-60.99 138.7,-49.74 594.6,-190.46 1216.9,-147.56 31.3,2.17 57.6,24.38 64.3,55.03 41.1,184.56 181,814.25 209.8,943.67 109.7,492.98 232.3,1024.69 -306.9,1346.18 -248.4,-106.44 -480.2,-169.15 -725.7,-106.94"
               style="fill:url(#linearGradient862);fill-opacity:1;fill-rule:nonzero;stroke:none"
               id="path864" /></g></g></g><g
         id="g866"><g
           id="g868"
           clip-path="url(#clipPath872)"><g
             id="g874"
             transform="scale(1.84153)"><path
               d="m 15644.4,8971.6 c 0,0 514.7,-427.8 642.5,-1012.42 127.7,-584.62 -752.2,-646.74 -752.2,-646.74 0,0 -119.5,133.42 -261.3,85.85 -141.9,-47.57 -11,232.8 154.9,232.09 166,-0.76 89.1,-131.96 323.8,-25.63 228.7,103.55 370.1,423.94 -213.4,909.51 -33.8,28.19 -60.8,64.02 -77.1,104.97 -113.3,285.3 -23.4,472.32 182.8,352.37"
               style="fill:url(#linearGradient880);fill-opacity:1;fill-rule:nonzero;stroke:none"
               id="path882" /></g></g></g></g></g></svg>
